<svg width="150" height="98" viewBox="0 0 150 98" fill="none" xmlns="http://www.w3.org/2000/svg">
<path d="M50.5042 65.0754H51.7123L52.5129 60.7961H53.59C54.5652 60.7961 55.0456 61.3637 55.1329 62.7029C55.2057 63.8382 55.3076 64.8717 55.3658 65.0754H56.603C56.4866 64.6824 56.4138 63.7509 56.3119 62.3681C56.2246 61.3783 55.9044 60.6359 55.2202 60.4031V60.3739C56.472 60.0246 57.5492 58.962 57.5492 57.5356C57.5492 56.866 57.2872 56.2983 56.8359 55.9199C56.3119 55.4396 55.4677 55.2067 54.4925 55.2067C53.7647 55.2067 52.9496 55.2794 52.3382 55.4104L50.5042 65.0754ZM53.3862 56.2692C53.6191 56.211 53.9248 56.1673 54.4051 56.1673C55.5114 56.1673 56.2974 56.6477 56.2974 57.6957C56.2974 58.8747 55.3076 59.8645 53.7792 59.8645H52.7021L53.3862 56.2692ZM64.5781 63.78C64.1414 64.0129 63.5155 64.2458 62.6859 64.2458C61.9581 64.2458 61.3904 63.9401 61.1138 63.2996C60.9537 62.9357 60.9101 62.2807 60.9683 61.9751C63.5738 62.0187 65.6552 61.5384 65.6552 59.6898C65.6552 58.6709 64.9274 57.8704 63.5883 57.8704C61.3322 57.8704 59.7456 60.2721 59.7456 62.3972C59.7456 63.9546 60.5607 65.2356 62.4238 65.2356C63.37 65.2356 64.2142 64.9735 64.7528 64.6824L64.5781 63.78ZM64.4908 59.7044C64.4908 60.8106 63.0061 61.0581 61.1138 61.0289C61.3904 59.9373 62.2783 58.8165 63.4136 58.8165C64.0395 58.8165 64.4908 59.1367 64.4908 59.7044ZM67.599 64.7552C67.9338 64.9881 68.6033 65.221 69.3602 65.2356C70.8449 65.2356 72.053 64.3913 72.053 62.9066C72.053 62.1206 71.5145 61.5093 70.7285 61.0581C70.1026 60.7087 69.7532 60.3885 69.7532 59.879C69.7532 59.2823 70.2772 58.8165 71.0196 58.8165C71.5436 58.8165 71.9948 58.9911 72.2277 59.1367L72.577 58.2197C72.315 58.045 71.7474 57.8704 71.1069 57.8704C69.6222 57.8704 68.5597 58.8165 68.5597 60.0392C68.5597 60.7669 69.0109 61.3928 69.826 61.8441C70.5538 62.2516 70.8012 62.601 70.8012 63.1395C70.8012 63.7654 70.2918 64.2894 69.4621 64.2894C68.8799 64.2894 68.2831 64.0565 67.9483 63.8528L67.599 64.7552ZM79.8186 63.78C79.3819 64.0129 78.7561 64.2458 77.9264 64.2458C77.1986 64.2458 76.6309 63.9401 76.3544 63.2996C76.1942 62.9357 76.1506 62.2807 76.2088 61.9751C78.8143 62.0187 80.8957 61.5384 80.8957 59.6898C80.8957 58.6709 80.168 57.8704 78.8288 57.8704C76.5727 57.8704 74.9861 60.2721 74.9861 62.3972C74.9861 63.9546 75.8012 65.2356 77.6644 65.2356C78.6105 65.2356 79.4547 64.9735 79.9933 64.6824L79.8186 63.78ZM79.7313 59.7044C79.7313 60.8106 78.2466 61.0581 76.3544 61.0289C76.6309 59.9373 77.5188 58.8165 78.6542 58.8165C79.2801 58.8165 79.7313 59.1367 79.7313 59.7044ZM88.9238 65.0754C88.8947 64.2894 88.9966 63.0376 89.2295 61.815L89.9427 58.1469C89.4478 57.9868 88.72 57.8704 88.0504 57.8704C84.9792 57.8704 83.1743 60.4613 83.1743 62.9066C83.1743 64.2894 83.9457 65.2356 85.2121 65.2356C86.2019 65.2356 87.1625 64.7115 87.9194 63.256H87.9631C87.8758 63.9838 87.7884 64.6533 87.803 65.0754H88.9238ZM88.1669 61.0581C87.8176 62.9212 86.6531 64.2458 85.6342 64.2458C84.7026 64.2458 84.4261 63.4889 84.4261 62.7029C84.4261 60.7524 85.9253 58.831 87.7448 58.831C88.1523 58.831 88.4143 58.8747 88.589 58.9329L88.1669 61.0581ZM98.025 58.0305L97.3409 61.6403C97.0497 63.1978 95.929 64.2167 95.0411 64.2167C94.2259 64.2167 93.9203 63.7218 93.9203 62.994C93.9203 62.6883 93.9639 62.3535 94.0513 61.9605L94.7936 58.0305H93.5855L92.8286 62.0187C92.7267 62.4845 92.6976 62.863 92.6976 63.1978C92.6976 64.7989 93.6437 65.2356 94.5462 65.2356C95.4777 65.2356 96.4093 64.6679 97.0352 63.7509H97.0643L96.8751 65.0754H97.9668C98.0395 64.4932 98.1269 63.8091 98.287 63.0376L99.2331 58.0305H98.025ZM30.3579 86.1395C29.7903 86.4306 29.1207 86.5908 28.3493 86.5908C27.7379 86.5908 27.2721 86.4161 26.981 86.0522C26.8355 85.8484 26.7627 85.5282 26.7627 85.3244C29.6156 85.4117 31.3768 84.7422 31.3768 82.9373C31.3768 81.5981 30.3434 80.7976 28.8878 80.7976C26.326 80.7976 24.754 83.0537 24.754 85.208C24.754 87.0711 25.7874 88.2356 27.8252 88.2356C28.6258 88.2356 29.6593 88.09 30.4889 87.6679L30.3579 86.1395ZM29.4118 82.9227C29.4118 83.5923 28.5967 83.8106 26.9665 83.7815C27.112 83.1265 27.6797 82.3259 28.6404 82.3259C29.1062 82.3259 29.4118 82.5734 29.4118 82.9227ZM35.5309 88.0754L36.1422 84.9023C36.4334 83.3303 37.2339 82.486 37.9035 82.486C38.4421 82.486 38.6167 82.8354 38.6167 83.3303C38.6167 83.5923 38.5876 83.8979 38.5439 84.1308L37.8016 88.0754H39.8831L40.6836 83.9416C40.7419 83.5923 40.8001 83.0683 40.8001 82.748C40.8001 81.5108 40.1451 80.7976 38.9806 80.7976C38.0345 80.7976 37.1466 81.2197 36.477 82.1367H36.4479L36.5935 80.9577H34.7303C34.643 81.5981 34.5266 82.3696 34.3519 83.2721L33.4494 88.0754H35.5309ZM45.1563 79.4585L44.8798 80.9577H43.9628L43.6571 82.5443H44.5741L44.021 85.3826C43.9045 85.9212 43.8754 86.2996 43.8754 86.6926C43.8754 87.5951 44.4722 88.2356 45.724 88.2356C46.1752 88.2356 46.6992 88.1773 46.9612 88.0754L47.2087 86.4306C47.0195 86.4598 46.8157 86.4598 46.641 86.4598C46.1752 86.4598 46.0297 86.2123 46.0297 85.863C46.0297 85.601 46.0879 85.2371 46.1461 84.9605L46.6265 82.5443H48.1403L48.4605 80.9577H46.9321L47.3106 78.949L45.1563 79.4585ZM52.065 88.0754L52.5744 85.4263C52.8364 84.0289 53.4623 82.8354 54.7869 82.8354C54.9179 82.8354 55.0343 82.8499 55.1217 82.8645L55.5292 80.8121C55.4128 80.7976 55.2818 80.7976 55.1508 80.7976C54.1755 80.7976 53.3895 81.4671 52.8801 82.4133H52.8364C52.8946 81.9184 52.9237 81.438 52.9674 80.9577H51.1479C51.0752 81.569 50.9878 82.7626 50.7695 83.8397L49.9835 88.0754H52.065ZM62.8091 86.1395C62.2415 86.4306 61.5719 86.5908 60.8004 86.5908C60.1891 86.5908 59.7233 86.4161 59.4322 86.0522C59.2866 85.8484 59.2139 85.5282 59.2139 85.3244C62.0668 85.4117 63.828 84.7422 63.828 82.9373C63.828 81.5981 62.7946 80.7976 61.339 80.7976C58.7772 80.7976 57.2052 83.0537 57.2052 85.208C57.2052 87.0711 58.2386 88.2356 60.2764 88.2356C61.077 88.2356 62.1104 88.09 62.9401 87.6679L62.8091 86.1395ZM61.863 82.9227C61.863 83.5923 61.0479 83.8106 59.4176 83.7815C59.5632 83.1265 60.1309 82.3259 61.0915 82.3259C61.5573 82.3259 61.863 82.5734 61.863 82.9227ZM67.4144 90.9575L67.9966 87.9444H68.0258C68.2732 88.09 68.7827 88.2356 69.3503 88.2356C71.8248 88.2356 73.4696 85.9649 73.4696 83.4904C73.4696 82.0348 72.7127 80.7976 71.1843 80.7976C70.311 80.7976 69.4813 81.2197 68.8991 81.9911H68.87L68.9864 80.8995H67.1087C67.036 81.6273 66.8613 82.8645 66.7012 83.7087L65.3329 90.9575H67.4144ZM68.5934 84.7713C68.8118 83.3594 69.5687 82.5006 70.3547 82.5006C71.0242 82.5006 71.2862 83.0974 71.2862 83.6651C71.2862 85.0624 70.3983 86.649 69.2775 86.649C68.87 86.649 68.5498 86.5034 68.3314 86.2996L68.5934 84.7713ZM77.7715 88.0754L78.2809 85.4263C78.5429 84.0289 79.1688 82.8354 80.4934 82.8354C80.6244 82.8354 80.7409 82.8499 80.8282 82.8645L81.2357 80.8121C81.1193 80.7976 80.9883 80.7976 80.8573 80.7976C79.8821 80.7976 79.0961 81.4671 78.5866 82.4133H78.5429C78.6012 81.9184 78.6303 81.438 78.6739 80.9577H76.8545C76.7817 81.569 76.6944 82.7626 76.476 83.8397L75.69 88.0754H77.7715ZM88.5157 86.1395C87.948 86.4306 87.2784 86.5908 86.507 86.5908C85.8956 86.5908 85.4298 86.4161 85.1387 86.0522C84.9932 85.8484 84.9204 85.5282 84.9204 85.3244C87.7733 85.4117 89.5346 84.7422 89.5346 82.9373C89.5346 81.5981 88.5011 80.7976 87.0455 80.7976C84.4837 80.7976 82.9117 83.0537 82.9117 85.208C82.9117 87.0711 83.9452 88.2356 85.983 88.2356C86.7835 88.2356 87.817 88.09 88.6467 87.6679L88.5157 86.1395ZM87.5695 82.9227C87.5695 83.5923 86.7544 83.8106 85.1242 83.7815C85.2697 83.1265 85.8374 82.3259 86.7981 82.3259C87.2639 82.3259 87.5695 82.5734 87.5695 82.9227ZM93.6886 88.0754L94.3 84.9023C94.5911 83.3303 95.3916 82.486 96.0612 82.486C96.5998 82.486 96.7744 82.8354 96.7744 83.3303C96.7744 83.5923 96.7453 83.8979 96.7017 84.1308L95.9593 88.0754H98.0408L98.8414 83.9416C98.8996 83.5923 98.9578 83.0683 98.9578 82.748C98.9578 81.5108 98.3028 80.7976 97.1383 80.7976C96.1922 80.7976 95.3043 81.2197 94.6348 82.1367H94.6056L94.7512 80.9577H92.8881C92.8007 81.5981 92.6843 82.3696 92.5096 83.2721L91.6072 88.0754H93.6886ZM107.695 77.7409L107.084 80.9722C106.778 80.8558 106.4 80.7976 106.109 80.7976C103.416 80.7976 101.64 83.0683 101.64 85.5573C101.64 87.2749 102.615 88.2356 103.838 88.2356C104.668 88.2356 105.541 87.8717 106.167 86.9255H106.196L106.094 88.0754H108.016C108.045 87.2458 108.176 86.2269 108.35 85.3099L109.791 77.7409H107.695ZM106.414 84.553C106.138 85.9066 105.396 86.5471 104.784 86.5471C104.187 86.5471 103.809 86.0668 103.809 85.208C103.809 83.8397 104.697 82.3987 105.949 82.3987C106.298 82.3987 106.618 82.5006 106.778 82.6316L106.414 84.553ZM113.307 88.0754L113.817 85.4263C114.079 84.0289 114.705 82.8354 116.029 82.8354C116.16 82.8354 116.277 82.8499 116.364 82.8645L116.771 80.8121C116.655 80.7976 116.524 80.7976 116.393 80.7976C115.418 80.7976 114.632 81.4671 114.122 82.4133H114.079C114.137 81.9184 114.166 81.438 114.21 80.9577H112.39C112.317 81.569 112.23 82.7626 112.012 83.8397L111.226 88.0754H113.307ZM124.051 86.1395C123.484 86.4306 122.814 86.5908 122.043 86.5908C121.431 86.5908 120.966 86.4161 120.674 86.0522C120.529 85.8484 120.456 85.5282 120.456 85.3244C123.309 85.4117 125.07 84.7422 125.07 82.9373C125.07 81.5981 124.037 80.7976 122.581 80.7976C120.019 80.7976 118.447 83.0537 118.447 85.208C118.447 87.0711 119.481 88.2356 121.519 88.2356C122.319 88.2356 123.353 88.09 124.182 87.6679L124.051 86.1395ZM123.105 82.9227C123.105 83.5923 122.29 83.8106 120.66 83.7815C120.805 83.1265 121.373 82.3259 122.334 82.3259C122.8 82.3259 123.105 82.5734 123.105 82.9227Z" fill="#01084C"/>
<path d="M95.4706 35.1577C89.8723 43.8911 82.9815 43.8911 70.6139 43.8911C58.2464 43.8911 52.6992 42.5914 52.6992 37.397C52.6992 32.2027 74.3697 23.2892 86.7372 23.2892C99.1048 23.2892 98.3416 30.679 95.4706 35.1577Z" fill="#01084C"/>
<path d="M87.2949 14.5147C81.9914 8.85978 77.6409 10.0255 69.8327 12.1177C62.0245 14.2099 58.7856 16.1308 59.8377 20.0575C60.8899 23.9841 76.3769 27.0562 84.1851 24.964C91.9933 22.8718 90.0146 17.4146 87.2949 14.5147Z" fill="#01084C"/>
<path d="M82.0539 8.76447C83.8685 5.448 85.9658 5.51681 89.7302 5.64032C93.4945 5.76382 95.1664 6.32109 95.1006 8.32687C95.0348 10.3326 88.326 13.5581 84.5617 13.4346C80.7974 13.3111 81.1233 10.4652 82.0539 8.76447Z" fill="#01084C"/>
<path d="M96.2724 1.24649C97.4744 0.41368 98.188 0.800727 99.4686 1.49539C100.749 2.19006 101.231 2.67238 100.861 3.35473C100.491 4.03709 97.6116 3.99081 96.331 3.29614C95.0504 2.60147 95.656 1.67358 96.2724 1.24649Z" fill="#01084C"/>
</svg>
