<svg width="131" height="35" viewBox="0 0 131 35" fill="none" xmlns="http://www.w3.org/2000/svg">
<g clip-path="url(#clip0)">
<path d="M108.644 15.7859L114.131 15.7843C114.131 11.9041 111.577 8.9884 107.081 8.9884C100.363 8.9884 99.11 13.8331 99.11 17.2945C99.11 19.3329 99.9674 26.209 108.43 26.209C109.899 26.209 111.596 26.0669 113.68 25.499V22.6093C110.365 24.0316 105.449 24.0928 104.821 18.7115C104.298 14.2137 105.147 11.3538 106.745 11.3538C108.131 11.3538 108.644 13.3432 108.644 15.7859Z" fill="#01084C"/>
<path d="M124.422 15.0468C124.393 13.1995 124.029 11.3538 122.667 11.3538C121.379 11.3538 120.903 12.8227 120.706 15.0468H124.422ZM130.211 15.9012V17.6025H120.637C120.973 24.2456 126.022 24.0415 129.569 22.6093V25.499C127.485 26.0669 126.043 26.2075 124.443 26.2075C116.219 26.2075 114.994 20.169 114.994 17.1042C114.994 13.5565 116.568 8.98074 122.867 8.98609C127.51 8.98838 130.211 11.8842 130.211 15.9012Z" fill="#01084C"/>
<path d="M71.7949 23.2566L72.7298 23.2597V17.1669C71.3731 17.2869 69.4311 17.8792 69.4288 20.5297C69.4288 23.0136 70.625 23.2092 71.7949 23.2566ZM78.4653 14.9971V25.7046L69.4179 25.7031C66.0889 25.6992 63.6468 24.3549 63.6546 20.6772C63.667 14.7074 70.6893 14.9245 72.7298 14.9192V14.5049C72.7329 10.8662 69.0706 11.2193 66.8797 11.8475C66.4122 11.9882 65.9959 12.1395 65.6563 12.287L65.6594 9.59827C67.6115 9.14123 68.9264 8.98608 70.9832 8.98608C75.8053 8.98608 78.4653 11.2269 78.4653 14.9971Z" fill="#01084C"/>
<path d="M63.7402 8.98608H62.5176C57.7706 8.98761 54.6781 11.4761 54.6742 14.7992V25.7046H60.4112V14.9734C60.4151 11.9629 62.4548 11.5724 63.7402 11.5326V8.98608Z" fill="#01084C"/>
<path d="M53.5634 2.79626C48.5591 2.79626 44.3253 3.49405 44.3253 9.53029V25.7046H50.0607L50.0615 12.0753H53.9821V9.53793H50.0615V8.27C50.0646 5.25952 52.4835 5.30309 54.786 5.30309L54.7845 2.79626H53.5634Z" fill="#01084C"/>
<path d="M81.6152 9.53784V25.7045H87.3507V12.0768H87.6577C89.6509 12.0852 91.0642 12.2579 91.0642 15.9845V25.7045H96.7996V16.2979C96.7996 13.2813 96.7857 9.53861 88.6733 9.53861L81.6152 9.53784Z" fill="#01084C"/>
<path d="M41.2261 31.559C41.2261 33.2603 39.8275 34.6398 38.101 34.6398C36.3752 34.6398 34.9751 33.2603 34.9751 31.559C34.9751 29.8577 36.3752 28.4767 38.101 28.4767C39.8275 28.4767 41.2261 29.8577 41.2261 31.559Z" fill="#01084C"/>
<path d="M35.23 25.7045H40.9662V9.53784H35.23V25.7045Z" fill="#01084C"/>
<path d="M6.53439 23.3094C8.90129 23.3094 9.72229 21.0953 9.72229 17.4306C9.72229 13.9333 8.90129 11.8896 6.45377 11.8896L6.09637 11.8881V23.3109L6.53439 23.3094ZM8.26789 25.7046H0.32605V2.79626H6.09637V9.53793H7.76552C15.5539 9.53793 15.55 15.5444 15.55 17.4673C15.55 20.0024 14.7352 25.7046 8.26789 25.7046Z" fill="#01084C"/>
<path d="M23.9879 11.8903L23.5491 11.888V23.3108L23.9065 23.3093C26.3532 23.3093 27.1773 21.2656 27.1773 17.7714C27.1773 14.1051 26.3532 11.8903 23.9879 11.8903ZM25.7206 9.53784C32.1894 9.53784 33.0027 15.2409 33.0027 17.7737C33.0027 19.6973 33.0066 25.7045 25.2182 25.7045H23.5491V32.4462H17.7795V9.53784H25.7206Z" fill="#01084C"/>
<path d="M41.2244 3.6851C41.2244 5.38485 39.8258 6.76437 38.0993 6.76437C36.3735 6.76437 34.9734 5.38485 34.9734 3.6851C34.9734 1.98383 36.3735 0.602783 38.0993 0.602783C39.8258 0.602783 41.2244 1.98383 41.2244 3.6851Z" fill="#01084C"/>
</g>
<defs>
<clipPath id="clip0">
<rect width="129.882" height="34.038" fill="white" transform="translate(0.328125 0.602051)"/>
</clipPath>
</defs>
</svg>
