<svg width="377" height="146" viewBox="0 0 377 146" fill="none" xmlns="http://www.w3.org/2000/svg">
<g opacity="0.1">
<path opacity="0.1" fill-rule="evenodd" clip-rule="evenodd" d="M376.307 67.8894C364.211 69.6209 354.251 64.5831 346.427 52.776C334.693 35.0654 330.571 28.5946 325.347 31.2534C320.123 33.9121 315.598 46.0963 311.513 57.5722C307.427 69.0481 299.323 70.1086 293.861 57.5722C288.398 45.0358 282.066 13.272 274.654 7.93555C267.241 2.59913 262.579 6.72205 257.872 18.9877C253.165 31.2534 248.851 55.5145 240.579 61.609C235.065 65.672 224.03 67.5845 207.472 67.3466C227.043 66.8628 239.967 72.6566 246.244 84.7282C255.66 102.835 257.164 126.609 267.881 129.768C278.599 132.926 281.96 114.696 284.086 107.16C286.212 99.6231 289.958 73.9936 300.229 70.9415C310.499 67.8894 313.846 84.0916 317.147 92.8171C320.448 101.543 324.448 109.088 332.018 103.558C339.588 98.0288 341.724 82.197 350.346 76.5693C356.094 72.8174 364.748 69.9241 376.307 67.8894Z" fill="#09B6D5"/>
<path opacity="0.1" fill-rule="evenodd" clip-rule="evenodd" d="M186.303 67.8894C198.949 69.6209 209.362 64.5831 217.541 52.776C229.809 35.0654 234.118 28.5946 239.58 31.2534C245.041 33.9121 249.771 46.0963 254.043 57.5722C258.314 69.0481 266.786 70.1086 272.497 57.5722C278.208 45.0358 284.827 13.272 292.577 7.93555C300.326 2.59913 305.2 6.72205 310.121 18.9877C315.042 31.2534 319.553 55.5145 328.2 61.609C333.965 65.672 345.502 67.5845 362.812 67.3466C342.351 66.8628 328.84 72.6566 322.278 84.7282C312.434 102.835 310.862 126.609 299.657 129.768C288.453 132.926 284.939 114.696 282.716 107.16C280.494 99.6231 276.577 73.9936 265.84 70.9415C255.103 67.8894 251.603 84.0916 248.152 92.8171C244.701 101.543 240.519 109.088 232.605 103.558C224.691 98.0288 222.458 82.197 213.444 76.5693C207.434 72.8174 198.388 69.9241 186.303 67.8894Z" fill="#09B6D5"/>
<path opacity="0.1" fill-rule="evenodd" clip-rule="evenodd" d="M204.033 69.5974C216.121 71.1232 226.074 66.6838 233.892 56.2791C245.619 40.672 249.738 34.9698 254.958 37.3127C260.178 39.6557 264.7 50.3927 268.782 60.5056C272.865 70.6185 279.887 68.0683 286.422 60.5056C292.958 52.9429 299.465 30.0382 306.872 25.3356C314.28 20.633 318.939 24.2663 323.642 35.0751C328.346 45.8839 329.636 60.2399 339.667 64.0629C346.354 66.6116 353.275 67.886 360.43 67.886C350.302 69.9507 342.133 73.9779 335.924 79.9677C326.61 88.9524 324.256 110.854 313.546 113.637C302.836 116.421 298.315 103.279 296.19 96.638C294.066 89.9965 290.322 74.9766 280.059 72.287C269.796 69.5974 266.45 83.8751 263.152 91.5643C259.853 99.2534 255.856 105.902 248.291 101.03C240.727 96.157 238.592 82.2056 229.976 77.2463C224.232 73.9401 215.584 71.3904 204.033 69.5974Z" fill="#09B6D5"/>
</g>
<g opacity="0.1">
<path opacity="0.1" fill-rule="evenodd" clip-rule="evenodd" d="M-7.62939e-05 67.8894C12.0963 69.6209 22.0561 64.5831 29.8794 52.776C41.6143 35.0654 45.7363 28.5946 50.9602 31.2534C56.184 33.9121 60.7085 46.0963 64.7941 57.5722C68.8796 69.0481 76.9836 70.1086 82.4463 57.5722C87.9089 45.0358 94.2404 13.272 101.653 7.93555C109.066 2.59913 113.728 6.72205 118.435 18.9877C123.141 31.2534 127.456 55.5145 135.728 61.609C141.242 65.672 152.277 67.5845 168.834 67.3466C149.263 66.8628 136.339 72.6566 130.063 84.7282C120.647 102.835 119.143 126.609 108.425 129.768C97.7081 132.926 94.347 114.696 92.221 107.16C90.0951 99.6231 86.3485 73.9936 76.0783 70.9415C65.8081 67.8894 62.4606 84.0916 59.1596 92.8171C55.8586 101.543 51.8588 109.088 44.289 103.558C36.7192 98.0288 34.5826 82.197 25.9605 76.5693C20.2125 72.8174 11.5589 69.9241 -7.62939e-05 67.8894Z" fill="#09B6D5"/>
<path opacity="0.1" fill-rule="evenodd" clip-rule="evenodd" d="M190.004 67.8894C177.358 69.6209 166.945 64.5831 158.766 52.776C146.498 35.0654 142.188 28.5946 136.727 31.2534C131.266 33.9121 126.536 46.0963 122.264 57.5722C117.993 69.0481 109.521 70.1086 103.81 57.5722C98.0988 45.0358 91.4796 13.272 83.73 7.93555C75.9805 2.59913 71.1065 6.72205 66.1857 18.9877C61.2649 31.2534 56.7538 55.5145 48.1067 61.609C42.3419 65.672 30.8046 67.5845 13.4949 67.3466C33.9555 66.8628 47.4669 72.6566 54.0292 84.7282C63.8725 102.835 65.4454 126.609 76.6498 129.768C87.8542 132.926 91.3681 114.696 93.5907 107.16C95.8133 99.6231 99.7302 73.9936 110.467 70.9415C121.204 67.8894 124.704 84.0916 128.155 92.8171C131.606 101.543 135.788 109.088 143.702 103.558C151.615 98.0288 153.849 82.197 162.863 76.5693C168.872 72.8174 177.919 69.9241 190.004 67.8894Z" fill="#09B6D5"/>
<path opacity="0.1" fill-rule="evenodd" clip-rule="evenodd" d="M172.274 69.5974C160.186 71.1232 150.233 66.6838 142.415 56.2791C130.688 40.672 126.569 34.9698 121.349 37.3127C116.129 39.6557 111.607 50.3927 107.525 60.5056C103.442 70.6185 96.4199 68.0683 89.8846 60.5056C83.3493 52.9429 76.842 30.0382 69.4346 25.3356C62.0272 20.633 57.3683 24.2663 52.6647 35.0751C47.9611 45.8839 46.6707 60.2399 36.6403 64.0629C29.9533 66.6116 23.0322 67.886 15.8768 67.886C26.0053 69.9507 34.1742 73.9779 40.3833 79.9677C49.697 88.9524 52.0513 110.854 62.7611 113.637C73.4709 116.421 77.9921 103.279 80.1166 96.638C82.2411 89.9965 85.985 74.9766 96.2481 72.287C106.511 69.5974 109.856 83.8751 113.155 91.5643C116.454 99.2534 120.451 105.902 128.015 101.03C135.58 96.157 137.715 82.2056 146.331 77.2463C152.075 73.9401 160.723 71.3904 172.274 69.5974Z" fill="#09B6D5"/>
</g>
<path d="M69.8679 55.4648C68.0742 55.4648 66.6206 56.8937 66.6206 58.6567V77.3819C66.6206 79.1449 68.0742 80.5737 69.8679 80.5737C71.6615 80.5737 73.1152 79.1449 73.1152 77.3819V58.6567C73.115 56.8937 71.6613 55.4648 69.8679 55.4648Z" fill="url(#paint0_linear)" fill-opacity="0.5"/>
<path d="M59.5666 45.5698C57.773 45.5698 56.3193 46.9987 56.3193 48.7617V87.2778C56.3193 89.0409 57.773 90.4697 59.5666 90.4697C61.3603 90.4697 62.8139 89.0409 62.8139 87.2769V48.7615C62.8139 46.9987 61.3603 45.5698 59.5666 45.5698Z" fill="url(#paint1_linear)" fill-opacity="0.5"/>
<path d="M49.2613 36.3135C47.4677 36.3135 46.014 37.7423 46.014 39.5054V96.5332C46.014 98.2963 47.4677 99.7251 49.2613 99.7251C51.055 99.7251 52.5086 98.2963 52.5086 96.5332V39.5054C52.5086 37.7423 51.055 36.3135 49.2613 36.3135Z" fill="url(#paint2_linear)" fill-opacity="0.5"/>
<path d="M38.9561 45.5698C37.1625 45.5698 35.7089 46.9987 35.7089 48.7617V87.2778C35.7089 89.0409 37.1625 90.4697 38.9561 90.4697C40.7498 90.4697 42.2034 89.0409 42.2034 87.2769V48.7615C42.2034 46.9987 40.7496 45.5698 38.9561 45.5698Z" fill="url(#paint3_linear)" fill-opacity="0.5"/>
<path d="M28.651 54.8262C26.8573 54.8262 25.4037 56.255 25.4037 58.0181V78.0205C25.4037 79.7836 26.8573 81.2124 28.651 81.2124C30.4446 81.2124 31.8983 79.7845 31.8983 78.0205V58.0181C31.8983 56.255 30.4444 54.8262 28.651 54.8262Z" fill="url(#paint4_linear)" fill-opacity="0.5"/>
<path d="M100.784 36.3135C98.9899 36.3135 97.5363 37.7423 97.5363 39.5054V96.5332C97.5363 98.2963 98.9899 99.7251 100.784 99.7251C102.577 99.7251 104.031 98.2963 104.031 96.5332V39.5054C104.031 37.7423 102.577 36.3135 100.784 36.3135Z" fill="url(#paint5_linear)" fill-opacity="0.5"/>
<path d="M90.4782 45.5698C88.6846 45.5698 87.231 46.9987 87.231 48.7617V87.2778C87.231 89.0409 88.6846 90.4697 90.4782 90.4697C92.2719 90.4697 93.7255 89.0409 93.7255 87.2769V48.7615C93.7255 46.9987 92.2717 45.5698 90.4782 45.5698Z" fill="url(#paint6_linear)" fill-opacity="0.5"/>
<path d="M80.1731 50.5706C78.3794 50.5706 76.9258 51.9994 76.9258 53.7624V82.2761C76.9258 84.0392 78.3794 85.468 80.1731 85.468C81.9667 85.468 83.4203 84.0401 83.4203 82.2761V53.7624C83.4202 51.9994 81.9665 50.5706 80.1731 50.5706Z" fill="url(#paint7_linear)" fill-opacity="0.5"/>
<path d="M111.089 45.5698C109.295 45.5698 107.841 46.9987 107.841 48.7617V87.2778C107.841 89.0409 109.295 90.4697 111.089 90.4697C112.882 90.4697 114.336 89.0409 114.336 87.2769V48.7615C114.336 46.9987 112.882 45.5698 111.089 45.5698Z" fill="url(#paint8_linear)" fill-opacity="0.5"/>
<path d="M121.394 54.8262C119.6 54.8262 118.147 56.255 118.147 58.0181V78.0205C118.147 79.7836 119.6 81.2124 121.394 81.2124C123.188 81.2124 124.641 79.7845 124.641 78.0205V58.0181C124.641 56.255 123.188 54.8262 121.394 54.8262Z" fill="url(#paint9_linear)" fill-opacity="0.5"/>
<path d="M327.344 55.4648C329.138 55.4648 330.592 56.8937 330.592 58.6567V77.3819C330.592 79.1449 329.138 80.5737 327.344 80.5737C325.551 80.5737 324.097 79.1449 324.097 77.3819V58.6567C324.097 56.8937 325.551 55.4648 327.344 55.4648Z" fill="url(#paint10_linear)" fill-opacity="0.5"/>
<path d="M337.646 45.5698C339.439 45.5698 340.893 46.9987 340.893 48.7617V87.2778C340.893 89.0409 339.439 90.4697 337.646 90.4697C335.852 90.4697 334.398 89.0409 334.398 87.2769V48.7615C334.398 46.9987 335.852 45.5698 337.646 45.5698Z" fill="url(#paint11_linear)" fill-opacity="0.5"/>
<path d="M347.951 36.3135C349.744 36.3135 351.198 37.7423 351.198 39.5054V96.5332C351.198 98.2963 349.744 99.7251 347.951 99.7251C346.157 99.7251 344.704 98.2963 344.704 96.5332V39.5054C344.704 37.7423 346.157 36.3135 347.951 36.3135Z" fill="url(#paint12_linear)" fill-opacity="0.5"/>
<path d="M358.256 45.5698C360.05 45.5698 361.503 46.9987 361.503 48.7617V87.2778C361.503 89.0409 360.05 90.4697 358.256 90.4697C356.462 90.4697 355.009 89.0409 355.009 87.2769V48.7615C355.009 46.9987 356.463 45.5698 358.256 45.5698Z" fill="url(#paint13_linear)" fill-opacity="0.5"/>
<path d="M368.561 54.8262C370.355 54.8262 371.808 56.255 371.808 58.0181V78.0205C371.808 79.7836 370.355 81.2124 368.561 81.2124C366.768 81.2124 365.314 79.7845 365.314 78.0205V58.0181C365.314 56.255 366.768 54.8262 368.561 54.8262Z" fill="url(#paint14_linear)" fill-opacity="0.5"/>
<path d="M296.429 36.3135C298.222 36.3135 299.676 37.7423 299.676 39.5054V96.5332C299.676 98.2963 298.222 99.7251 296.429 99.7251C294.635 99.7251 293.181 98.2963 293.181 96.5332V39.5054C293.181 37.7423 294.635 36.3135 296.429 36.3135Z" fill="url(#paint15_linear)" fill-opacity="0.5"/>
<path d="M306.734 45.5698C308.528 45.5698 309.981 46.9987 309.981 48.7617V87.2778C309.981 89.0409 308.528 90.4697 306.734 90.4697C304.94 90.4697 303.487 89.0409 303.487 87.2769V48.7615C303.487 46.9987 304.94 45.5698 306.734 45.5698Z" fill="url(#paint16_linear)" fill-opacity="0.5"/>
<path d="M317.039 50.5706C318.833 50.5706 320.286 51.9994 320.286 53.7624V82.2761C320.286 84.0392 318.833 85.468 317.039 85.468C315.245 85.468 313.792 84.0401 313.792 82.2761V53.7624C313.792 51.9994 315.246 50.5706 317.039 50.5706Z" fill="url(#paint17_linear)" fill-opacity="0.5"/>
<path d="M286.123 45.5698C287.917 45.5698 289.371 46.9987 289.371 48.7617V87.2778C289.371 89.0409 287.917 90.4697 286.123 90.4697C284.33 90.4697 282.876 89.0409 282.876 87.2769V48.7615C282.876 46.9987 284.33 45.5698 286.123 45.5698Z" fill="url(#paint18_linear)" fill-opacity="0.5"/>
<path d="M275.818 54.8262C277.612 54.8262 279.066 56.255 279.066 58.0181V78.0205C279.066 79.7836 277.612 81.2124 275.818 81.2124C274.025 81.2124 272.571 79.7845 272.571 78.0205V58.0181C272.571 56.255 274.025 54.8262 275.818 54.8262Z" fill="url(#paint19_linear)" fill-opacity="0.5"/>
<path fill-rule="evenodd" clip-rule="evenodd" d="M163.877 0.896973H241.604C249.82 0.896973 256.481 7.31781 256.481 15.2383V139.572C256.481 140.384 255.798 141.043 254.955 141.043H150.526C149.683 141.043 149 140.384 149 139.572V15.2383C149 7.31781 155.661 0.896973 163.877 0.896973Z" fill="#00042E"/>
<path fill-rule="evenodd" clip-rule="evenodd" d="M153.865 132.583H183.974V139.953L174.167 145.089H153.865C153.022 145.089 152.339 144.431 152.339 143.618V134.054C152.339 133.242 153.022 132.583 153.865 132.583Z" fill="#1D2D37"/>
<path fill-rule="evenodd" clip-rule="evenodd" d="M153.865 133.319H183.974V140.688L174.167 145.825H153.865C153.022 145.825 152.339 145.166 152.339 144.354V134.79C152.339 133.977 153.022 133.319 153.865 133.319Z" fill="#0F1449"/>
<path fill-rule="evenodd" clip-rule="evenodd" d="M252.19 132.583H222.081V139.953L231.888 145.089H252.19C253.032 145.089 253.716 144.431 253.716 143.618V134.054C253.716 133.242 253.032 132.583 252.19 132.583Z" fill="#1D2D37"/>
<path fill-rule="evenodd" clip-rule="evenodd" d="M252.19 133.319H222.081V140.688L231.888 145.825H252.19C253.032 145.825 253.716 145.166 253.716 144.354V134.79C253.716 133.977 253.032 133.319 252.19 133.319Z" fill="#0F1449"/>
<path d="M220.174 88.4426H185.872V141.043H220.174V88.4426Z" fill="#3C3F60"/>
<path d="M195.025 109.594C195.025 113.758 198.523 117.134 202.838 117.134C207.153 117.134 210.651 113.758 210.651 109.594C210.651 105.429 207.153 102.053 202.838 102.053" stroke="white" stroke-width="1.01384" stroke-linecap="round"/>
<path d="M205.916 112.72C206.689 111.981 207.169 110.946 207.169 109.802C207.169 107.554 205.316 105.731 203.031 105.731C200.746 105.731 198.893 107.554 198.893 109.802C198.893 110.826 199.278 111.762 199.912 112.477" stroke="white" stroke-width="1.01384" stroke-linecap="round"/>
<path d="M195.044 110.145V96.9028" stroke="white" stroke-width="1.01384" stroke-linecap="round"/>
<path d="M195.409 125.142C195.759 125.142 196.028 125.066 196.215 124.914C196.403 124.762 196.496 124.551 196.496 124.28C196.496 124.096 196.438 123.933 196.322 123.793C196.206 123.653 196.049 123.561 195.851 123.517C196.021 123.478 196.159 123.395 196.264 123.269C196.369 123.142 196.422 122.984 196.422 122.793C196.422 122.534 196.331 122.335 196.148 122.195C195.965 122.055 195.707 121.985 195.372 121.985H193.881V125.142H195.409ZM195.196 123.275H194.675V122.597H195.186C195.468 122.597 195.609 122.71 195.609 122.936C195.609 123.162 195.471 123.275 195.196 123.275ZM195.242 124.521H194.675V123.811H195.237C195.38 123.811 195.49 123.843 195.567 123.907C195.645 123.971 195.683 124.06 195.683 124.173C195.683 124.405 195.536 124.521 195.242 124.521ZM197.997 126.33L199.614 122.65H198.736L198.155 124.177L197.532 122.65H196.645L197.732 125.048L197.124 126.33H197.997ZM201.398 125.169C201.816 125.169 202.162 125.062 202.436 124.849C202.71 124.637 202.887 124.352 202.968 123.994H202.127C202.065 124.137 201.97 124.25 201.841 124.334C201.713 124.417 201.56 124.459 201.384 124.459C201.151 124.459 200.964 124.378 200.822 124.215C200.679 124.053 200.608 123.835 200.608 123.561C200.608 123.287 200.679 123.069 200.822 122.905C200.964 122.741 201.151 122.659 201.384 122.659C201.56 122.659 201.713 122.701 201.841 122.784C201.97 122.868 202.065 122.982 202.127 123.128H202.968C202.887 122.768 202.71 122.482 202.436 122.271C202.162 122.059 201.816 121.954 201.398 121.954C201.079 121.954 200.798 122.021 200.557 122.157C200.315 122.292 200.129 122.482 199.997 122.726C199.865 122.97 199.8 123.249 199.8 123.561C199.8 123.874 199.865 124.152 199.997 124.396C200.129 124.64 200.315 124.83 200.557 124.965C200.798 125.101 201.079 125.169 201.398 125.169ZM204.645 125.173C204.902 125.173 205.132 125.122 205.335 125.019C205.538 124.916 205.697 124.768 205.813 124.575C205.93 124.381 205.988 124.155 205.988 123.896C205.988 123.637 205.93 123.411 205.813 123.217C205.697 123.024 205.538 122.876 205.335 122.773C205.132 122.67 204.902 122.619 204.645 122.619C204.388 122.619 204.157 122.67 203.953 122.773C203.748 122.876 203.588 123.024 203.472 123.217C203.356 123.411 203.298 123.637 203.298 123.896C203.298 124.155 203.356 124.381 203.472 124.575C203.588 124.768 203.748 124.916 203.953 125.019C204.157 125.122 204.388 125.173 204.645 125.173ZM204.645 124.508C204.493 124.508 204.366 124.456 204.262 124.352C204.158 124.247 204.106 124.096 204.106 123.896C204.106 123.697 204.158 123.544 204.262 123.438C204.366 123.333 204.493 123.28 204.645 123.28C204.797 123.28 204.924 123.333 205.026 123.438C205.128 123.544 205.179 123.697 205.179 123.896C205.179 124.096 205.128 124.247 205.026 124.352C204.924 124.456 204.797 124.508 204.645 124.508ZM207.214 125.142V121.838H206.42V125.142H207.214ZM208.464 125.142V124.378H207.642V125.142H208.464ZM209.881 125.173C210.079 125.173 210.249 125.13 210.392 125.044C210.534 124.957 210.64 124.84 210.708 124.691V125.142H211.498V122.65H210.708V123.101C210.64 122.952 210.534 122.835 210.392 122.749C210.249 122.662 210.079 122.619 209.881 122.619C209.667 122.619 209.476 122.67 209.307 122.773C209.138 122.876 209.005 123.023 208.908 123.215C208.81 123.407 208.761 123.634 208.761 123.896C208.761 124.155 208.81 124.381 208.908 124.575C209.005 124.768 209.138 124.916 209.307 125.019C209.476 125.122 209.667 125.173 209.881 125.173ZM210.136 124.503C209.966 124.503 209.829 124.45 209.725 124.343C209.621 124.235 209.57 124.087 209.57 123.896C209.57 123.706 209.621 123.557 209.725 123.45C209.829 123.342 209.966 123.289 210.136 123.289C210.304 123.289 210.441 123.343 210.548 123.452C210.654 123.56 210.708 123.709 210.708 123.896C210.708 124.081 210.654 124.228 210.548 124.338C210.441 124.448 210.304 124.503 210.136 124.503ZM212.464 122.347C212.606 122.347 212.721 122.309 212.808 122.233C212.894 122.157 212.938 122.062 212.938 121.949C212.938 121.833 212.894 121.737 212.808 121.661C212.721 121.585 212.606 121.547 212.464 121.547C212.321 121.547 212.207 121.585 212.12 121.661C212.033 121.737 211.99 121.833 211.99 121.949C211.99 122.062 212.033 122.157 212.12 122.233C212.207 122.309 212.321 122.347 212.464 122.347ZM212.859 125.142V122.65H212.064V125.142H212.859Z" fill="white"/>
<path d="M224.507 33.5942H181.443C179.758 33.5942 178.391 34.9113 178.391 36.5361V78.1036C178.391 79.7283 179.758 81.0454 181.443 81.0454H224.507C226.192 81.0454 227.558 79.7283 227.558 78.1036V36.5361C227.558 34.9113 226.192 33.5942 224.507 33.5942Z" fill="white" fill-opacity="0.08"/>
<path d="M202.835 78.1426C214.202 78.1426 223.416 69.2495 223.416 58.2794C223.416 47.3093 214.202 38.4163 202.835 38.4163C191.468 38.4163 182.254 47.3093 182.254 58.2794C182.254 69.2495 191.468 78.1426 202.835 78.1426Z" fill="white" fill-opacity="0.17"/>
<path d="M202.839 74.832C212.311 74.832 219.99 67.4212 219.99 58.2794C219.99 49.1377 212.311 41.7268 202.839 41.7268C193.367 41.7268 185.688 49.1377 185.688 58.2794C185.688 67.4212 193.367 74.832 202.839 74.832Z" fill="#282A3F"/>
<path d="M202.833 71.5217C210.306 71.5217 216.364 65.6754 216.364 58.4635C216.364 51.2516 210.306 45.4053 202.833 45.4053C195.361 45.4053 189.303 51.2516 189.303 58.4635C189.303 65.6754 195.361 71.5217 202.833 71.5217Z" fill="#3C3F60"/>
<path d="M203.223 68.9465C209.222 68.9465 214.085 64.253 214.085 58.4631C214.085 52.6733 209.222 47.9797 203.223 47.9797C197.223 47.9797 192.36 52.6733 192.36 58.4631C192.36 64.253 197.223 68.9465 203.223 68.9465Z" fill="#282A3F"/>
<path d="M203.217 64.5327C206.691 64.5327 209.506 61.8154 209.506 58.4634C209.506 55.1114 206.691 52.394 203.217 52.394C199.744 52.394 196.929 55.1114 196.929 58.4634C196.929 61.8154 199.744 64.5327 203.217 64.5327Z" fill="#3C3F60"/>
<path d="M226.272 57.5442H179.773V59.3833H226.272V57.5442Z" fill="#282A3F"/>
<path fill-rule="evenodd" clip-rule="evenodd" d="M203.981 36.0261V80.9019H202.075V36.0261H203.981Z" fill="#282A3F"/>
<defs>
<linearGradient id="paint0_linear" x1="69.8679" y1="55.4648" x2="69.8679" y2="80.5737" gradientUnits="userSpaceOnUse">
<stop stop-color="#00E2FF"/>
<stop offset="1" stop-color="#3EA2FF"/>
</linearGradient>
<linearGradient id="paint1_linear" x1="59.5666" y1="45.5698" x2="59.5666" y2="90.4697" gradientUnits="userSpaceOnUse">
<stop stop-color="#00E2FF"/>
<stop offset="1" stop-color="#3EA2FF"/>
</linearGradient>
<linearGradient id="paint2_linear" x1="49.2613" y1="36.3135" x2="49.2613" y2="99.7251" gradientUnits="userSpaceOnUse">
<stop stop-color="#00E2FF"/>
<stop offset="1" stop-color="#3EA2FF"/>
</linearGradient>
<linearGradient id="paint3_linear" x1="38.9561" y1="45.5698" x2="38.9561" y2="90.4697" gradientUnits="userSpaceOnUse">
<stop stop-color="#00E2FF"/>
<stop offset="1" stop-color="#3EA2FF"/>
</linearGradient>
<linearGradient id="paint4_linear" x1="28.651" y1="54.8262" x2="28.651" y2="81.2124" gradientUnits="userSpaceOnUse">
<stop stop-color="#00E2FF"/>
<stop offset="1" stop-color="#3EA2FF"/>
</linearGradient>
<linearGradient id="paint5_linear" x1="100.784" y1="36.3135" x2="100.784" y2="99.7251" gradientUnits="userSpaceOnUse">
<stop stop-color="#00E2FF"/>
<stop offset="1" stop-color="#3EA2FF"/>
</linearGradient>
<linearGradient id="paint6_linear" x1="90.4782" y1="45.5698" x2="90.4782" y2="90.4697" gradientUnits="userSpaceOnUse">
<stop stop-color="#00E2FF"/>
<stop offset="1" stop-color="#3EA2FF"/>
</linearGradient>
<linearGradient id="paint7_linear" x1="80.1731" y1="50.5706" x2="80.1731" y2="85.468" gradientUnits="userSpaceOnUse">
<stop stop-color="#00E2FF"/>
<stop offset="1" stop-color="#3EA2FF"/>
</linearGradient>
<linearGradient id="paint8_linear" x1="111.089" y1="45.5698" x2="111.089" y2="90.4697" gradientUnits="userSpaceOnUse">
<stop stop-color="#00E2FF"/>
<stop offset="1" stop-color="#3EA2FF"/>
</linearGradient>
<linearGradient id="paint9_linear" x1="121.394" y1="54.8262" x2="121.394" y2="81.2124" gradientUnits="userSpaceOnUse">
<stop stop-color="#00E2FF"/>
<stop offset="1" stop-color="#3EA2FF"/>
</linearGradient>
<linearGradient id="paint10_linear" x1="327.344" y1="55.4648" x2="327.344" y2="80.5737" gradientUnits="userSpaceOnUse">
<stop stop-color="#00E2FF"/>
<stop offset="1" stop-color="#3EA2FF"/>
</linearGradient>
<linearGradient id="paint11_linear" x1="337.646" y1="45.5698" x2="337.646" y2="90.4697" gradientUnits="userSpaceOnUse">
<stop stop-color="#00E2FF"/>
<stop offset="1" stop-color="#3EA2FF"/>
</linearGradient>
<linearGradient id="paint12_linear" x1="347.951" y1="36.3135" x2="347.951" y2="99.7251" gradientUnits="userSpaceOnUse">
<stop stop-color="#00E2FF"/>
<stop offset="1" stop-color="#3EA2FF"/>
</linearGradient>
<linearGradient id="paint13_linear" x1="358.256" y1="45.5698" x2="358.256" y2="90.4697" gradientUnits="userSpaceOnUse">
<stop stop-color="#00E2FF"/>
<stop offset="1" stop-color="#3EA2FF"/>
</linearGradient>
<linearGradient id="paint14_linear" x1="368.561" y1="54.8262" x2="368.561" y2="81.2124" gradientUnits="userSpaceOnUse">
<stop stop-color="#00E2FF"/>
<stop offset="1" stop-color="#3EA2FF"/>
</linearGradient>
<linearGradient id="paint15_linear" x1="296.429" y1="36.3135" x2="296.429" y2="99.7251" gradientUnits="userSpaceOnUse">
<stop stop-color="#00E2FF"/>
<stop offset="1" stop-color="#3EA2FF"/>
</linearGradient>
<linearGradient id="paint16_linear" x1="306.734" y1="45.5698" x2="306.734" y2="90.4697" gradientUnits="userSpaceOnUse">
<stop stop-color="#00E2FF"/>
<stop offset="1" stop-color="#3EA2FF"/>
</linearGradient>
<linearGradient id="paint17_linear" x1="317.039" y1="50.5706" x2="317.039" y2="85.468" gradientUnits="userSpaceOnUse">
<stop stop-color="#00E2FF"/>
<stop offset="1" stop-color="#3EA2FF"/>
</linearGradient>
<linearGradient id="paint18_linear" x1="286.123" y1="45.5698" x2="286.123" y2="90.4697" gradientUnits="userSpaceOnUse">
<stop stop-color="#00E2FF"/>
<stop offset="1" stop-color="#3EA2FF"/>
</linearGradient>
<linearGradient id="paint19_linear" x1="275.818" y1="54.8262" x2="275.818" y2="81.2124" gradientUnits="userSpaceOnUse">
<stop stop-color="#00E2FF"/>
<stop offset="1" stop-color="#3EA2FF"/>
</linearGradient>
</defs>
</svg>
