<svg width="230" height="155" viewBox="0 0 230 155" fill="none" xmlns="http://www.w3.org/2000/svg">
<path d="M209.483 108.119H204.694C204.292 106.831 203.766 105.588 203.128 104.403L206.511 101.08C207.236 100.369 207.635 99.422 207.635 98.4132C207.635 97.4057 207.236 96.4584 206.511 95.7474L202.891 92.1922C201.444 90.7713 198.912 90.7676 197.462 92.1922L194.079 95.515C192.874 94.8881 191.606 94.373 190.295 93.9773V89.2751C190.295 87.1973 188.573 85.5063 186.457 85.5063H181.34C179.225 85.5063 177.503 87.1973 177.503 89.2751V93.9786C176.191 94.3743 174.925 94.8894 173.719 95.5162L170.334 92.1934C168.837 90.7236 166.402 90.7236 164.905 92.1934L161.284 95.7487C159.788 97.2185 159.788 99.6104 161.284 101.08L164.667 104.404C164.029 105.588 163.504 106.833 163.101 108.12H158.314C156.199 108.12 154.477 109.811 154.477 111.889V116.914C154.477 118.991 156.199 120.682 158.314 120.682H163.104C163.507 121.969 164.031 123.213 164.67 124.398L161.286 127.722C159.789 129.192 159.789 131.584 161.286 133.053L164.906 136.61C166.403 138.078 168.839 138.078 170.335 136.61L173.72 133.287C174.925 133.914 176.193 134.429 177.504 134.825V139.526C177.504 141.604 179.226 143.294 181.342 143.294H186.458C188.574 143.294 190.296 141.604 190.296 139.526V134.822C191.607 134.426 192.875 133.911 194.08 133.285L197.464 136.609C198.914 138.032 201.447 138.029 202.893 136.609L206.513 133.053C207.237 132.342 207.636 131.395 207.636 130.388C207.636 129.379 207.237 128.433 206.513 127.722L203.129 124.398C203.768 123.214 204.292 121.969 204.695 120.682H209.483C211.599 120.682 213.321 118.991 213.321 116.913V111.888C213.321 109.81 211.599 108.119 209.483 108.119ZM210.762 116.913C210.762 117.605 210.189 118.169 209.483 118.169H203.727C203.143 118.169 202.634 118.557 202.488 119.111C202.035 120.826 201.346 122.463 200.436 123.976C200.141 124.469 200.222 125.097 200.633 125.502L204.701 129.498C204.942 129.734 205.075 130.05 205.075 130.388C205.075 130.726 204.942 131.041 204.701 131.277L201.081 134.832C200.6 135.305 199.752 135.305 199.27 134.832L195.202 130.837C194.79 130.432 194.15 130.354 193.646 130.644C192.109 131.536 190.442 132.214 188.695 132.658C188.132 132.8 187.736 133.3 187.736 133.872V139.526C187.736 140.218 187.163 140.782 186.457 140.782H181.34C180.635 140.782 180.061 140.218 180.061 139.526V133.872C180.061 133.3 179.666 132.8 179.102 132.656C177.356 132.213 175.689 131.536 174.149 130.643C173.946 130.525 173.723 130.468 173.499 130.468C173.167 130.468 172.84 130.594 172.593 130.836L168.525 134.831C168.025 135.321 167.214 135.321 166.714 134.831L163.094 131.276C162.593 130.785 162.593 129.987 163.094 129.497L167.162 125.502C167.575 125.096 167.655 124.468 167.359 123.976C166.45 122.463 165.759 120.827 165.308 119.111C165.163 118.557 164.654 118.169 164.071 118.169H158.314C157.61 118.169 157.035 117.605 157.035 116.913V111.888C157.035 111.196 157.61 110.632 158.314 110.632H164.071C164.654 110.632 165.163 110.243 165.309 109.689C165.761 107.975 166.45 106.338 167.36 104.825C167.657 104.331 167.576 103.703 167.163 103.299L163.095 99.3039C162.596 98.8139 162.596 98.0162 163.095 97.525L166.715 93.9698C167.215 93.4786 168.026 93.4798 168.526 93.9698L172.594 97.9647C173.008 98.3705 173.646 98.4509 174.149 98.1582C175.689 97.2662 177.354 96.5878 179.102 96.1444C179.666 96.0012 180.061 95.5012 180.061 94.9283V89.2751C180.061 88.5829 180.635 88.0189 181.34 88.0189H186.457C187.163 88.0189 187.736 88.5829 187.736 89.2751V94.9283C187.736 95.5012 188.132 96.0012 188.696 96.1444C190.443 96.5878 192.11 97.2662 193.648 98.1582C194.152 98.4496 194.791 98.3717 195.203 97.9647L199.271 93.9698C199.753 93.4949 200.601 93.4962 201.082 93.9698L204.703 97.525C204.943 97.7612 205.076 98.0778 205.076 98.4144C205.076 98.7511 204.943 99.0677 204.703 99.3039L200.635 103.299C200.223 103.705 200.141 104.333 200.438 104.825C201.347 106.338 202.037 107.973 202.49 109.689C202.634 110.243 203.143 110.632 203.727 110.632H209.483C210.189 110.632 210.762 111.196 210.762 111.888V116.913Z" fill="#A8D8EA"/>
<path d="M183.898 103.094C177.551 103.094 172.385 108.167 172.385 114.4C172.385 120.634 177.551 125.707 183.898 125.707C190.247 125.707 195.411 120.634 195.411 114.4C195.411 108.167 190.247 103.094 183.898 103.094ZM183.898 123.194C178.961 123.194 174.944 119.25 174.944 114.4C174.944 109.551 178.961 105.607 183.898 105.607C188.835 105.607 192.853 109.551 192.853 114.4C192.853 119.25 188.835 123.194 183.898 123.194Z" fill="#A8D8EA"/>
<path d="M136.691 33.4294H224.735" stroke="#A8D8EA" stroke-width="10" stroke-linecap="round"/>
<path d="M173.753 38.1333C176.399 38.1333 178.543 36.0274 178.543 33.4296C178.543 30.8318 176.399 28.7258 173.753 28.7258C171.108 28.7258 168.964 30.8318 168.964 33.4296C168.964 36.0274 171.108 38.1333 173.753 38.1333Z" fill="#8AD7F3" stroke="white" stroke-width="5"/>
<path d="M136.691 51.3481H224.735" stroke="#FF6E40" stroke-width="10" stroke-linecap="round"/>
<path d="M201.123 56.0522C203.768 56.0522 205.913 53.9463 205.913 51.3485C205.913 48.7507 203.768 46.6448 201.123 46.6448C198.478 46.6448 196.333 48.7507 196.333 51.3485C196.333 53.9463 198.478 56.0522 201.123 56.0522Z" fill="#FF6E40" stroke="white" stroke-width="5"/>
<path opacity="0.8" d="M87.6039 0.615479H3.26515C2.00551 0.615479 0.984375 1.6183 0.984375 2.85534V57.7321C0.984375 58.9691 2.00551 59.9719 3.26515 59.9719H87.6039C88.8636 59.9719 89.8847 58.9691 89.8847 57.7321V2.85534C89.8847 1.6183 88.8636 0.615479 87.6039 0.615479Z" fill="#E4F4FB"/>
<path d="M21.398 31.0776C26.3735 31.0776 30.407 27.1165 30.407 22.2302C30.407 17.3439 26.3735 13.3828 21.398 13.3828C16.4224 13.3828 12.3889 17.3439 12.3889 22.2302C12.3889 27.1165 16.4224 31.0776 21.398 31.0776Z" fill="white"/>
<path d="M38.4677 18.6846H78.6967" stroke="white" stroke-width="10" stroke-linecap="round"/>
<path opacity="0.7" d="M12.6931 39.7393H78.6949" stroke="white" stroke-width="10" stroke-linecap="round"/>
<path fill-rule="evenodd" clip-rule="evenodd" d="M61.3097 85.8218L57.6937 103.026C57.1663 105.535 57.8358 108.143 59.5114 110.107C61.1585 112.038 63.7118 112.985 66.2472 112.605L66.2818 112.6C68.9652 112.198 71.4646 111.016 73.4572 109.206L88.2379 95.7774L71.2041 83.9919L61.3097 85.8218Z" fill="#CEECF7"/>
<path fill-rule="evenodd" clip-rule="evenodd" d="M118.024 105.672L120.649 120.396C121.167 123.305 121.438 126.251 121.457 129.203L121.615 153.15H98.239L97.749 147.862L97.3284 153.15H72.676L72.4136 140.249C71.4439 135.02 71.2852 129.224 71.9377 122.861C72.5902 116.497 74.4645 110.591 77.5607 105.141L118.024 105.672Z" fill="#00042E"/>
<path d="M97.7485 147.862C95.1888 143.221 93.5864 138.146 92.9415 132.635" stroke="#4C4F6D" stroke-width="2.8201" stroke-linecap="round"/>
<path opacity="0.3" d="M118.183 152.927L118.083 142.202C118.056 139.293 117.785 136.39 117.273 133.525L112.587 107.271" stroke="white" stroke-width="2.8201" stroke-linecap="round"/>
<path d="M97.0016 147.109V152.019" stroke="#4C4F6D" stroke-width="2.8201" stroke-linecap="square" stroke-linejoin="round"/>
<path fill-rule="evenodd" clip-rule="evenodd" d="M105.863 26.5935C108.236 25.1291 108.883 23.0616 107.802 20.3909C106.181 16.3848 100.255 18.1349 92.5698 18.9666C84.8847 19.7983 82.4998 21.1841 82.4998 25.0011C80.1507 28.2278 79.9532 31.2932 81.9075 34.1972C84.8389 38.5532 85.7659 44.572 88.8921 44.572L91.7497 46.7419L98.5657 44.1045L105.133 35.4153L105.863 26.5935Z" fill="#00042E"/>
<path fill-rule="evenodd" clip-rule="evenodd" d="M106.446 26.3265L107.116 38.714C107.215 40.547 106.864 42.3765 106.092 44.0482L105.772 44.7399C105.238 45.8967 104.149 46.7132 102.871 46.914V52.7095H88.8916V44.572H93.4957C95.0884 44.572 96.6317 44.0299 97.8631 43.038C99.1011 42.0406 99.9884 40.686 100.399 39.166L101.057 36.7315C99.4517 34.6397 99.2755 32.9353 100.529 31.6184C101.278 30.8307 102.565 30.6508 103.357 31.8744C103.622 32.2831 103.751 32.8573 103.745 33.597C103.743 33.7859 103.898 33.9403 104.09 33.9419C104.091 33.9419 104.092 33.9419 104.093 33.9419C104.292 33.9419 104.453 33.7835 104.453 33.5881V31.0393C104.453 29.7725 104.075 28.5335 103.365 27.4757L102.782 26.6066C102.478 26.154 102.492 25.5637 102.817 25.1255C103.149 24.6777 103.707 24.448 104.265 24.5294L104.861 24.6163C105.736 24.7439 106.399 25.4589 106.446 26.3265Z" fill="#CEECF7"/>
<path fill-rule="evenodd" clip-rule="evenodd" d="M99.6344 45.811C100.528 46.397 101.608 46.7706 102.873 46.9319V52.113L99.6344 45.811Z" fill="#AFEAFF"/>
<path fill-rule="evenodd" clip-rule="evenodd" d="M160.383 48.6592C160.99 46.7206 161.571 45.1611 162.126 43.9807C162.68 42.8003 163.125 41.4751 163.46 40.0053C164.455 39.6978 164.978 40.2668 165.03 41.7121C165.083 43.1574 163.534 45.4731 160.383 48.6592Z" fill="#AFEAFF"/>
<path fill-rule="evenodd" clip-rule="evenodd" d="M134.451 61.8639L145.606 66.3378L159.533 50.624C160.478 48.2432 161.382 46.418 162.247 45.1484C163.111 43.8788 165.176 41.6147 168.441 38.3562L173.03 35.0301C173.246 34.8738 173.55 34.9191 173.709 35.1314C173.767 35.209 173.8 35.3019 173.804 35.3982C173.825 35.98 173.622 36.548 173.235 36.9887L169.838 40.8628C171.015 40.4171 171.788 40.6511 172.157 41.5648C173.405 41.5954 174.047 42.1335 174.085 43.179C175.124 42.7019 175.67 43.2069 175.724 44.6939C175.766 45.8641 175.808 47.0343 175.851 48.2045C175.864 48.5705 175.573 48.8774 175.201 48.89C175.161 48.8913 175.122 48.8892 175.083 48.8839C174.623 48.8201 174.275 48.4405 174.259 47.9839L174.219 46.8834C172.896 49.4375 171.048 51.253 168.676 52.3299L155.82 76.4398C154.659 78.6177 152.737 80.3093 150.407 81.2038C148.072 82.1 145.491 82.1628 143.112 81.3814L129.211 76.8146L134.451 61.8639Z" fill="#CEECF7"/>
<path d="M169.859 40.8625L168.693 41.6968" stroke="#AFEAFF" stroke-width="2.2" stroke-linecap="round"/>
<path d="M172.135 41.5784L170.851 42.697" stroke="#AFEAFF" stroke-width="2.2" stroke-linecap="round"/>
<path d="M174.107 43.1748L172.844 44.1167" stroke="#AFEAFF" stroke-width="2.2" stroke-linecap="round"/>
<path d="M174.185 45.4165L174.258 47.4512" stroke="#AFEAFF" stroke-width="2.2" stroke-linecap="round"/>
<path d="M145.594 66.3372L145.596 70.1411" stroke="#AFEAFF" stroke-width="2.2" stroke-linecap="round"/>
<path fill-rule="evenodd" clip-rule="evenodd" d="M74.0415 89.7476H59.2561L63.3289 65.518C64.072 61.0971 66.8988 57.2811 70.9531 55.2257C75.1964 53.0746 79.8704 51.8686 84.6423 51.6936L103.735 50.9936C110.03 50.7627 116.293 51.9882 122.018 54.5712L141.121 63.1905L135.037 79.5241L118.881 75.3473L118.893 109.838C109.526 112.524 101.032 113.867 93.4111 113.867C85.7904 113.867 79.6476 112.524 74.9826 109.838L74.0415 89.7476Z" fill="url(#paint0_linear)"/>
<path d="M87.6565 51.323H103.79" stroke="white" stroke-width="3.52512" stroke-linecap="round"/>
<defs>
<linearGradient id="paint0_linear" x1="80.5022" y1="35.1535" x2="115.922" y2="114.203" gradientUnits="userSpaceOnUse">
<stop stop-color="#BBE5F3"/>
<stop offset="1" stop-color="white"/>
</linearGradient>
</defs>
</svg>
