<svg width="346" height="212" viewBox="0 0 346 212" fill="none" xmlns="http://www.w3.org/2000/svg">
<path fill-rule="evenodd" clip-rule="evenodd" d="M24.009 211.75H330.683C362.481 115.447 341.784 49.5942 268.593 14.1928C158.807 -38.9092 121.834 73.1289 59.8399 86.5344C-5.32254 103.82 -17.2662 145.559 24.009 211.75Z" fill="#F9FCFF"/>
<path fill-rule="evenodd" clip-rule="evenodd" d="M97.709 211.344C97.6644 205.702 91.8646 195.959 86.1597 195.213C81.4876 194.599 79.9302 196.743 79.0649 198.766C76.9158 196.134 73.6224 194.451 69.9271 194.451C65.9303 194.451 63.5579 196.496 61.4423 199.501C59.9743 198.399 54.342 195.531 50.3284 200.417C47.7328 203.58 48.771 205.823 48.771 205.823C48.771 205.823 48.5645 203.58 44.8245 203.58C36.4347 203.58 37.2441 211.739 37.2441 211.739L51.0206 211.344H97.709Z" fill="#C73D11"/>
<path fill-rule="evenodd" clip-rule="evenodd" d="M92.2505 189.44C91.9902 185.086 89.9289 181.266 86.8117 178.626C87.629 176.556 88.0846 174.308 88.0846 171.954C88.0846 166.796 85.9221 162.136 82.4361 158.8C82.87 157.441 83.0725 155.997 82.9857 154.489C82.588 147.816 76.773 142.722 69.9962 143.113C63.2121 143.505 58.0337 149.224 58.4315 155.89C58.4532 156.267 58.4965 156.644 58.5544 157.014C53.8244 160.343 50.7433 165.793 50.7433 171.946C50.7433 174.699 51.3653 177.31 52.4647 179.658C49.4704 182.141 47.561 185.861 47.561 190.016C47.561 197.5 53.7303 203.568 61.3389 203.568C63.2845 203.568 65.136 203.163 66.8139 202.451C69.7286 204.721 73.4678 205.987 77.4746 205.759C86.1391 205.268 92.7496 197.962 92.2505 189.44Z" fill="#FF6E40"/>
<path d="M78.4448 188.38C77.6058 190.201 76.803 192.044 75.9785 193.872C75.1684 195.707 74.3295 197.529 73.5339 199.371L72.1019 202.651L70.0189 171.555L70.7494 201.598C70.4529 200.644 70.1563 199.691 69.8453 198.738L68.3482 194.028L68.3916 193.957L68.3048 193.907L67.8781 192.577C66.5328 188.479 65.1804 184.382 63.7339 180.32C64.8477 184.488 66.07 188.622 67.285 192.755L67.4948 193.438L58.0636 187.889L67.7985 194.434L69.1727 198.944C69.6934 200.687 70.2431 202.423 70.8 204.159L70.8207 211.319H72.5276L72.1887 204.095L74.098 199.606C74.8936 197.763 75.6386 195.907 76.4124 194.05C77.1718 192.193 77.9602 190.35 78.7051 188.487L80.9472 182.902L78.4448 188.38Z" fill="white"/>
<path d="M304.183 204.486H81.9779C79.9308 204.486 78.3179 206.13 78.3179 208.08C78.3179 210.029 79.9928 211.674 81.9779 211.674H304.183C306.23 211.674 307.843 210.029 307.843 208.08C307.843 206.13 306.23 204.486 304.183 204.486Z" fill="#00042E"/>
<path d="M85.9565 208.048H105.807L105.807 21.6519H85.9565L85.9565 208.048Z" fill="url(#paint0_linear)"/>
<path d="M221.681 21.6836H136.818V180.608H221.681V21.6836Z" fill="url(#paint1_linear)"/>
<path opacity="0.1" d="M139.052 26.0085H136.818V178.415H139.052V26.0085Z" fill="#00042E"/>
<path opacity="0.1" d="M88.1805 26.0085H85.9473V208.08H88.1805V26.0085Z" fill="#00042E"/>
<path opacity="0.1" d="M105.799 26.0085H103.565V208.08H105.799V26.0085Z" fill="#00042E"/>
<path d="M156.852 26.0085H154.619V178.415H156.852V26.0085Z" fill="#00042E"/>
<path d="M174.657 26.0085H172.424V178.415H174.657V26.0085Z" fill="#00042E"/>
<path d="M192.458 26.0085H190.224V178.415H192.458V26.0085Z" fill="#00042E"/>
<path d="M210.265 26.0085H208.032V178.415H210.265V26.0085Z" fill="#00042E"/>
<path d="M136.814 18.0898H105.797V208.08H136.814V18.0898Z" fill="#00042E"/>
<path d="M223.604 21.6836H136.818V26.0696H223.604V21.6836Z" fill="#00042E"/>
<path d="M223.604 35.8765H136.818V40.2625H223.604V35.8765Z" fill="#00042E"/>
<path d="M223.604 50.1304H136.818V54.5164H223.604V50.1304Z" fill="#00042E"/>
<path d="M223.604 64.3843H136.818V68.77H223.604V64.3843Z" fill="#00042E"/>
<path d="M223.604 78.6382H136.818V83.0239H223.604V78.6382Z" fill="#00042E"/>
<path d="M223.604 92.8918H136.818V97.2778H223.604V92.8918Z" fill="#00042E"/>
<path d="M223.604 107.146H136.818V111.531H223.604V107.146Z" fill="#00042E"/>
<path d="M223.604 121.399H136.818V125.785H223.604V121.399Z" fill="#00042E"/>
<path d="M223.604 135.653H136.818V140.039H223.604V135.653Z" fill="#00042E"/>
<path d="M223.604 149.907H136.818V154.293H223.604V149.907Z" fill="#00042E"/>
<path d="M223.604 164.161H136.818V168.547H223.604V164.161Z" fill="#00042E"/>
<path opacity="0.2" d="M221.681 26.0085H136.818V27.9578H221.681V26.0085Z" fill="#009ED3"/>
<path opacity="0.2" d="M221.681 40.2625H136.818V42.2117H221.681V40.2625Z" fill="#009ED3"/>
<path opacity="0.2" d="M221.681 54.5164H136.818V56.4656H221.681V54.5164Z" fill="#009ED3"/>
<path opacity="0.2" d="M221.681 68.77H136.818V70.7192H221.681V68.77Z" fill="#009ED3"/>
<path opacity="0.2" d="M221.681 83.0237H136.818V84.9729H221.681V83.0237Z" fill="#009ED3"/>
<path opacity="0.2" d="M221.681 97.2776H136.818V99.2268H221.681V97.2776Z" fill="#009ED3"/>
<path opacity="0.2" d="M221.681 111.531H136.818V113.481H221.681V111.531Z" fill="#009ED3"/>
<path opacity="0.2" d="M221.681 125.785H136.818V127.735H221.681V125.785Z" fill="#009ED3"/>
<path opacity="0.2" d="M221.681 140.039H136.818V141.988H221.681V140.039Z" fill="#009ED3"/>
<path opacity="0.2" d="M221.681 154.293H136.818V156.242H221.681V154.293Z" fill="#009ED3"/>
<path opacity="0.2" d="M221.681 168.547H136.818V170.496H221.681V168.547Z" fill="#009ED3"/>
<path d="M84.0301 25.9944L105.804 25.9944V21.6089L84.0301 21.6089V25.9944Z" fill="#00042E"/>
<path d="M84.0301 40.3015H105.804V35.9155H84.0301V40.3015Z" fill="#00042E"/>
<path d="M84.0301 54.5474H105.804V50.1616H84.0301V54.5474Z" fill="#00042E"/>
<path d="M84.0301 68.7932H105.804V64.4075H84.0301V68.7932Z" fill="#00042E"/>
<path d="M84.0301 83.0393H105.804V78.6536H84.0301V83.0393Z" fill="#00042E"/>
<path d="M84.0301 97.2852H105.804V92.8994H84.0301V97.2852Z" fill="#00042E"/>
<path d="M84.0301 111.531H105.804V107.145H84.0301V111.531Z" fill="#00042E"/>
<path d="M84.0301 125.777H105.804V121.391H84.0301V125.777Z" fill="#00042E"/>
<path d="M84.0301 140.023H105.804V135.637H84.0301V140.023Z" fill="#00042E"/>
<path d="M84.0301 154.269H105.804V149.883H84.0301V154.269Z" fill="#00042E"/>
<path d="M84.0301 168.515H105.804V164.129H84.0301V168.515Z" fill="#00042E"/>
<path opacity="0.2" d="M85.9565 27.9966L105.807 27.9966V26.0474L85.9565 26.0474V27.9966Z" fill="#009ED3"/>
<path opacity="0.2" d="M85.9565 42.2424H105.807V40.2932H85.9565V42.2424Z" fill="#009ED3"/>
<path opacity="0.2" d="M85.9565 56.4883H105.807V54.5391H85.9565V56.4883Z" fill="#009ED3"/>
<path opacity="0.2" d="M85.9565 70.7341H105.807V68.7849H85.9565V70.7341Z" fill="#009ED3"/>
<path opacity="0.2" d="M85.9565 84.9802H105.807V83.031H85.9565V84.9802Z" fill="#009ED3"/>
<path opacity="0.2" d="M85.9565 99.2261H105.807V97.2769H85.9565V99.2261Z" fill="#009ED3"/>
<path opacity="0.2" d="M85.9565 113.472H105.807V111.523H85.9565V113.472Z" fill="#009ED3"/>
<path opacity="0.2" d="M85.9565 127.718H105.807V125.769H85.9565V127.718Z" fill="#009ED3"/>
<path opacity="0.2" d="M85.9565 141.964H105.807V140.014H85.9565V141.964Z" fill="#009ED3"/>
<path opacity="0.2" d="M85.9565 156.21H105.807V154.26H85.9565V156.21Z" fill="#009ED3"/>
<path opacity="0.2" d="M85.9565 170.456H105.807V168.507H85.9565V170.456Z" fill="#009ED3"/>
<path d="M223.604 178.415H136.818V208.08H223.604V178.415Z" fill="#00042E"/>
<path d="M301.144 175.552H176.704V208.08H301.144V175.552Z" fill="#00042E"/>
<path d="M303.873 169.643H176.704V175.552H303.873V169.643Z" fill="#00042E"/>
<path d="M296.307 181.948H257.287V206.192H296.307V181.948Z" fill="url(#paint2_linear)"/>
<path opacity="0.3" d="M258.28 181.948H257.287V206.192H258.28V181.948Z" fill="#00042E"/>
<path opacity="0.3" d="M263.74 181.948H262.747V206.192H263.74V181.948Z" fill="#00042E"/>
<path opacity="0.3" d="M269.138 181.948H268.145V206.192H269.138V181.948Z" fill="#00042E"/>
<path opacity="0.3" d="M274.598 181.948H273.605V206.192H274.598V181.948Z" fill="#00042E"/>
<path opacity="0.3" d="M280.054 181.948H279.062V206.192H280.054V181.948Z" fill="#00042E"/>
<path opacity="0.3" d="M285.452 181.948H284.459V206.192H285.452V181.948Z" fill="#00042E"/>
<path opacity="0.3" d="M290.909 181.948H289.916V206.192H290.909V181.948Z" fill="#00042E"/>
<path opacity="0.3" d="M296.31 181.948H295.317V206.192H296.31V181.948Z" fill="#00042E"/>
<path opacity="0.3" d="M295.341 181.982V182.956H258.245V181.982H295.341Z" fill="#00042E"/>
<path d="M259.459 182.922H258.219V206.252H259.459V182.922Z" fill="#BCE5F3"/>
<path d="M264.919 182.922H263.679V206.252H264.919V182.922Z" fill="#BCE5F3"/>
<path d="M270.376 182.922H269.135V206.252H270.376V182.922Z" fill="#BCE5F3"/>
<path d="M275.774 182.922H274.533V206.252H275.774V182.922Z" fill="#BCE5F3"/>
<path d="M281.234 182.922H279.993V206.252H281.234V182.922Z" fill="#BCE5F3"/>
<path d="M286.694 182.922H285.453V206.252H286.694V182.922Z" fill="#BCE5F3"/>
<path d="M292.091 182.922H290.851V206.252H292.091V182.922Z" fill="#BCE5F3"/>
<path d="M253.501 181.948H214.481V206.192H253.501V181.948Z" fill="url(#paint3_linear)"/>
<path opacity="0.3" d="M215.474 181.948H214.481V206.192H215.474V181.948Z" fill="#00042E"/>
<path opacity="0.3" d="M220.872 181.948H219.879V206.192H220.872V181.948Z" fill="#00042E"/>
<path opacity="0.3" d="M226.332 181.948H225.339V206.192H226.332V181.948Z" fill="#00042E"/>
<path opacity="0.3" d="M231.788 181.948H230.796V206.192H231.788V181.948Z" fill="#00042E"/>
<path opacity="0.3" d="M237.186 181.948H236.194V206.192H237.186V181.948Z" fill="#00042E"/>
<path opacity="0.3" d="M242.646 181.948H241.654V206.192H242.646V181.948Z" fill="#00042E"/>
<path opacity="0.3" d="M248.103 181.948H247.11V206.192H248.103V181.948Z" fill="#00042E"/>
<path opacity="0.3" d="M253.504 181.948H252.511V206.192H253.504V181.948Z" fill="#00042E"/>
<path opacity="0.3" d="M252.536 181.986V182.96H215.439V181.986H252.536Z" fill="#00042E"/>
<path d="M216.653 182.922H215.413V206.252H216.653V182.922Z" fill="#BCE5F3"/>
<path d="M222.11 182.922H220.869V206.252H222.11V182.922Z" fill="#BCE5F3"/>
<path d="M227.57 182.922H226.329V206.252H227.57V182.922Z" fill="#BCE5F3"/>
<path d="M232.968 182.922H231.727V206.252H232.968V182.922Z" fill="#BCE5F3"/>
<path d="M238.428 182.922H237.187V206.252H238.428V182.922Z" fill="#BCE5F3"/>
<path d="M243.884 182.922H242.643V206.252H243.884V182.922Z" fill="#BCE5F3"/>
<path d="M249.282 182.922H248.041V206.252H249.282V182.922Z" fill="#BCE5F3"/>
<path d="M210.447 181.948H181.602V208.08H210.447V181.948Z" fill="url(#paint4_linear)"/>
<path opacity="0.3" d="M210.511 181.948H209.519V208.08H210.511V181.948Z" fill="#00042E"/>
<path opacity="0.3" d="M182.594 181.948H181.602V208.08H182.594V181.948Z" fill="#00042E"/>
<path opacity="0.3" d="M186.937 181.948H185.944V208.08H186.937V181.948Z" fill="#00042E"/>
<path opacity="0.3" d="M196.553 181.948H195.56V208.08H196.553V181.948Z" fill="#00042E"/>
<path opacity="0.3" d="M206.231 181.948H205.239V208.08H206.231V181.948Z" fill="#00042E"/>
<path opacity="0.3" d="M209.519 181.949V182.924H182.596V181.949H209.519Z" fill="#00042E"/>
<path d="M183.839 182.922H182.598V208.08H183.839V182.922Z" fill="#BCE5F3"/>
<path d="M207.41 182.922H206.17V208.08H207.41V182.922Z" fill="#BCE5F3"/>
<path opacity="0.3" d="M209.519 186.276V187.251H182.596V186.276H209.519Z" fill="#00042E"/>
<path d="M210.447 180.79H181.602V181.948H210.447V180.79Z" fill="#00042E"/>
<path d="M253.501 180.79H214.482V181.948H253.501V180.79Z" fill="#00042E"/>
<path d="M296.305 180.79H257.286V181.948H296.305V180.79Z" fill="#00042E"/>
<path opacity="0.2" d="M301.144 175.552H176.704V178.354H301.144V175.552Z" fill="#00042E"/>
<path d="M269.754 161.176H261.069V169.704H269.754V161.176Z" fill="#00042E"/>
<path d="M185.389 161.176H176.704V169.704H185.389V161.176Z" fill="#00042E"/>
<path d="M261.067 161.176H185.385V169.704H261.067V161.176Z" fill="url(#paint5_linear)"/>
<path d="M287.682 161.176H269.754V169.704H287.682V161.176Z" fill="url(#paint6_linear)"/>
<path d="M186.626 161.176H185.385V169.704H186.626V161.176Z" fill="#BCE5F3"/>
<path d="M200.336 161.176H199.096V169.704H200.336V161.176Z" fill="#BCE5F3"/>
<path d="M214.047 161.176H212.806V169.704H214.047V161.176Z" fill="#BCE5F3"/>
<path d="M227.698 161.176H226.458V169.704H227.698V161.176Z" fill="#BCE5F3"/>
<path d="M241.405 161.176H240.164V169.704H241.405V161.176Z" fill="#BCE5F3"/>
<path d="M270.995 161.176H269.754V169.704H270.995V161.176Z" fill="#BCE5F3"/>
<path d="M255.115 161.176H253.875V169.704H255.115V161.176Z" fill="#BCE5F3"/>
<path d="M290.412 149.907H176.704V161.176H290.412V149.907Z" fill="#00042E"/>
<path d="M233.512 148.816V145.746H236.352V148.816H238.175V141.458H236.352V144.31H233.512V141.458H231.7V148.816H233.512ZM246.869 148.889C247.568 148.889 248.206 148.728 248.781 148.405C249.357 148.083 249.813 147.633 250.148 147.057C250.484 146.481 250.652 145.833 250.652 145.111C250.652 144.39 250.486 143.743 250.154 143.17C249.822 142.598 249.368 142.15 248.792 141.827C248.216 141.505 247.575 141.344 246.869 141.344C246.169 141.344 245.531 141.505 244.956 141.827C244.38 142.15 243.924 142.598 243.589 143.17C243.253 143.743 243.085 144.39 243.085 145.111C243.085 145.833 243.253 146.481 243.589 147.057C243.924 147.633 244.38 148.083 244.956 148.405C245.531 148.728 246.169 148.889 246.869 148.889ZM246.869 147.224C246.275 147.224 245.803 147.033 245.454 146.651C245.104 146.27 244.929 145.756 244.929 145.111C244.929 144.459 245.104 143.944 245.454 143.566C245.803 143.187 246.275 142.998 246.869 142.998C247.462 142.998 247.934 143.189 248.283 143.571C248.633 143.952 248.808 144.466 248.808 145.111C248.808 145.756 248.631 146.27 248.278 146.651C247.925 147.033 247.455 147.224 246.869 147.224ZM258.9 148.816V142.873H260.935V141.458H255.064V142.873H257.077V148.816H258.9ZM270.243 148.816V147.39H267.392V145.756H269.925V144.414H267.392V142.873H270.243V141.458H265.58V148.816H270.243ZM279.381 148.816V147.453H276.965V141.458H275.153V148.816H279.381Z" fill="#BCE5F3"/>
<path opacity="0.2" d="M287.682 161.176H176.704V164.283H287.682V161.176Z" fill="#009ED3"/>
<path d="M109.581 18.0898H105.797V208.08H109.581V18.0898Z" fill="#00042E"/>
<g opacity="0.7">
<path opacity="0.7" d="M220 21.6836H210.26V26.0696H220V21.6836Z" fill="#D6F1FF"/>
<path opacity="0.7" d="M220 35.8765H210.26V40.2625H220V35.8765Z" fill="#D6F1FF"/>
<path opacity="0.7" d="M220 50.1304H210.26V54.5164H220V50.1304Z" fill="#D6F1FF"/>
<path opacity="0.7" d="M220 64.384H210.26V68.77H220V64.384Z" fill="#D6F1FF"/>
<path opacity="0.7" d="M220 78.6382H210.26V83.0239H220V78.6382Z" fill="#D6F1FF"/>
<path opacity="0.7" d="M220 92.8918H210.26V97.2778H220V92.8918Z" fill="#D6F1FF"/>
<path opacity="0.7" d="M220 107.146H210.26V111.531H220V107.146Z" fill="#D6F1FF"/>
<path opacity="0.7" d="M220 121.399H210.26V125.785H220V121.399Z" fill="#D6F1FF"/>
<path opacity="0.7" d="M220 135.653H210.26V140.039H220V135.653Z" fill="#D6F1FF"/>
</g>
<path d="M136.815 18.0898H133.031V208.08H136.815V18.0898Z" fill="#00042E"/>
<path opacity="0.686423" d="M123.601 21.6836H119.01V208.08H123.601V21.6836Z" fill="#00042E"/>
<path d="M172.426 178.415V196.75H136.818V208.08H176.706V197.968V196.75V178.415H172.426Z" fill="#00042E"/>
<defs>
<linearGradient id="paint0_linear" x1="100.656" y1="254.906" x2="50.945" y2="245.827" gradientUnits="userSpaceOnUse">
<stop stop-color="#BBE5F3"/>
<stop offset="1" stop-color="white"/>
</linearGradient>
<linearGradient id="paint1_linear" x1="147.631" y1="21.322" x2="270.38" y2="104.366" gradientUnits="userSpaceOnUse">
<stop offset="0.115776" stop-color="#BBE5F3"/>
<stop offset="1" stop-color="white"/>
</linearGradient>
<linearGradient id="paint2_linear" x1="267.414" y1="175.853" x2="279.131" y2="208.192" gradientUnits="userSpaceOnUse">
<stop stop-color="#BBE5F3"/>
<stop offset="1" stop-color="white"/>
</linearGradient>
<linearGradient id="paint3_linear" x1="224.608" y1="175.853" x2="236.325" y2="208.192" gradientUnits="userSpaceOnUse">
<stop stop-color="#BBE5F3"/>
<stop offset="1" stop-color="white"/>
</linearGradient>
<linearGradient id="paint4_linear" x1="189.088" y1="175.379" x2="205.375" y2="206.208" gradientUnits="userSpaceOnUse">
<stop stop-color="#BBE5F3"/>
<stop offset="1" stop-color="white"/>
</linearGradient>
<linearGradient id="paint5_linear" x1="205.027" y1="159.032" x2="205.869" y2="171.846" gradientUnits="userSpaceOnUse">
<stop stop-color="#BBE5F3"/>
<stop offset="1" stop-color="white"/>
</linearGradient>
<linearGradient id="paint6_linear" x1="274.407" y1="159.032" x2="277.722" y2="170.982" gradientUnits="userSpaceOnUse">
<stop stop-color="#BBE5F3"/>
<stop offset="1" stop-color="white"/>
</linearGradient>
</defs>
</svg>
