<svg width="96" height="30" viewBox="0 0 96 30" fill="none" xmlns="http://www.w3.org/2000/svg">
<path d="M62.4258 0V3.17672" stroke="#01084C" stroke-width="2.38254"/>
<path d="M18.7428 27.3668H17.5515H18.7428ZM19.5687 28.1603L19.6163 29.3506H19.6163L19.5687 28.1603ZM45.7449 10.0327H46.9362H45.7449ZM44.8523 9.24463L44.7045 8.06256L44.7045 8.06256L44.8523 9.24463ZM10.338 9.60181L10.4369 10.789L10.338 9.60181ZM94.1899 8.73595H95.3812C95.3812 8.07803 94.8478 7.54468 94.1899 7.54468V8.73595ZM85.0568 8.73595V7.54468C84.3989 7.54468 83.8656 8.07803 83.8656 8.73595H85.0568ZM85.0568 13.8981H83.8656C83.8656 14.2429 84.015 14.5708 84.2752 14.7971L85.0568 13.8981ZM94.1899 28.5904V29.7817C94.8478 29.7817 95.3812 29.2484 95.3812 28.5904H94.1899ZM94.1899 21.8399H95.3812C95.3812 21.4951 95.2318 21.1672 94.9716 20.941L94.1899 21.8399ZM85.0568 28.5904H83.8656C83.8656 29.2484 84.3989 29.7817 85.0568 29.7817V28.5904ZM45.7449 10.4298H46.9362V10.4298L45.7449 10.4298ZM44.8523 9.64172L44.7045 8.45965L44.7045 8.45965L44.8523 9.64172ZM54.4809 10.4298H55.6722V10.4298L54.4809 10.4298ZM53.5882 9.64172L53.4405 8.45965V8.45965L53.5882 9.64172ZM0.873789 7.94177V29.3846H3.25633V7.94177H0.873789ZM27.0817 7.94177V29.3846H29.4643V7.94177H27.0817ZM35.0235 7.94177V29.3846H37.4061V7.94177H35.0235ZM17.5515 7.94182L17.5515 27.3668L19.9341 27.3668L19.9341 7.94182L17.5515 7.94182ZM19.6163 29.3506L28.7177 28.9866L28.6225 26.6059L19.5211 26.97L19.6163 29.3506ZM17.5515 27.3668C17.5515 28.4944 18.4896 29.3957 19.6163 29.3506L19.5211 26.97C19.7465 26.961 19.9341 27.1412 19.9341 27.3668H17.5515ZM46.9362 28.9875V10.0327H44.5537V28.9875H46.9362ZM44.7045 8.06256L36.067 9.14224L36.3625 11.5064L45 10.4267L44.7045 8.06256ZM46.9362 10.0327C46.9362 8.83844 45.8895 7.91443 44.7045 8.06256L45 10.4267C44.763 10.4563 44.5537 10.2715 44.5537 10.0327H46.9362ZM1.7669 11.5115L10.4369 10.789L10.2391 8.41465L1.56904 9.13716L1.7669 11.5115ZM10.0069 10.3932V29.7827H12.3894V10.3932H10.0069ZM10.4369 10.789C10.2054 10.8083 10.0069 10.6256 10.0069 10.3932H12.3894C12.3894 9.23168 11.3966 8.31819 10.2391 8.41465L10.4369 10.789ZM61.2315 7.94177V29.3846H63.614V7.94177H61.2315ZM92.9986 8.73595V15.0894H95.3812V8.73595H92.9986ZM85.0568 9.92722H94.1899V7.54468H85.0568V9.92722ZM86.2481 13.8981V8.73595H83.8656V13.8981H86.2481ZM95.3812 28.5904V21.8399H92.9986V28.5904H95.3812ZM94.9716 20.941L85.8385 12.9992L84.2752 14.7971L93.4082 22.7389L94.9716 20.941ZM83.8656 23.4283V28.5904H86.2481V23.4283H83.8656ZM85.0568 29.7817H94.1899V27.3992H85.0568V29.7817ZM46.9362 29.3846V10.4298H44.5537V29.3846H46.9362ZM44.7045 8.45965L36.067 9.53933L36.3625 11.9035L45 10.8238L44.7045 8.45965ZM46.9362 10.4298C46.9362 9.23553 45.8895 8.31152 44.7045 8.45965L45 10.8238C44.763 10.8534 44.5537 10.6686 44.5537 10.4298L46.9362 10.4298ZM55.6722 29.3846V10.4298H53.2897V29.3846H55.6722ZM53.4405 8.45965L44.803 9.53933L45.0985 11.9035L53.736 10.8238L53.4405 8.45965ZM55.6722 10.4298C55.6722 9.23552 54.6255 8.31152 53.4405 8.45965L53.736 10.8238C53.499 10.8534 53.2897 10.6686 53.2897 10.4298L55.6722 10.4298Z" fill="#01084C"/>
<path d="M70.3674 8.73596H67.9849L72.7499 18.6632L67.9849 29.3846H70.3674L73.9412 20.6487L77.9121 29.3846H80.2946L75.1325 18.6632L79.8976 8.73596H77.515L73.9412 16.6778L70.3674 8.73596Z" fill="#01084C" stroke="#01084C" stroke-width="0.79418"/>
</svg>
