<svg width="126" height="20" viewBox="0 0 126 20" fill="none" xmlns="http://www.w3.org/2000/svg">
<path d="M3.04032 2.03006C2.68208 1.24193 1.75276 0.893435 0.964629 1.25168C0.176499 1.60992 -0.171994 2.53923 0.186246 3.32736L3.04032 2.03006ZM8.3313 17.4584L6.90427 18.107C7.16012 18.6699 7.72293 19.0298 8.3412 19.0259C8.95948 19.022 9.5177 18.655 9.76642 18.0889L8.3313 17.4584ZM16.2605 3.30929C16.6088 2.5167 16.2486 1.59186 15.456 1.2436C14.6634 0.895339 13.7385 1.25554 13.3903 2.04813L16.2605 3.30929ZM0.186246 3.32736L6.90427 18.107L9.75834 16.8097L3.04032 2.03006L0.186246 3.32736ZM9.76642 18.0889L16.2605 3.30929L13.3903 2.04813L6.89619 16.8278L9.76642 18.0889Z" fill="#01084C"/>
<path d="M16.9348 11.2287C16.5861 10.4363 15.6611 10.0766 14.8687 10.4252C14.0763 10.7739 13.7165 11.6989 14.0652 12.4913L16.9348 11.2287ZM17.9633 17.4584L16.5285 18.0897C16.7789 18.6588 17.3419 19.0261 17.9637 19.0259C18.5854 19.0257 19.1483 18.6582 19.3984 18.0889L17.9633 17.4584ZM25.8925 3.30929C26.2407 2.5167 25.8805 1.59186 25.0879 1.2436C24.2954 0.895339 23.3705 1.25554 23.0223 2.04813L25.8925 3.30929ZM14.0652 12.4913L16.5285 18.0897L19.3981 16.8271L16.9348 11.2287L14.0652 12.4913ZM19.3984 18.0889L25.8925 3.30929L23.0223 2.04813L16.5282 16.8278L19.3984 18.0889Z" fill="#01084C"/>
<path d="M87.6049 17.684C87.6049 18.5497 88.3068 19.2515 89.1725 19.2515C90.0382 19.2515 90.74 18.5497 90.74 17.684H87.6049ZM101.489 17.684C101.489 18.5497 102.191 19.2515 103.056 19.2515C103.922 19.2515 104.624 18.5497 104.624 17.684H101.489ZM102.955 8.19341L101.414 8.483L102.955 8.19341ZM90.74 17.684V9.8294H87.6049V17.684H90.74ZM90.8323 8.3934C90.984 7.64146 91.3377 6.52961 92.114 5.6294C92.8387 4.78892 94.0207 4.02237 96.1144 4.02237V0.887295C93.1093 0.887295 91.0603 2.05053 89.7397 3.58208C88.4705 5.0539 87.9644 6.75635 87.7592 7.77344L90.8323 8.3934ZM96.1144 4.02237C98.2496 4.02237 99.4397 4.81963 100.163 5.68625C100.94 6.6169 101.277 7.75522 101.414 8.483L104.495 7.90383C104.31 6.91852 103.831 5.18756 102.57 3.67718C101.256 2.10278 99.1866 0.887295 96.1144 0.887295V4.02237ZM101.489 9.71673V17.684H104.624V9.71673H101.489ZM101.414 8.483C101.478 8.8256 101.489 9.20361 101.489 9.71673H104.624C104.624 9.20842 104.619 8.56507 104.495 7.90383L101.414 8.483ZM90.74 9.8294C90.74 9.23634 90.7512 8.79553 90.8323 8.3934L87.7592 7.77344C87.6086 8.5198 87.6049 9.25083 87.6049 9.8294H90.74Z" fill="#01084C"/>
<path d="M113.796 18.5101C114.624 18.7622 115.5 18.2951 115.752 17.4669C116.004 16.6387 115.537 15.7629 114.708 15.5109L113.796 18.5101ZM114.648 4.41943C115.485 4.2009 115.987 3.34467 115.769 2.50697C115.55 1.66928 114.694 1.16734 113.856 1.38587L114.648 4.41943ZM114.252 17.0105C114.708 15.5109 114.709 15.5111 114.71 15.5113C114.71 15.5114 114.711 15.5116 114.711 15.5117C114.712 15.5119 114.713 15.5122 114.713 15.5124C114.715 15.5128 114.716 15.5131 114.717 15.5134C114.718 15.5138 114.718 15.5139 114.718 15.5137C114.716 15.5132 114.71 15.5112 114.7 15.5077C114.679 15.5007 114.642 15.4876 114.59 15.4679C114.487 15.4284 114.328 15.3631 114.132 15.268C113.737 15.0762 113.211 14.7728 112.691 14.3313C111.675 13.47 110.669 12.0883 110.669 9.84458L107.534 9.84463C107.534 13.1993 109.104 15.4005 110.663 16.7226C111.43 17.3728 112.192 17.8111 112.763 18.0882C113.05 18.2276 113.293 18.3285 113.471 18.3965C113.561 18.4306 113.634 18.4567 113.689 18.4754C113.716 18.4847 113.739 18.4922 113.757 18.498C113.766 18.5009 113.774 18.5033 113.78 18.5053C113.783 18.5063 113.786 18.5072 113.789 18.508C113.79 18.5084 113.791 18.5088 113.792 18.5092C113.793 18.5093 113.794 18.5096 113.794 18.5097C113.795 18.5099 113.796 18.5101 114.252 17.0105ZM110.669 9.84458C110.669 7.60825 111.667 6.29383 112.659 5.49569C113.172 5.08338 113.69 4.80645 114.081 4.63378C114.275 4.54823 114.431 4.49057 114.533 4.45609C114.584 4.43891 114.621 4.42766 114.641 4.42173C114.651 4.41877 114.656 4.41714 114.658 4.41678C114.658 4.4166 114.658 4.41674 114.656 4.41718C114.655 4.41741 114.654 4.4177 114.653 4.41808C114.652 4.41827 114.651 4.41847 114.651 4.4187C114.65 4.41881 114.649 4.41899 114.649 4.41905C114.648 4.41923 114.648 4.41943 114.252 2.90265C113.856 1.38587 113.856 1.38607 113.855 1.38628C113.855 1.38636 113.854 1.38657 113.853 1.38672C113.852 1.38703 113.851 1.38736 113.849 1.38771C113.847 1.38842 113.844 1.38921 113.84 1.3901C113.834 1.39188 113.826 1.39403 113.817 1.39656C113.799 1.40163 113.776 1.40823 113.748 1.41648C113.692 1.43296 113.618 1.45604 113.528 1.48654C113.348 1.54741 113.103 1.63845 112.814 1.76634C112.238 2.02054 111.469 2.42941 110.694 3.05279C109.111 4.32605 107.534 6.4826 107.534 9.84463L110.669 9.84458Z" fill="#01084C"/>
<path d="M119.634 1.62709C118.806 1.37502 117.93 1.84208 117.678 2.67029C117.426 3.49851 117.893 4.37426 118.721 4.62633L119.634 1.62709ZM118.782 15.7178C117.944 15.9363 117.442 16.7925 117.661 17.6302C117.879 18.4679 118.736 18.9699 119.573 18.7513L118.782 15.7178ZM119.178 3.12671C118.721 4.62633 118.721 4.62611 118.72 4.6259C118.72 4.62584 118.719 4.62564 118.719 4.62551C118.718 4.62526 118.717 4.62503 118.716 4.62482C118.715 4.62441 118.714 4.62408 118.713 4.62385C118.712 4.62338 118.711 4.62326 118.712 4.62352C118.714 4.62403 118.72 4.62601 118.73 4.62952C118.751 4.63654 118.788 4.64964 118.84 4.66934C118.943 4.70884 119.102 4.77415 119.298 4.86924C119.693 5.06099 120.218 5.36444 120.739 5.80592C121.755 6.66719 122.761 8.04895 122.761 10.2926L125.896 10.2926C125.896 6.9379 124.326 4.73672 122.767 3.41463C122 2.76443 121.238 2.3261 120.667 2.04899C120.38 1.90964 120.137 1.80875 119.958 1.74066C119.869 1.70656 119.796 1.68051 119.741 1.66184C119.713 1.6525 119.691 1.64499 119.673 1.63923C119.664 1.63635 119.656 1.63391 119.65 1.63189C119.646 1.63088 119.643 1.62997 119.641 1.62917C119.64 1.62877 119.638 1.6284 119.637 1.62805C119.637 1.62788 119.636 1.62764 119.636 1.62755C119.635 1.62732 119.634 1.62709 119.178 3.12671ZM122.761 10.2926C122.761 12.529 121.763 13.8434 120.77 14.6415C120.258 15.0538 119.739 15.3308 119.349 15.5034C119.155 15.589 118.998 15.6466 118.896 15.6811C118.846 15.6983 118.809 15.7095 118.789 15.7155C118.779 15.7184 118.773 15.7201 118.772 15.7204C118.771 15.7206 118.772 15.7205 118.773 15.72C118.774 15.7198 118.775 15.7195 118.777 15.7191C118.778 15.7189 118.778 15.7187 118.779 15.7185C118.78 15.7184 118.78 15.7182 118.781 15.7182C118.781 15.718 118.782 15.7178 119.178 17.2346C119.573 18.7513 119.574 18.7511 119.575 18.7509C119.575 18.7509 119.576 18.7506 119.577 18.7505C119.578 18.7502 119.579 18.7498 119.58 18.7495C119.583 18.7488 119.586 18.748 119.589 18.7471C119.596 18.7453 119.604 18.7432 119.613 18.7406C119.631 18.7356 119.654 18.729 119.682 18.7207C119.737 18.7042 119.811 18.6812 119.902 18.6507C120.081 18.5898 120.327 18.4988 120.616 18.3709C121.191 18.1167 121.96 17.7078 122.735 17.0844C124.318 15.8112 125.896 13.6546 125.896 10.2926L122.761 10.2926Z" fill="#01084C"/>
<path d="M49.9844 9.84458L48.4168 9.84457L49.9844 9.84458ZM53.2596 3.78044L54.1926 5.04004L53.2596 3.78044ZM53.0466 14.1818C52.1789 13.0398 51.5519 11.6171 51.5519 9.84459L48.4168 9.84457C48.4168 12.4216 49.3469 14.4945 50.5504 16.0785L53.0466 14.1818ZM51.5519 9.84459C51.5519 7.6645 52.7059 6.14133 54.1926 5.04004L52.3265 2.52084C50.3445 3.98903 48.4169 6.34647 48.4168 9.84457L51.5519 9.84459ZM54.1926 5.04004C56.2063 3.54843 59.1561 3.91006 62.0212 5.41087L63.4759 2.63372C60.2677 0.953186 55.8222 -0.068579 52.3265 2.52084L54.1926 5.04004ZM62.0476 14.7127C60.3633 15.5548 58.5124 16.0435 56.8757 15.989C55.2723 15.9356 53.9527 15.3743 53.0466 14.1818L50.5504 16.0785C52.1525 18.1871 54.4539 19.0451 56.7714 19.1223C59.0556 19.1984 61.4257 18.5287 63.4496 17.5168L62.0476 14.7127Z" fill="#01084C"/>
<path d="M42.1467 17.682C42.1467 18.5477 42.8486 19.2495 43.7143 19.2495C44.58 19.2495 45.2818 18.5477 45.2818 17.682H42.1467ZM40.2148 18.5476C41.0637 18.3779 41.6143 17.552 41.4445 16.7031C41.2747 15.8542 40.4489 15.3037 39.6 15.4735L40.2148 18.5476ZM43.5366 7.86124L45.0499 7.45258L43.5366 7.86124ZM45.2818 17.682V9.61019H42.1467V17.682H45.2818ZM45.0499 7.45258C44.7798 6.45222 44.1686 4.82091 42.8141 3.42263C41.4166 1.97988 39.3229 0.887295 36.3245 0.887295V4.02237C38.4776 4.02237 39.7577 4.77328 40.5623 5.60389C41.4099 6.47895 41.8291 7.55085 42.0232 8.26991L45.0499 7.45258ZM36.3245 0.887295C32.4381 0.887295 30.025 2.5544 28.6678 4.73309C27.383 6.79551 27.1432 9.14908 27.1432 10.5165H30.2782C30.2782 9.42057 30.4862 7.74333 31.3288 6.39075C32.099 5.15445 33.4927 4.02237 36.3245 4.02237V0.887295ZM27.1432 10.5165C27.1432 12.1317 27.785 13.8963 28.8009 15.3381C29.8213 16.7865 31.3502 18.0915 33.2848 18.5379L33.9897 15.4832C33.0132 15.2578 32.0788 14.5474 31.3637 13.5325C30.6441 12.511 30.2782 11.3645 30.2782 10.5165H27.1432ZM33.2848 18.5379C34.9554 18.9235 36.6974 18.9152 37.9731 18.8262C38.621 18.781 39.1714 18.7132 39.563 18.6562C39.7591 18.6276 39.9165 18.6016 40.0274 18.5822C40.0829 18.5725 40.1269 18.5644 40.1584 18.5585C40.1742 18.5555 40.1869 18.5531 40.1963 18.5513C40.201 18.5504 40.2049 18.5496 40.208 18.549C40.2096 18.5487 40.2109 18.5484 40.212 18.5482C40.2126 18.5481 40.2131 18.548 40.2136 18.5479C40.2138 18.5478 40.2141 18.5478 40.2142 18.5478C40.2145 18.5477 40.2148 18.5476 39.9074 17.0106C39.6 15.4735 39.6002 15.4734 39.6005 15.4734C39.6005 15.4733 39.6008 15.4733 39.6009 15.4733C39.6012 15.4732 39.6014 15.4732 39.6015 15.4731C39.6018 15.4731 39.602 15.4731 39.6019 15.4731C39.6017 15.4731 39.6008 15.4733 39.599 15.4736C39.5956 15.4743 39.589 15.4756 39.5795 15.4774C39.5604 15.4809 39.5294 15.4867 39.4873 15.494C39.4032 15.5087 39.2754 15.5299 39.1112 15.5538C38.7819 15.6018 38.3106 15.66 37.7549 15.6987C36.6233 15.7777 35.2303 15.7694 33.9897 15.4832L33.2848 18.5379ZM45.2818 9.61019C45.2818 8.99582 45.2605 8.23232 45.0499 7.45258L42.0232 8.26991C42.1202 8.62881 42.1467 9.04514 42.1467 9.61019H45.2818Z" fill="#01084C"/>
<path d="M81.1088 17.9059C81.1088 18.7716 81.8106 19.4734 82.6763 19.4734C83.542 19.4734 84.2439 18.7716 84.2439 17.9059H81.1088ZM79.1769 18.7715C80.0258 18.6017 80.5763 17.7759 80.4065 16.927C80.2368 16.0781 79.4109 15.5275 78.562 15.6973L79.1769 18.7715ZM82.4986 8.08512L84.0119 7.67646L82.4986 8.08512ZM84.2439 17.9059V9.83407H81.1088V17.9059H84.2439ZM84.0119 7.67646C83.7418 6.6761 83.1306 5.04479 81.7762 3.6465C80.3787 2.20376 78.2849 1.11117 75.2865 1.11117V4.24625C77.4396 4.24625 78.7198 4.99716 79.5243 5.82776C80.372 6.70283 80.7911 7.77472 80.9853 8.49378L84.0119 7.67646ZM75.2865 1.11117C71.4002 1.11117 68.9871 2.77827 67.6299 4.95696C66.3451 7.01938 66.1052 9.37296 66.1052 10.7403H69.2403C69.2403 9.64445 69.4483 7.96721 70.2908 6.61463C71.061 5.37832 72.4548 4.24625 75.2865 4.24625V1.11117ZM66.1052 10.7403C66.1052 12.3556 66.7471 14.1202 67.7629 15.562C68.7833 17.0103 70.3122 18.3154 72.2468 18.7618L72.9518 15.707C71.9752 15.4817 71.0408 14.7713 70.3258 13.7564C69.6061 12.7349 69.2403 11.5883 69.2403 10.7403H66.1052ZM72.2468 18.7618C73.9174 19.1473 75.6594 19.1391 76.9351 19.0501C77.583 19.0049 78.1335 18.9371 78.525 18.8801C78.7212 18.8515 78.8785 18.8255 78.9895 18.8061C79.045 18.7964 79.089 18.7883 79.1205 18.7824C79.1362 18.7794 79.1489 18.777 79.1583 18.7752C79.1631 18.7743 79.167 18.7735 79.1701 18.7729C79.1716 18.7726 79.1729 18.7723 79.1741 18.7721C79.1746 18.772 79.1752 18.7719 79.1756 18.7718C79.1759 18.7717 79.1762 18.7717 79.1763 18.7716C79.1766 18.7716 79.1769 18.7715 78.8694 17.2344C78.562 15.6973 78.5623 15.6973 78.5625 15.6972C78.5626 15.6972 78.5628 15.6972 78.5629 15.6971C78.5632 15.6971 78.5634 15.6971 78.5636 15.697C78.5639 15.697 78.564 15.6969 78.5639 15.6969C78.5638 15.697 78.5628 15.6972 78.5611 15.6975C78.5576 15.6982 78.5511 15.6994 78.5415 15.7012C78.5224 15.7048 78.4914 15.7105 78.4494 15.7179C78.3653 15.7326 78.2374 15.7538 78.0732 15.7777C77.7439 15.8257 77.2727 15.8838 76.7169 15.9226C75.5854 16.0016 74.1923 15.9933 72.9518 15.707L72.2468 18.7618ZM84.2439 9.83407C84.2439 9.2197 84.2225 8.4562 84.0119 7.67646L80.9853 8.49378C81.0822 8.85269 81.1088 9.26901 81.1088 9.83407H84.2439Z" fill="#01084C"/>
<ellipse cx="62.946" cy="4.12614" rx="1.56754" ry="1.58232" transform="rotate(14.7232 62.946 4.12614)" fill="#01084C"/>
<ellipse cx="62.7132" cy="16.1293" rx="1.56754" ry="1.57857" transform="rotate(-30 62.7132 16.1293)" fill="#01084C"/>
</svg>
