<svg width="44" height="97" viewBox="0 0 44 97" fill="none" xmlns="http://www.w3.org/2000/svg">
<path d="M11.8852 23.043L7.23438 26.0224L8.68865 17.7928L15.7831 17.9347L25.242 25.3771L30.6684 9.96299L26.3828 3.46261L29.5064 2.60345L31.9947 0.270397L34.7817 2.08633L38.3784 1.40583L37.9125 4.95307L37.4751 7.07968L41.0259 9.15736L36.5301 11.7481L36.2979 12.8799L39.8469 20.2438L43.5629 33.1934L37.9125 39.5161L33.673 42.393H32.4122L33.2015 47.7924L37.388 49.9814H25.9194L26.8538 48.6072L25.2244 48.2308L27.5493 46.203L26.5428 42.3706L25.242 42.393L12.2025 31.9644L13.2696 31.3963L15.0399 31.3973L11.9797 29.3793L13.0453 28.8117H15.3983L11.8852 23.043Z" fill="#01084C"/>
<path d="M0.265625 49.1431V34.3182H2.47303V47.2063H5.28319V49.1431H0.265625Z" fill="#01084C"/>
<path d="M9.60858 42.9796C9.0466 43.3137 8.6513 43.5622 8.6513 44.1879V47.1859C8.69233 47.4352 8.85876 47.6026 9.13045 47.5817C9.4001 47.5404 9.60858 47.3725 9.60858 47.1026V42.9796ZM11.608 49.1433H9.73346C9.60858 48.894 9.60858 48.6025 9.60858 48.33H9.56653C9.15058 49.0194 8.83786 49.2891 8.00445 49.2891C7.13153 49.2891 6.65161 48.8114 6.65161 47.9143V43.917C6.65161 41.5013 9.5469 42.7719 9.5469 39.7323C9.5469 39.3773 9.62948 38.5446 9.15058 38.5446C8.56821 38.5446 8.6722 39.504 8.6722 39.9189V41.4812H6.65161V39.0865C6.65161 37.8578 7.60966 37.0888 9.13045 37.0888C10.6505 37.0888 11.608 37.8578 11.608 39.0865V49.1433Z" fill="#01084C"/>
<path d="M0.261719 68.5044V53.6793H5.2171V55.6153H2.46912V59.4253H5.11286V61.3628H2.46912V68.5044H0.261719Z" fill="#01084C"/>
<path d="M9.02609 59.8201H9.44356C10.2135 59.8201 10.3804 59.4054 10.3804 58.8643V56.1783C10.3804 55.6153 10.0466 55.4496 9.54754 55.4496H9.02609V59.8201ZM6.8197 68.5044V53.6793H9.73411C11.5042 53.6793 12.5866 54.3035 12.5866 56.2195V58.3227C12.5866 59.4253 12.2739 60.3418 10.4006 60.5508V60.592C11.3793 60.7167 12.4202 61.0495 12.5032 62.4031C12.6289 64.3812 12.5032 66.4624 12.8575 68.5044H10.6511C10.276 66.7981 10.3804 64.5695 10.3804 62.8402C10.3804 61.9451 10.0466 61.5916 9.02609 61.6339V68.5044H6.8197Z" fill="#01084C"/>
<path d="M14.6484 68.5049V53.6798H19.563V55.6157H16.8566V59.4258H19.458V61.3633H16.8566V66.5679H19.6036V68.5049H14.6484Z" fill="#01084C"/>
<path d="M24.58 53.6793L25.2049 57.9475C25.705 60.6968 26.0582 63.5485 26.2456 66.339H26.3294V65.5472C26.3503 64.1105 26.2665 62.6526 26.2665 61.2165V53.6793H28.0781V68.5044H24.8089L23.7688 61.0918C23.4158 59.2591 23.2899 57.5951 23.1025 55.8439H23.0195C23.0195 56.4895 23.0605 57.1345 23.0811 57.7612V68.5044H21.2693V53.6793H24.58Z" fill="#01084C"/>
<path d="M33.7009 59.0931V56.074C33.7009 55.3249 33.4722 55.1572 33.0359 55.1572C32.5769 55.1572 32.3478 55.3249 32.3478 56.074V66.1099C32.3478 66.8602 32.5769 67.0258 33.0359 67.0258C33.4722 67.0258 33.7009 66.8602 33.7009 66.1099V62.9036H35.908V66.2977C35.908 68.2339 34.3887 68.7959 33.0137 68.7959C31.6609 68.7959 30.1406 68.2339 30.1406 66.2977V55.8874C30.1406 53.9509 31.6609 53.3882 33.0137 53.3882C34.3887 53.3882 35.908 53.9509 35.908 55.8874V59.0931H33.7009Z" fill="#01084C"/>
<path d="M37.9723 68.5049V53.6798H40.1802V59.3641H41.4074V53.6798H43.615V68.5049H41.4074V61.2998H40.1802V68.5049H37.9723Z" fill="#01084C"/>
<path d="M9.4989 73.5181V76.4929H6.55646V96.2915H3.16545V76.4929H0.191406V73.5181H9.4989Z" fill="#01084C"/>
<path d="M12.3477 96.2915V73.5181H19.8955V76.4929H15.7371V82.347H19.7357V85.3202H15.7371V93.3172H19.96V96.2915H12.3477Z" fill="#01084C"/>
<path d="M28.0861 81.8351V77.1973C28.0861 76.0468 27.7339 75.7904 27.0626 75.7904C26.3586 75.7904 26.0072 76.0468 26.0072 77.1973V92.6142C26.0072 93.7652 26.3586 94.0205 27.0626 94.0205C27.7339 94.0205 28.0861 93.7652 28.0861 92.6142V87.6881H31.4766V92.903C31.4766 95.8762 29.1423 96.7402 27.0302 96.7402C24.9528 96.7402 22.6172 95.8762 22.6172 92.903V76.909C22.6172 73.9357 24.9528 73.071 27.0302 73.071C29.1423 73.071 31.4766 73.9357 31.4766 76.909V81.8351H28.0861Z" fill="#01084C"/>
<path d="M34.8313 96.2915V73.5181H38.2231V82.2499H40.1104V73.5181H43.5003V96.2915H40.1104V85.2252H38.2231V96.2915H34.8313Z" fill="#01084C"/>
<path d="M29.1758 42.3926L30.9655 47.5486L33.3105 48.4707L32.4213 42.3926H29.1758Z" fill="#01084C"/>
<path d="M30.7945 9.60592L25.2422 25.3768V27.3057L26.3498 25.7507L31.4571 9.44178L30.7945 9.60592Z" fill="#01084C"/>
<path d="M29.5111 2.60336L26.3877 3.46278L31.0974 10.6064L33.6777 7.43615L32.0208 0.27057L29.5111 2.60336Z" fill="#01084C"/>
<path d="M11.9883 29.3789L23.3862 28.884L13.0539 28.8113L11.9883 29.3789Z" fill="#01084C"/>
<path d="M11.9883 29.3794L25.2661 38.0981L25.0783 28.8118L11.9883 29.3794Z" fill="#01084C"/>
<path d="M32.0076 7.72532L26.3625 25.7503L39.4958 30.5815L33.6859 7.43554L32.0076 7.72532Z" fill="#01084C"/>
<path d="M23.5969 31.7679L25.2369 31.8926V25.3769L15.7783 17.9345L23.5969 31.7679Z" fill="#01084C"/>
<path d="M17.3735 32.0513L23.6044 31.7679L15.7859 17.9344L8.69141 17.7925L17.3735 32.0513Z" fill="#01084C"/>
<path d="M7.24609 26.0225L11.8969 23.0428L8.70062 17.7926L7.24609 26.0225Z" fill="#01084C"/>
<path d="M25.2157 48.231L32.403 49.9814H37.379L31.4095 46.8598L27.5403 46.2033L25.2157 48.231Z" fill="#01084C"/>
<path d="M33.6744 7.43555L37.9139 4.95263L38.3795 1.40539L34.7831 2.08589L31.9961 0.269961L33.6744 7.43555Z" fill="#01084C"/>
<path d="M33.6797 7.43631L36.0905 13.9326L37.9191 4.95339L33.6797 7.43631Z" fill="#01084C"/>
<path d="M37.0049 9.31592L40.9933 9.15713L37.4789 7.07946L37.0049 9.31592Z" fill="#01084C"/>
<path d="M37.0563 9.15683L36.5312 11.7476L41.0271 9.15683H37.0563Z" fill="#01084C"/>
<path d="M12.2039 31.9642L25.2589 42.3931L25.261 31.3961L12.2039 31.9642Z" fill="#01084C"/>
<path d="M39.7083 31.7677L37.9191 39.5156L43.5693 33.1929L39.8536 20.2436L33.6797 7.43576L39.7083 31.7677Z" fill="#01084C"/>
<path d="M21.6406 28.2922L23.3954 31.396H25.2929L25.2276 26.3124L21.6406 28.2922Z" fill="#01084C"/>
<path d="M25.2422 26.3125V42.3931H33.6732L37.9127 39.5159L26.3498 25.7508L25.2422 26.3125Z" fill="#01084C"/>
<path d="M37.9254 39.5156L42.7248 31.7677L26.3625 25.7505L37.9254 39.5156Z" fill="#01084C"/>
<path d="M13.2712 31.3963L12.2039 31.9644L25.2434 31.3963H13.2712Z" fill="#01084C"/>
<path d="M35.1722 8.22204C35.1722 8.60204 35.4778 8.90967 35.8553 8.90967C36.2307 8.90967 36.5335 8.60204 36.5335 8.22204C36.5335 7.84228 36.2307 7.53441 35.8553 7.53441C35.4778 7.53441 35.1722 7.84228 35.1722 8.22204Z" fill="#01084C"/>
<path d="M26.543 42.3706L27.8183 47.205L29.1666 48.0909L32.412 49.9863L30.0076 42.3706H26.543Z" fill="#01084C"/>
<path d="M25.9258 49.981H32.6349L27.8245 47.2044L25.9258 49.981Z" fill="#01084C"/>
<g opacity="0.800003">
<g opacity="0.800003">
<g opacity="0.800003">
<g opacity="0.800003">
<g opacity="0.800003">
<path opacity="0.800003" d="M32.4359 42.3932H30.0312L30.5318 43.9727L32.4359 42.3932Z" fill="#01084C"/>
</g>
</g>
</g>
</g>
</g>
</svg>
