<svg width="31" height="32" viewBox="0 0 31 32" fill="none" xmlns="http://www.w3.org/2000/svg">
<g clip-path="url(#clip0)">
<path d="M28.1956 0.814453H2.80396C1.25526 0.814453 -0.000244141 2.06995 -0.000244141 3.61865V29.0102C-0.000244141 30.559 1.25526 31.8145 2.80396 31.8145H28.1955C29.7443 31.8145 30.9998 30.559 30.9998 29.0102V3.61865C30.9998 2.06995 29.7443 0.814453 28.1956 0.814453ZM9.59247 27.5819C9.59247 28.0326 9.22713 28.398 8.77641 28.398H5.30262C4.85191 28.398 4.48656 28.0326 4.48656 27.5819V13.0199C4.48656 12.5692 4.85191 12.2039 5.30262 12.2039H8.77641C9.22713 12.2039 9.59247 12.5692 9.59247 13.0199V27.5819ZM7.03952 10.8312C5.21693 10.8312 3.73939 9.35365 3.73939 7.53107C3.73939 5.70848 5.21693 4.23095 7.03952 4.23095C8.8621 4.23095 10.3396 5.70848 10.3396 7.53107C10.3396 9.35365 8.86219 10.8312 7.03952 10.8312ZM27.7464 27.6476C27.7464 28.062 27.4104 28.398 26.996 28.398H23.2684C22.8541 28.398 22.5181 28.062 22.5181 27.6476V20.8172C22.5181 19.7983 22.817 16.3522 19.8553 16.3522C17.5579 16.3522 17.092 18.7109 16.9984 19.7695V27.6476C16.9984 28.062 16.6625 28.398 16.2481 28.398H12.6428C12.2284 28.398 11.8925 28.062 11.8925 27.6476V12.9542C11.8925 12.5398 12.2284 12.2039 12.6428 12.2039H16.2481C16.6624 12.2039 16.9984 12.5398 16.9984 12.9542V14.2246C17.8502 12.9462 19.1162 11.9595 21.8117 11.9595C27.7805 11.9595 27.7464 17.536 27.7464 20.5999V27.6476Z" fill="white"/>
</g>
<defs>
<clipPath id="clip0">
<rect width="31" height="31" fill="white" transform="translate(0 0.814453)"/>
</clipPath>
</defs>
</svg>
