<svg width="39" height="48" viewBox="0 0 39 48" fill="none" xmlns="http://www.w3.org/2000/svg">
<path d="M25.8506 24.5549L38.9984 34.5717V14.115L25.8506 24.5549Z" fill="white"/>
<path d="M0.00427246 14.115V34.5717L13.1521 24.5549L0.00427246 14.115Z" fill="white"/>
<path d="M36.5633 8.15796H2.43835C1.22204 8.15796 0.256787 9.25071 0.0739746 10.6578L19.5008 26.0826L38.9277 10.6578C38.7449 9.25071 37.7797 8.15796 36.5633 8.15796Z" fill="white"/>
<path d="M23.6189 26.3296L20.1698 29.0673C19.9651 29.2289 19.7335 29.3082 19.4995 29.3082C19.2655 29.3082 19.0339 29.2289 18.8292 29.0673L15.3801 26.3267L0.0775146 37.9915C0.265202 39.3868 1.22558 40.4707 2.43701 40.4707H36.562C37.7734 40.4707 38.7338 39.3868 38.9215 37.9915L23.6189 26.3296Z" fill="white"/>
</svg>
