<svg width="363" height="223" viewBox="0 0 363 223" fill="none" xmlns="http://www.w3.org/2000/svg">
<path fill-rule="evenodd" clip-rule="evenodd" d="M336.873 222.137H15.1542C-18.2031 121.11 3.50884 52.027 80.2899 14.889C195.462 -40.8179 234.249 76.7162 299.284 90.7792C367.643 108.913 380.173 152.699 336.873 222.137Z" fill="#F9FCFF"/>
<path d="M268.868 149.242H65.7908V222.01H268.868V149.242Z" fill="#BCE5F3"/>
<path d="M180.762 177.127H84.0042V222.01H180.762V177.127Z" fill="#B0D6E3"/>
<path d="M180.685 177.127H84.0792V181.078H180.685V177.127Z" fill="#00042E"/>
<path d="M171.503 36.8108L139.251 54.9281L65.7908 90.0443V109.131H78.9195V149.242H302.79V114.797L171.503 36.8108Z" fill="#BCE5F3"/>
<path d="M120.733 111.144H82.0302V149.168H120.733V111.144Z" fill="#D6F1FF"/>
<path d="M120.202 111.666V148.646H82.5614V111.666H120.202ZM120.733 111.144H82.0302V149.168H120.733V111.144Z" fill="#2E5477"/>
<path d="M237.372 110.846H195.254V162.066H237.372V110.846Z" fill="#D6F1FF"/>
<path d="M236.689 111.517V161.47H195.862V111.517H236.689ZM237.372 110.846H195.254V162.066H237.372V110.846Z" fill="#2E5477"/>
<path d="M234.034 171.311H198.367V212.317H234.034V171.311Z" fill="#D6F1FF"/>
<path d="M233.503 171.908V211.795H198.898V171.833H233.503V171.908ZM234.034 171.311H198.367V212.317H234.034V171.311Z" fill="#2E5477"/>
<path opacity="0.2" d="M119.898 130.23L82.8643 136.195V127.994L119.898 122.029V130.23Z" fill="#97CCEA"/>
<path opacity="0.2" d="M233.276 193.156L198.823 199.121V190.92L233.276 185.03V193.156Z" fill="#97CCEA"/>
<path opacity="0.2" d="M236.464 135.375L195.636 144.545V136.344L236.464 127.174V135.375Z" fill="#97CCEA"/>
<path opacity="0.3" d="M119.975 111.889H82.7141V115.617H119.975V111.889Z" fill="#548CAA"/>
<path opacity="0.3" d="M236.464 111.74H196.167V115.468H236.464V111.74Z" fill="#548CAA"/>
<path d="M97.8921 111.666H93.7183V148.87H97.8921V111.666Z" fill="#2E5477"/>
<path d="M180.61 111.144H120.734V149.168H180.61V111.144Z" fill="#B0D6E3"/>
<path opacity="0.3" d="M139.554 129.038H120.734V131.274H139.554V129.038Z" fill="#2E5477"/>
<path opacity="0.3" d="M157.693 138.581H138.872V140.817H157.693V138.581Z" fill="#2E5477"/>
<path opacity="0.3" d="M180.61 138.581H161.79V140.817H180.61V138.581Z" fill="#2E5477"/>
<path opacity="0.3" d="M144.258 124.564H125.438V126.801H144.258V124.564Z" fill="white"/>
<path opacity="0.3" d="M175.069 136.344H156.249V138.581H175.069V136.344Z" fill="white"/>
<path opacity="0.3" d="M155.869 126.801H137.048V129.038H155.869V126.801Z" fill="#2E5477"/>
<path opacity="0.3" d="M139.554 196.511H120.734V198.748H139.554V196.511Z" fill="#2E5477"/>
<path opacity="0.3" d="M118.152 191.889H99.3315V194.125H118.152V191.889Z" fill="#2E5477"/>
<path opacity="0.3" d="M120.429 195.468H101.609V197.704H120.429V195.468Z" fill="#2E5477"/>
<path opacity="0.3" d="M157.693 206.055H138.872V208.291H157.693V206.055Z" fill="#2E5477"/>
<path opacity="0.3" d="M180.61 206.055H161.79V208.291H180.61V206.055Z" fill="#2E5477"/>
<path opacity="0.3" d="M118.152 212.989H99.3315V215.225H118.152V212.989Z" fill="#2E5477"/>
<path opacity="0.3" d="M144.258 192.038H125.438V194.275H144.258V192.038Z" fill="white"/>
<path opacity="0.3" d="M119.595 208.515H100.775V210.752H119.595V208.515Z" fill="white"/>
<path opacity="0.3" d="M175.069 203.818H156.249V206.055H175.069V203.818Z" fill="white"/>
<path opacity="0.3" d="M155.869 194.275H137.048V196.511H155.869V194.275Z" fill="#2E5477"/>
<path opacity="0.3" d="M127.791 189.652H108.971V191.889H127.791V189.652Z" fill="#2E5477"/>
<path opacity="0.3" d="M102.9 189.652H84.0792V191.889H102.9V189.652Z" fill="#2E5477"/>
<path opacity="0.3" d="M128.928 210.752H110.108V212.989H128.928V210.752Z" fill="#2E5477"/>
<path opacity="0.3" d="M102.975 202.103H84.1543V204.34H102.975V202.103Z" fill="#2E5477"/>
<path opacity="0.3" d="M102.9 197.704H84.0792V199.941H102.9V197.704Z" fill="white"/>
<path opacity="0.3" d="M113.751 199.866H94.9304V202.103H113.751V199.866Z" fill="#2E5477"/>
<path d="M268.792 171.386H233.959V222.01H268.792V171.386Z" fill="#B0D6E3"/>
<path d="M268.792 171.386H233.959V175.859H268.792V171.386Z" fill="#00042E"/>
<path opacity="0.3" d="M251.187 193.305H243.143V195.841H251.187V193.305Z" fill="#2E5477"/>
<path opacity="0.3" d="M242.004 188.012H233.959V190.547H242.004V188.012Z" fill="#2E5477"/>
<path opacity="0.3" d="M259.002 203.967H250.958V206.502H259.002V203.967Z" fill="#2E5477"/>
<path opacity="0.3" d="M268.791 203.967H260.747V206.502H268.791V203.967Z" fill="#2E5477"/>
<path opacity="0.3" d="M242.004 211.87H233.959V214.405H242.004V211.87Z" fill="#2E5477"/>
<path opacity="0.3" d="M253.236 188.236H245.192V190.771H253.236V188.236Z" fill="white"/>
<path opacity="0.3" d="M242.61 206.8H234.565V209.335H242.61V206.8Z" fill="white"/>
<path opacity="0.3" d="M266.364 201.507H258.32V204.042H266.364V201.507Z" fill="white"/>
<path opacity="0.3" d="M258.168 190.771H250.124V193.305H258.168V190.771Z" fill="#2E5477"/>
<path opacity="0.3" d="M246.177 185.477H238.133V188.012H246.177V185.477Z" fill="#2E5477"/>
<path opacity="0.3" d="M246.633 209.335H238.588V211.87H246.633V209.335Z" fill="#2E5477"/>
<path d="M180.61 111.144H120.734V115.542H180.61V111.144Z" fill="#2E5477"/>
<path d="M84.0787 177.127H82.3333V222.01H84.0787V177.127Z" fill="#00042E"/>
<path d="M298.465 149.242H294.216V222.01H298.465V149.242Z" fill="#2E5477"/>
<path d="M284.122 149.242H279.872V222.01H284.122V149.242Z" fill="#2E5477"/>
<path d="M218.325 171.535H214.075V211.945H218.325V171.535Z" fill="#2E5477"/>
<path d="M218.325 111.144H214.075V163.855H218.325V111.144Z" fill="#2E5477"/>
<path d="M193.626 165.328V161.153H238.704V165.328H193.626Z" fill="#2E5477"/>
<path d="M233.958 211.945H198.367V222.01H233.958V211.945Z" fill="#2E5477"/>
<path d="M82.3333 210.603H63.5889V221.936H82.3333V210.603Z" fill="#009ED3"/>
<path d="M180.762 210.677H198.444V222.01H180.762V210.677Z" fill="#009ED3"/>
<path d="M299.299 210.677H268.868V222.01H299.299V210.677Z" fill="#009ED3"/>
<path opacity="0.19" d="M65.7908 90.0443V98.3201L170.896 46.4286L302.942 124.639V114.797L171.503 36.8108L65.7908 90.0443Z" fill="#2E5477"/>
<path d="M180.61 109.056H65.7908V111.144H180.61V109.056Z" fill="#009ED3"/>
<path d="M119.872 62.1721V109.366H120.707V62.1721H119.872Z" fill="#00042E"/>
<path d="M163.733 177.098V150.109H164.568V177.098H163.733Z" fill="#00042E"/>
<path d="M251.503 171.303V86.4573H252.337V171.303H251.503Z" fill="#00042E"/>
<path d="M180.61 149.242H65.7908V150.137H180.61V149.242Z" fill="#5B8CAC"/>
<path d="M309.468 120.389L171.427 39.4198L52.2823 99.3638L50.1575 95.3377L171.579 34.2754L311.821 116.512L309.468 120.389Z" fill="#2E5477"/>
<path d="M169.365 60.6384C182.019 60.6384 192.277 50.5641 192.277 38.1368C192.277 25.7096 182.019 15.6353 169.365 15.6353C156.71 15.6353 146.452 25.7096 146.452 38.1368C146.452 50.5641 156.71 60.6384 169.365 60.6384Z" fill="white" stroke="#DEEFFC" stroke-width="10"/>
<path d="M167.469 43.9831C166.438 44.9908 166.438 46.6255 167.469 47.6333C168.5 48.6408 170.173 48.6408 171.205 47.6333C172.236 46.6255 172.236 44.9908 171.205 43.9831C170.173 42.9754 168.5 42.9754 167.469 43.9831Z" fill="#FF6E40"/>
<path d="M169.335 37.8452C167.158 37.8452 165.111 38.6735 163.573 40.1779C162.969 40.768 162.969 41.7245 163.573 42.3142C164.177 42.9044 165.155 42.9044 165.759 42.3142C166.713 41.3807 167.984 40.8669 169.335 40.8669C170.686 40.8669 171.956 41.3807 172.91 42.3142C173.212 42.6093 173.609 42.7568 174.003 42.7568C174.4 42.7568 174.794 42.6093 175.096 42.3142C175.7 41.7245 175.7 40.768 175.096 40.1779C173.558 38.6735 171.511 37.8452 169.335 37.8452Z" fill="#FF6E40"/>
<path d="M169.335 32.8704C165.798 32.8704 162.473 34.2163 159.972 36.66C159.369 37.2501 159.369 38.2067 159.972 38.7964C160.577 39.3865 161.556 39.3865 162.159 38.7964C164.075 36.9232 166.624 35.8918 169.335 35.8918C172.044 35.8918 174.593 36.9232 176.509 38.7964C176.811 39.0915 177.208 39.239 177.602 39.239C177.999 39.239 178.394 39.0915 178.696 38.7964C179.299 38.2067 179.299 37.2501 178.696 36.66C176.195 34.2163 172.871 32.8704 169.335 32.8704Z" fill="#FF6E40"/>
<path d="M182.306 33.1347C178.842 29.7488 174.236 27.8845 169.336 27.8845C164.436 27.8845 159.83 29.7488 156.366 33.1347C155.762 33.7249 155.762 34.6815 156.366 35.2711C156.668 35.5662 157.064 35.7136 157.46 35.7136C157.855 35.7136 158.252 35.5662 158.552 35.2711C161.432 32.456 165.263 30.906 169.336 30.906C173.409 30.906 177.238 32.456 180.118 35.2711C180.722 35.8613 181.7 35.8607 182.305 35.2717C182.908 34.6815 182.908 33.7249 182.306 33.1347Z" fill="#FF6E40"/>
<path d="M61.7164 118.423C74.3706 118.423 84.6289 108.349 84.6289 95.9216C84.6289 83.4944 74.3706 73.4202 61.7164 73.4202C49.0622 73.4202 38.804 83.4944 38.804 95.9216C38.804 108.349 49.0622 118.423 61.7164 118.423Z" fill="white" stroke="#DEEFFC" stroke-width="10"/>
<path d="M295.452 118.423C308.106 118.423 318.364 108.349 318.364 95.9216C318.364 83.4944 308.106 73.4202 295.452 73.4202C282.797 73.4202 272.539 83.4944 272.539 95.9216C272.539 108.349 282.797 118.423 295.452 118.423Z" fill="white" stroke="#DEEFFC" stroke-width="10"/>
<path d="M301.862 93.0592H301.162V90.3298C301.162 87.3192 298.648 84.8708 295.558 84.8708C292.467 84.8708 289.954 87.3192 289.954 90.3298V93.0592H289.253C288.095 93.0592 287.152 93.9772 287.152 95.1063V104.659C287.152 105.789 288.095 106.707 289.253 106.707H301.862C303.02 106.707 303.964 105.789 303.964 104.659V95.1063C303.964 93.9772 303.02 93.0592 301.862 93.0592ZM291.822 90.3298C291.822 88.3227 293.497 86.6905 295.558 86.6905C297.618 86.6905 299.294 88.3227 299.294 90.3298V93.0592H291.822V90.3298ZM296.492 100.085V102.157C296.492 102.66 296.074 103.067 295.558 103.067C295.041 103.067 294.624 102.66 294.624 102.157V100.085C294.068 99.7692 293.69 99.1887 293.69 98.5182C293.69 97.5146 294.528 96.6985 295.558 96.6985C296.588 96.6985 297.426 97.5146 297.426 98.5182C297.426 99.1887 297.047 99.7692 296.492 100.085Z" fill="#FF6E40"/>
<path d="M146.316 205.5C158.971 205.5 169.229 195.426 169.229 182.998C169.229 170.571 158.971 160.497 146.316 160.497C133.662 160.497 123.404 170.571 123.404 182.998C123.404 195.426 133.662 205.5 146.316 205.5Z" fill="white" stroke="#DEEFFC" stroke-width="10"/>
<path fill-rule="evenodd" clip-rule="evenodd" d="M146.288 191.653C148.664 191.653 150.59 189.762 150.59 187.429C150.59 185.873 149.156 181.512 146.288 174.344C143.421 181.512 141.987 185.873 141.987 187.429C141.987 189.762 143.913 191.653 146.288 191.653Z" fill="#FF6E40"/>
<path fill-rule="evenodd" clip-rule="evenodd" d="M156.319 187.392C157.817 187.392 159.032 186.199 159.032 184.728C159.032 183.747 158.128 180.996 156.319 176.474C154.51 180.996 153.606 183.747 153.606 184.728C153.606 186.199 154.82 187.392 156.319 187.392Z" fill="#FF6E40"/>
<path fill-rule="evenodd" clip-rule="evenodd" d="M136.254 187.392C137.752 187.392 138.967 186.199 138.967 184.728C138.967 183.747 138.063 180.996 136.254 176.474C134.445 180.996 133.541 183.747 133.541 184.728C133.541 186.199 134.755 187.392 136.254 187.392Z" fill="#FF6E40"/>
<path d="M295.452 205.5C308.106 205.5 318.364 195.426 318.364 182.998C318.364 170.571 308.106 160.497 295.452 160.497C282.797 160.497 272.539 170.571 272.539 182.998C272.539 195.426 282.797 205.5 295.452 205.5Z" fill="white" stroke="#DEEFFC" stroke-width="10"/>
<path d="M306.676 180.421L304.905 180.043C304.751 179.58 304.56 179.128 304.335 178.693L305.316 177.195C305.491 176.927 305.452 176.576 305.223 176.351L302.464 173.641C302.235 173.416 301.877 173.378 301.604 173.55L300.079 174.513C299.636 174.292 299.176 174.104 298.704 173.953L298.319 172.213C298.25 171.903 297.97 171.681 297.646 171.681H293.743C293.419 171.681 293.139 171.903 293.07 172.213L292.685 173.953C292.214 174.104 291.754 174.292 291.311 174.513L289.785 173.55C289.513 173.378 289.155 173.416 288.926 173.641L286.166 176.351C285.937 176.576 285.899 176.927 286.074 177.195L287.054 178.693C286.829 179.128 286.638 179.58 286.484 180.043L284.713 180.421C284.396 180.489 284.171 180.764 284.171 181.082V184.915C284.171 185.233 284.396 185.508 284.713 185.576L286.484 185.954C286.638 186.417 286.829 186.869 287.054 187.304L286.074 188.802C285.899 189.07 285.937 189.421 286.166 189.646L288.926 192.356C289.155 192.581 289.513 192.619 289.785 192.447L291.311 191.484C291.754 191.705 292.214 191.892 292.685 192.043L293.07 193.783C293.139 194.094 293.419 194.316 293.743 194.316H297.646C297.97 194.316 298.25 194.094 298.319 193.783L298.704 192.043C299.176 191.892 299.636 191.705 300.079 191.484L301.604 192.447C301.877 192.619 302.235 192.581 302.464 192.356L305.223 189.646C305.452 189.421 305.491 189.07 305.316 188.802L304.335 187.304C304.56 186.869 304.751 186.417 304.905 185.954L306.676 185.576C306.993 185.508 307.219 185.233 307.219 184.915V181.082C307.219 180.764 306.993 180.489 306.676 180.421ZM299.827 182.998C299.827 185.236 297.973 187.056 295.695 187.056C293.416 187.056 291.563 185.236 291.563 182.998C291.563 180.761 293.416 178.94 295.695 178.94C297.973 178.94 299.827 180.761 299.827 182.998Z" fill="#FF6E40"/>
<path d="M61.6876 87.6753C61.2807 87.6753 60.9504 87.3509 60.9504 86.9512V85.0619C60.9504 84.6623 61.2807 84.3379 61.6876 84.3379C62.0945 84.3379 62.4248 84.6623 62.4248 85.0619V86.9512C62.4248 87.3509 62.0945 87.6753 61.6876 87.6753Z" fill="#FF6E40"/>
<path d="M68.1487 90.3027C67.96 90.3027 67.7713 90.2323 67.6277 90.0903C67.3397 89.8075 67.3397 89.3489 67.6277 89.0661L68.9881 87.73C69.2761 87.4471 69.743 87.4471 70.031 87.73C70.319 88.0128 70.319 88.4714 70.031 88.7542L68.6706 90.0903C68.5261 90.2313 68.3374 90.3027 68.1487 90.3027Z" fill="#FF6E40"/>
<path d="M72.7471 96.6455H70.8235C70.4166 96.6455 70.0863 96.3212 70.0863 95.9216C70.0863 95.5221 70.4166 95.1978 70.8235 95.1978H72.7471C73.154 95.1978 73.4843 95.5221 73.4843 95.9216C73.4843 96.3212 73.154 96.6455 72.7471 96.6455Z" fill="#FF6E40"/>
<path d="M69.5091 104.325C69.3204 104.325 69.1316 104.254 68.9881 104.112L67.6277 102.776C67.3397 102.493 67.3397 102.035 67.6277 101.752C67.9157 101.469 68.3826 101.469 68.6706 101.752L70.031 103.088C70.319 103.371 70.319 103.829 70.031 104.112C69.8865 104.254 69.6978 104.325 69.5091 104.325Z" fill="#FF6E40"/>
<path d="M53.8693 104.325C53.6806 104.325 53.4918 104.254 53.3483 104.112C53.0603 103.829 53.0603 103.371 53.3483 103.088L54.7087 101.752C54.9967 101.469 55.4636 101.469 55.7516 101.752C56.0396 102.035 56.0396 102.493 55.7516 102.776L54.3912 104.112C54.2467 104.254 54.058 104.325 53.8693 104.325Z" fill="#FF6E40"/>
<path d="M52.5542 96.6455H50.6306C50.2237 96.6455 49.8934 96.3212 49.8934 95.9216C49.8934 95.5221 50.2237 95.1978 50.6306 95.1978H52.5542C52.9611 95.1978 53.2914 95.5221 53.2914 95.9216C53.2914 96.3212 52.9611 96.6455 52.5542 96.6455Z" fill="#FF6E40"/>
<path d="M55.2297 90.3027C55.0409 90.3027 54.8522 90.2323 54.7087 90.0903L53.3483 88.7542C53.0603 88.4714 53.0603 88.0128 53.3483 87.73C53.6363 87.4471 54.1032 87.4471 54.3912 87.73L55.7516 89.0661C56.0396 89.3489 56.0396 89.8075 55.7516 90.0903C55.6061 90.2313 55.4184 90.3027 55.2297 90.3027Z" fill="#FF6E40"/>
<path d="M64.6378 104.609V105.816C64.6378 106.743 63.8612 107.505 62.9176 107.505H60.4603C59.6346 107.505 58.7401 106.888 58.7401 105.536V104.609H64.6378Z" fill="#FF6E40"/>
<path d="M66.0227 90.6703C64.4107 89.3865 62.2875 88.8845 60.2135 89.3189C57.6088 89.8498 55.4955 91.9348 54.9549 94.4929C54.4044 97.1185 55.407 99.7248 57.5498 101.318C58.1297 101.742 58.5327 102.399 58.6703 103.161V103.171C58.69 103.161 58.7195 103.161 58.7391 103.161H64.6367C64.6564 103.161 64.6662 103.161 64.6859 103.171V103.161C64.8235 102.428 65.2658 101.752 65.944 101.231C67.6052 99.9372 68.5685 98.0066 68.5685 95.9215C68.5685 93.8751 67.6445 91.9638 66.0227 90.6703ZM65.3739 96.4042C64.9709 96.4042 64.6367 96.076 64.6367 95.6802C64.6367 94.2129 63.4277 93.0256 61.9337 93.0256C61.5307 93.0256 61.1965 92.6974 61.1965 92.3017C61.1965 91.9059 61.5307 91.5777 61.9337 91.5777C64.2337 91.5777 66.1111 93.4214 66.1111 95.6802C66.1111 96.076 65.777 96.4042 65.3739 96.4042Z" fill="#FF6E40"/>
<path d="M58.6707 103.161H58.7395C58.7198 103.161 58.6903 103.161 58.6707 103.171V103.161Z" fill="black"/>
<path d="M64.6861 103.161V103.171C64.6665 103.161 64.6566 103.161 64.637 103.161H64.6861Z" fill="black"/>
</svg>
