<svg width="346" height="179" viewBox="0 0 346 179" fill="none" xmlns="http://www.w3.org/2000/svg">
<path fill-rule="evenodd" clip-rule="evenodd" d="M124.342 0.0427246H220.177C230.307 0.0427246 238.519 7.95932 238.519 17.7249V171.022C238.519 172.024 237.677 172.836 236.638 172.836H107.881C106.842 172.836 106 172.024 106 171.022V17.7249C106 7.95932 114.212 0.0427246 124.342 0.0427246Z" fill="#00042E"/>
<path fill-rule="evenodd" clip-rule="evenodd" d="M111.999 162.405H149.122V171.492L137.03 177.825H111.999C110.96 177.825 110.118 177.013 110.118 176.012V164.219C110.118 163.217 110.96 162.405 111.999 162.405Z" fill="#1D2D37"/>
<path fill-rule="evenodd" clip-rule="evenodd" d="M111.999 163.312H149.122V172.399L137.03 178.732H111.999C110.96 178.732 110.118 177.92 110.118 176.918V165.126C110.118 164.124 110.96 163.312 111.999 163.312Z" fill="#0F1449"/>
<path fill-rule="evenodd" clip-rule="evenodd" d="M233.228 162.405H196.105V171.492L208.197 177.825H233.228C234.267 177.825 235.109 177.013 235.109 176.012V164.219C235.109 163.217 234.267 162.405 233.228 162.405Z" fill="#1D2D37"/>
<path fill-rule="evenodd" clip-rule="evenodd" d="M233.228 163.312H196.105V172.399L208.197 178.732H233.228C234.267 178.732 235.109 177.92 235.109 176.918V165.126C235.109 164.124 234.267 163.312 233.228 163.312Z" fill="#0F1449"/>
<path d="M193.754 107.982H151.461V172.836H193.754V107.982Z" fill="#3C3F60"/>
<path d="M162.748 134.06C162.748 139.195 167.061 143.357 172.382 143.357C177.702 143.357 182.015 139.195 182.015 134.06C182.015 128.925 177.702 124.763 172.382 124.763" stroke="white" stroke-width="1.01384" stroke-linecap="round"/>
<path d="M176.177 137.916C177.13 137.004 177.723 135.729 177.723 134.317C177.723 131.545 175.438 129.298 172.62 129.298C169.803 129.298 167.518 131.545 167.518 134.317C167.518 135.58 167.993 136.734 168.775 137.616" stroke="white" stroke-width="1.01384" stroke-linecap="round"/>
<path d="M162.772 134.74V118.413" stroke="white" stroke-width="1.01384" stroke-linecap="round"/>
<path d="M163.221 153.231C163.652 153.231 163.983 153.137 164.214 152.95C164.445 152.763 164.561 152.502 164.561 152.168C164.561 151.941 164.489 151.741 164.346 151.568C164.203 151.396 164.009 151.282 163.765 151.227C163.975 151.179 164.145 151.077 164.275 150.921C164.404 150.765 164.469 150.57 164.469 150.335C164.469 150.016 164.357 149.77 164.131 149.598C163.906 149.425 163.587 149.339 163.175 149.339H161.336V153.231H163.221ZM162.957 150.93H162.316V150.093H162.946C163.293 150.093 163.467 150.232 163.467 150.511C163.467 150.79 163.297 150.93 162.957 150.93ZM163.014 152.466H162.316V151.59H163.009C163.184 151.59 163.32 151.63 163.415 151.709C163.511 151.788 163.559 151.897 163.559 152.036C163.559 152.322 163.377 152.466 163.014 152.466ZM166.411 154.695L168.404 150.159H167.322L166.606 152.042L165.838 150.159H164.744L166.085 153.115L165.334 154.695H166.411ZM170.604 153.264C171.119 153.264 171.546 153.133 171.884 152.87C172.222 152.608 172.441 152.256 172.54 151.816H171.503C171.427 151.992 171.309 152.132 171.151 152.234C170.993 152.337 170.804 152.389 170.587 152.389C170.3 152.389 170.069 152.289 169.894 152.088C169.718 151.888 169.63 151.62 169.63 151.282C169.63 150.944 169.718 150.675 169.894 150.473C170.069 150.271 170.3 150.17 170.587 150.17C170.804 150.17 170.993 150.221 171.151 150.324C171.309 150.427 171.427 150.568 171.503 150.748H172.54C172.441 150.304 172.222 149.952 171.884 149.691C171.546 149.431 171.119 149.3 170.604 149.3C170.211 149.3 169.865 149.384 169.567 149.551C169.269 149.718 169.039 149.952 168.877 150.253C168.715 150.554 168.634 150.897 168.634 151.282C168.634 151.667 168.715 152.011 168.877 152.311C169.039 152.612 169.269 152.846 169.567 153.013C169.865 153.18 170.211 153.264 170.604 153.264ZM174.608 153.269C174.925 153.269 175.208 153.206 175.458 153.079C175.709 152.953 175.905 152.77 176.048 152.532C176.192 152.293 176.263 152.014 176.263 151.695C176.263 151.376 176.192 151.097 176.048 150.858C175.905 150.62 175.709 150.437 175.458 150.31C175.208 150.184 174.925 150.12 174.608 150.12C174.291 150.12 174.006 150.184 173.754 150.31C173.502 150.437 173.305 150.62 173.162 150.858C173.018 151.097 172.947 151.376 172.947 151.695C172.947 152.014 173.018 152.293 173.162 152.532C173.305 152.77 173.502 152.953 173.754 153.079C174.006 153.206 174.291 153.269 174.608 153.269ZM174.608 152.449C174.421 152.449 174.263 152.385 174.135 152.256C174.007 152.128 173.943 151.941 173.943 151.695C173.943 151.449 174.007 151.261 174.135 151.131C174.263 151 174.421 150.935 174.608 150.935C174.795 150.935 174.952 151 175.078 151.131C175.204 151.261 175.267 151.449 175.267 151.695C175.267 151.941 175.204 152.128 175.078 152.256C174.952 152.385 174.795 152.449 174.608 152.449ZM177.775 153.231V149.157H176.796V153.231H177.775ZM179.316 153.231V152.289H178.302V153.231H179.316ZM181.063 153.269C181.308 153.269 181.518 153.216 181.693 153.11C181.869 153.003 181.999 152.858 182.083 152.675V153.231H183.057V150.159H182.083V150.715C181.999 150.532 181.869 150.387 181.693 150.28C181.518 150.174 181.308 150.12 181.063 150.12C180.8 150.12 180.564 150.184 180.356 150.31C180.148 150.437 179.984 150.619 179.863 150.855C179.743 151.092 179.683 151.372 179.683 151.695C179.683 152.014 179.743 152.293 179.863 152.532C179.984 152.77 180.148 152.953 180.356 153.079C180.564 153.206 180.8 153.269 181.063 153.269ZM181.378 152.444C181.168 152.444 180.999 152.378 180.871 152.245C180.743 152.113 180.68 151.93 180.68 151.695C180.68 151.46 180.743 151.277 180.871 151.144C180.999 151.012 181.168 150.946 181.378 150.946C181.585 150.946 181.754 151.013 181.885 151.147C182.017 151.281 182.083 151.464 182.083 151.695C182.083 151.922 182.017 152.104 181.885 152.24C181.754 152.376 181.585 152.444 181.378 152.444ZM184.248 149.785C184.424 149.785 184.565 149.738 184.672 149.644C184.779 149.551 184.832 149.434 184.832 149.295C184.832 149.152 184.779 149.033 184.672 148.94C184.565 148.846 184.424 148.799 184.248 148.799C184.072 148.799 183.931 148.846 183.824 148.94C183.717 149.033 183.664 149.152 183.664 149.295C183.664 149.434 183.717 149.551 183.824 149.644C183.931 149.738 184.072 149.785 184.248 149.785ZM184.735 153.231V150.159H183.755V153.231H184.735Z" fill="white"/>
<path d="M199.096 40.3569H146.001C143.923 40.3569 142.238 41.9809 142.238 43.9841V95.2346C142.238 97.2378 143.923 98.8617 146.001 98.8617H199.096C201.174 98.8617 202.859 97.2378 202.859 95.2346V43.9841C202.859 41.9809 201.174 40.3569 199.096 40.3569Z" fill="white" fill-opacity="0.08"/>
<path d="M172.376 95.2828C186.391 95.2828 197.752 84.3181 197.752 70.7924C197.752 57.2666 186.391 46.3019 172.376 46.3019C158.362 46.3019 147 57.2666 147 70.7924C147 84.3181 158.362 95.2828 172.376 95.2828Z" fill="white" fill-opacity="0.17"/>
<path d="M172.379 91.2014C184.058 91.2014 193.526 82.0641 193.526 70.7927C193.526 59.5213 184.058 50.384 172.379 50.384C160.7 50.384 151.233 59.5213 151.233 70.7927C151.233 82.0641 160.7 91.2014 172.379 91.2014Z" fill="#282A3F"/>
<path d="M172.375 87.12C181.589 87.12 189.058 79.9117 189.058 71.0198C189.058 62.1279 181.589 54.9196 172.375 54.9196C163.162 54.9196 155.693 62.1279 155.693 71.0198C155.693 79.9117 163.162 87.12 172.375 87.12Z" fill="#3C3F60"/>
<path d="M172.853 83.9447C180.25 83.9447 186.246 78.1578 186.246 71.0193C186.246 63.8808 180.25 58.0939 172.853 58.0939C165.457 58.0939 159.46 63.8808 159.46 71.0193C159.46 78.1578 165.457 83.9447 172.853 83.9447Z" fill="#282A3F"/>
<path d="M172.849 78.5027C177.131 78.5027 180.603 75.1524 180.603 71.0196C180.603 66.8868 177.131 63.5365 172.849 63.5365C168.567 63.5365 165.095 66.8868 165.095 71.0196C165.095 75.1524 168.567 78.5027 172.849 78.5027Z" fill="#3C3F60"/>
<path d="M201.274 69.886H143.943V72.1536H201.274V69.886Z" fill="#282A3F"/>
<path fill-rule="evenodd" clip-rule="evenodd" d="M173.788 43.3549V98.6848H171.438V43.3549H173.788Z" fill="#282A3F"/>
<path d="M279.507 103.503C277.466 105.99 273.76 106.384 271.225 104.383C268.688 102.381 268.284 98.7367 270.323 96.2447C270.323 96.2447 270.323 96.2444 270.323 96.244C276.419 88.0645 276.419 76.9501 270.323 68.7706C268.268 66.2911 268.649 62.6449 271.174 60.6267C273.698 58.6085 277.411 58.9827 279.466 61.4621C279.48 61.4784 279.493 61.4947 279.507 61.5113C289.151 73.9065 289.151 91.1077 279.507 103.503Z" fill="url(#paint0_linear)"/>
<path d="M303.085 120.869C301.044 123.356 297.338 123.75 294.803 121.749C292.265 119.747 291.861 116.103 293.9 113.611C293.9 113.61 293.901 113.61 293.901 113.61C307.942 95.1671 307.942 69.8468 293.901 51.4039C291.846 48.9244 292.227 45.2782 294.751 43.26C297.276 41.2418 300.989 41.616 303.044 44.0954C303.058 44.1117 303.071 44.128 303.085 44.1446C320.403 66.8921 320.403 98.1221 303.085 120.869Z" fill="url(#paint1_linear)"/>
<path d="M326.664 138.236C324.623 140.722 320.917 141.116 318.382 139.116C315.844 137.113 315.44 133.469 317.48 130.977C317.48 130.977 317.48 130.977 317.48 130.976C339.361 102.236 339.361 62.7779 317.48 34.0375C315.425 31.5581 315.806 27.9118 318.331 25.8937C320.855 23.8755 324.568 24.2496 326.623 26.7291C326.637 26.7454 326.65 26.7617 326.664 26.7783C351.822 59.8235 351.822 105.191 326.664 138.236Z" fill="url(#paint2_linear)"/>
<path d="M65.5659 102.955C67.5926 105.424 71.2728 105.816 73.7903 103.829C76.3102 101.84 76.7115 98.2217 74.6865 95.7471C74.6865 95.7471 74.6862 95.7467 74.6862 95.7464C68.6329 87.6238 68.6329 76.5866 74.6862 68.464C76.7269 66.0017 76.3486 62.3808 73.8414 60.3767C71.3342 58.3726 67.6472 58.7441 65.6064 61.2063C65.593 61.2225 65.5797 61.2386 65.5663 61.2551C55.9892 73.5642 55.9892 90.6458 65.5659 102.955Z" fill="url(#paint3_linear)"/>
<path d="M42.1532 120.2C44.1799 122.669 47.8601 123.06 50.3776 121.074C52.8974 119.085 53.2987 115.466 51.2734 112.992C51.2734 112.991 51.2731 112.991 51.2731 112.991C37.3299 94.6764 37.3299 69.5322 51.2731 51.2175C53.3138 48.7553 52.9355 45.1344 50.4283 43.1302C47.9211 41.1261 44.2341 41.4976 42.1933 43.9598C42.18 43.976 42.1666 43.9922 42.1532 44.0087C24.9551 66.5981 24.9551 97.6109 42.1532 120.2Z" fill="url(#paint4_linear)"/>
<path d="M18.7362 137.446C20.7629 139.915 24.4431 140.306 26.9606 138.319C29.4804 136.331 29.8817 132.712 27.8564 130.238C27.8564 130.237 27.8561 130.237 27.8561 130.237C6.12754 101.696 6.12754 62.5124 27.8561 33.9719C29.8968 31.5097 29.5185 27.8888 27.0113 25.8846C24.5041 23.8805 20.8171 24.252 18.7763 26.7142C18.763 26.7304 18.7496 26.7466 18.7362 26.7631C-6.24687 59.5786 -6.24687 104.631 18.7362 137.446Z" fill="url(#paint5_linear)"/>
<defs>
<linearGradient id="paint0_linear" x1="273.604" y1="117.307" x2="305.682" y2="96.2457" gradientUnits="userSpaceOnUse">
<stop stop-color="#BBE5F3"/>
<stop offset="1" stop-color="white"/>
</linearGradient>
<linearGradient id="paint1_linear" x1="298.676" y1="143.404" x2="347.432" y2="119.172" gradientUnits="userSpaceOnUse">
<stop stop-color="white"/>
<stop offset="1" stop-color="#BBE5F3"/>
</linearGradient>
<linearGradient id="paint2_linear" x1="323.781" y1="169.502" x2="387.7" y2="141.697" gradientUnits="userSpaceOnUse">
<stop stop-color="#BBE5F3"/>
<stop offset="1" stop-color="white"/>
</linearGradient>
<linearGradient id="paint3_linear" x1="71.428" y1="116.663" x2="39.5735" y2="95.7481" gradientUnits="userSpaceOnUse">
<stop stop-color="#BBE5F3"/>
<stop offset="1" stop-color="white"/>
</linearGradient>
<linearGradient id="paint4_linear" x1="46.5315" y1="142.578" x2="-1.88561" y2="118.514" gradientUnits="userSpaceOnUse">
<stop stop-color="white"/>
<stop offset="1" stop-color="#BBE5F3"/>
</linearGradient>
<linearGradient id="paint5_linear" x1="21.5992" y1="168.495" x2="-41.8757" y2="140.883" gradientUnits="userSpaceOnUse">
<stop stop-color="#BBE5F3"/>
<stop offset="1" stop-color="white"/>
</linearGradient>
</defs>
</svg>
