<svg width="363" height="616" viewBox="0 0 363 616" fill="none" xmlns="http://www.w3.org/2000/svg">
<g opacity="0.2">
<path d="M-170 30.7578V353.802C-170 497.996 -50.5435 615.304 96.2842 615.304C243.117 615.304 362.563 497.996 362.563 353.802C362.563 209.609 243.117 92.2954 96.2842 92.2954C78.9801 92.2954 64.9534 106.059 64.9534 123.059C64.9534 140.052 78.9801 153.828 96.2842 153.828C208.565 153.828 299.907 243.541 299.907 353.802C299.907 464.064 208.565 553.778 96.2842 553.778C-16.0024 553.778 -107.35 464.064 -107.35 353.802V30.7578C-107.35 13.7697 -121.371 0 -138.675 0C-155.979 0 -170 13.7697 -170 30.7578Z" fill="url(#paint0_linear)"/>
<path d="M-3.56229 255.897C-30.156 282.008 -44.8035 316.781 -44.8035 353.794C-44.8035 390.808 -30.156 425.575 -3.56229 451.687C8.66357 463.704 28.5125 463.704 40.7384 451.687C52.9754 439.68 52.9754 420.193 40.7384 408.181C25.9846 393.686 17.8526 374.375 17.8526 353.794C17.8526 333.214 25.9846 313.891 40.7384 299.402C71.2806 269.43 120.961 269.413 151.504 299.402C166.263 313.891 174.395 333.214 174.395 353.794C174.395 374.375 166.263 393.686 151.504 408.181C139.267 420.193 139.267 439.68 151.504 451.687C157.617 457.695 165.637 460.7 173.651 460.7C181.671 460.7 189.691 457.695 195.804 451.687C222.398 425.575 237.04 390.808 237.04 353.794C237.04 316.781 222.398 282.008 195.804 255.897C168.321 228.907 132.22 215.412 96.1237 215.412C60.0222 215.412 23.9207 228.907 -3.56229 255.897Z" fill="url(#paint1_linear)"/>
</g>
<defs>
<linearGradient id="paint0_linear" x1="96.2814" y1="615.304" x2="96.2814" y2="0" gradientUnits="userSpaceOnUse">
<stop stop-color="white"/>
<stop offset="1" stop-color="white" stop-opacity="0"/>
</linearGradient>
<linearGradient id="paint1_linear" x1="96.1182" y1="460.7" x2="96.1182" y2="215.412" gradientUnits="userSpaceOnUse">
<stop stop-color="white"/>
<stop offset="1" stop-color="white" stop-opacity="0"/>
</linearGradient>
</defs>
</svg>
