<svg width="137" height="36" viewBox="0 0 137 36" fill="none" xmlns="http://www.w3.org/2000/svg">
<path d="M0 1.75212V20.1543C0 28.3683 6.93955 35.0508 15.4692 35.0508C23.9991 35.0508 30.938 28.3683 30.938 20.1543C30.938 11.9404 23.9991 5.25761 15.4692 5.25761C14.4639 5.25761 13.6491 6.04167 13.6491 7.01003C13.6491 7.97808 14.4639 8.76278 15.4692 8.76278C21.9919 8.76278 27.2981 13.8733 27.2981 20.1543C27.2981 26.4354 21.9919 31.5459 15.4692 31.5459C8.94613 31.5459 3.63953 26.4354 3.63953 20.1543V1.75212C3.63953 0.784386 2.82501 0 1.81977 0C0.81453 0 0 0.784386 0 1.75212Z" fill="white"/>
<path d="M9.66413 14.5772C8.11922 16.0646 7.26831 18.0454 7.26831 20.1539C7.26831 22.2623 8.11922 24.2428 9.66413 25.7302C10.3744 26.4148 11.5274 26.4148 12.2377 25.7302C12.9486 25.0463 12.9486 23.9362 12.2377 23.2519C11.3806 22.4263 10.9082 21.3262 10.9082 20.1539C10.9082 18.9815 11.3806 17.8808 12.2377 17.0555C14.012 15.3481 16.898 15.3472 18.6723 17.0555C19.5297 17.8808 20.0021 18.9815 20.0021 20.1539C20.0021 21.3262 19.5297 22.4263 18.6723 23.2519C17.9614 23.9362 17.9614 25.0463 18.6723 25.7302C19.0274 26.0725 19.4933 26.2436 19.9589 26.2436C20.4248 26.2436 20.8907 26.0725 21.2459 25.7302C22.7908 24.2428 23.6414 22.2623 23.6414 20.1539C23.6414 18.0454 22.7908 16.0646 21.2459 14.5772C19.6493 13.0397 17.5521 12.271 15.4552 12.271C13.3579 12.271 11.2607 13.0397 9.66413 14.5772Z" fill="white"/>
<path d="M51.1198 21.1767C51.1198 22.3037 50.376 22.8897 49.0913 22.8897H46.2515V19.3962H49.0463C50.331 19.3962 51.1198 20.0498 51.1198 21.1767ZM50.7367 14.9336C50.7367 16.0154 50.038 16.5789 48.7758 16.5789H46.2515V13.2657H48.7758C50.038 13.2657 50.7367 13.8517 50.7367 14.9336ZM55.019 21.6951C55.019 19.892 53.8244 18.2693 51.9763 17.8861C53.5089 17.4353 54.6584 16.1957 54.6584 14.2799C54.6584 11.7782 52.7426 10.1779 49.5196 10.1779H42.3974V26H49.7675C53.1032 26 55.019 24.3096 55.019 21.6951ZM63.0468 21.2894L60.1393 13.4235H55.8344L60.9507 25.5718L58.0657 31.9727H62.2128L70.1013 13.4235H65.9317L63.0468 21.2894ZM70.8414 18.0664C70.8414 22.7995 74.132 26.1127 78.7975 26.1127C82.5615 26.1127 85.4013 24.0166 86.3029 20.5907H82.0656C81.412 21.9431 80.2175 22.6192 78.7524 22.6192C76.3859 22.6192 74.7631 20.8612 74.7631 18.0664C74.7631 15.2716 76.3859 13.5136 78.7524 13.5136C80.2175 13.5136 81.412 14.1898 82.0656 15.5421H86.3029C85.4013 12.1162 82.5615 9.99762 78.7975 9.99762C74.132 9.99762 70.8414 13.3333 70.8414 18.0664ZM100.969 19.7117C100.969 15.7224 98.1293 13.2432 94.433 13.2432C90.7592 13.2432 87.8968 15.7224 87.8968 19.7117C87.8968 23.7011 90.6915 26.1803 94.3879 26.1803C98.0842 26.1803 100.969 23.7011 100.969 19.7117ZM91.8185 19.7117C91.8185 17.5706 93.0356 16.5789 94.433 16.5789C95.7853 16.5789 97.0474 17.5706 97.0474 19.7117C97.0474 21.8304 95.7627 22.8446 94.3879 22.8446C92.9905 22.8446 91.8185 21.8304 91.8185 19.7117ZM103.014 26H106.868V9.32146H103.014V26ZM113.74 24.1068C113.74 22.9122 112.816 21.9881 111.464 21.9881C110.089 21.9881 109.165 22.9122 109.165 24.1068C109.165 25.2562 110.089 26.1803 111.464 26.1803C112.816 26.1803 113.74 25.2562 113.74 24.1068ZM115.256 19.6892C115.256 23.656 117.712 26.1803 120.778 26.1803C122.648 26.1803 123.978 25.3238 124.677 24.2195V26H128.531V13.4235H124.677V15.204C124.001 14.0996 122.671 13.2432 120.8 13.2432C117.712 13.2432 115.256 15.7224 115.256 19.6892ZM124.677 19.7117C124.677 21.7177 123.392 22.8221 121.927 22.8221C120.485 22.8221 119.177 21.6951 119.177 19.6892C119.177 17.6833 120.485 16.6014 121.927 16.6014C123.392 16.6014 124.677 17.7058 124.677 19.7117ZM131.319 26H135.173V13.4235H131.319V26ZM133.257 12.1162C134.61 12.1162 135.534 11.1922 135.534 10.0427C135.534 8.87069 134.61 7.94661 133.257 7.94661C131.883 7.94661 130.958 8.87069 130.958 10.0427C130.958 11.1922 131.883 12.1162 133.257 12.1162Z" fill="white"/>
</svg>
