<svg width="138" height="37" viewBox="0 0 138 37" fill="none" xmlns="http://www.w3.org/2000/svg">
<path d="M0 1.87193V20.6385C0 29.0151 6.93955 35.8298 15.4692 35.8298C23.9991 35.8298 30.938 29.0151 30.938 20.6385C30.938 12.2619 23.9991 5.44682 15.4692 5.44682C14.4639 5.44682 13.6491 6.24641 13.6491 7.23394C13.6491 8.22115 14.4639 9.02139 15.4692 9.02139C21.9919 9.02139 27.2981 14.2331 27.2981 20.6385C27.2981 27.0439 21.9919 32.2556 15.4692 32.2556C8.94614 32.2556 3.63953 27.0439 3.63953 20.6385V1.87193C3.63953 0.885044 2.82501 0.0851288 1.81977 0.0851288C0.81453 0.0851288 0 0.885044 0 1.87193Z" fill="white"/>
<path d="M9.66406 14.9508C8.11916 16.4677 7.26825 18.4877 7.26825 20.638C7.26825 22.7882 8.11916 24.8079 9.66406 26.3248C10.3743 27.0229 11.5274 27.0229 12.2376 26.3248C12.9485 25.6273 12.9485 24.4952 12.2376 23.7974C11.3805 22.9554 10.9081 21.8335 10.9081 20.638C10.9081 19.4424 11.3805 18.3199 12.2376 17.4782C14.0119 15.737 16.898 15.7361 18.6723 17.4782C19.5297 18.3199 20.0021 19.4424 20.0021 20.638C20.0021 21.8335 19.5297 22.9554 18.6723 23.7974C17.9614 24.4952 17.9614 25.6273 18.6723 26.3248C19.0274 26.6739 19.4933 26.8484 19.9589 26.8484C20.4248 26.8484 20.8907 26.6739 21.2458 26.3248C22.7907 24.8079 23.6413 22.7882 23.6413 20.638C23.6413 18.4877 22.7907 16.4677 21.2458 14.9508C19.6492 13.3829 17.552 12.5989 15.4551 12.5989C13.3579 12.5989 11.2606 13.3829 9.66406 14.9508Z" fill="white"/>
<path d="M46.2515 17.204V11.3215H42.3974V28H46.2515V26.242C46.9502 27.3464 48.28 28.1803 50.1281 28.1803C53.2159 28.1803 55.6726 25.656 55.6726 21.6892C55.6726 17.7224 53.2384 15.2432 50.1281 15.2432C48.325 15.2432 46.9502 16.0771 46.2515 17.204ZM51.7509 21.6892C51.7509 23.6951 50.4437 24.8221 48.9787 24.8221C47.5362 24.8221 46.2289 23.7177 46.2289 21.7117C46.2289 19.7058 47.5362 18.6014 48.9787 18.6014C50.4437 18.6014 51.7509 19.6833 51.7509 21.6892ZM63.487 23.2894L60.5795 15.4235H56.2746L61.3909 27.5718L58.506 33.9727H62.653L70.5415 15.4235H66.3719L63.487 23.2894ZM71.2816 20.0664C71.2816 24.7995 74.5722 28.1127 79.2377 28.1127C83.0017 28.1127 85.8415 26.0166 86.7431 22.5907H82.5058C81.8522 23.9431 80.6577 24.6192 79.1927 24.6192C76.8261 24.6192 75.2033 22.8612 75.2033 20.0664C75.2033 17.2716 76.8261 15.5136 79.1927 15.5136C80.6577 15.5136 81.8522 16.1898 82.5058 17.5421H86.7431C85.8415 14.1162 83.0017 11.9976 79.2377 11.9976C74.5722 11.9976 71.2816 15.3333 71.2816 20.0664ZM101.409 21.7117C101.409 17.7224 98.5695 15.2432 94.8732 15.2432C91.1994 15.2432 88.337 17.7224 88.337 21.7117C88.337 25.7011 91.1318 28.1803 94.8281 28.1803C98.5244 28.1803 101.409 25.7011 101.409 21.7117ZM92.2587 21.7117C92.2587 19.5706 93.4758 18.5789 94.8732 18.5789C96.2255 18.5789 97.4876 19.5706 97.4876 21.7117C97.4876 23.8304 96.2029 24.8446 94.8281 24.8446C93.4307 24.8446 92.2587 23.8304 92.2587 21.7117ZM103.454 28H107.308V11.3215H103.454V28ZM114.181 26.1068C114.181 24.9122 113.257 23.9881 111.904 23.9881C110.529 23.9881 109.605 24.9122 109.605 26.1068C109.605 27.2562 110.529 28.1803 111.904 28.1803C113.257 28.1803 114.181 27.2562 114.181 26.1068ZM115.696 21.6892C115.696 25.656 118.153 28.1803 121.218 28.1803C123.088 28.1803 124.418 27.3238 125.117 26.2195V28H128.971V15.4235H125.117V17.204C124.441 16.0996 123.111 15.2432 121.24 15.2432C118.153 15.2432 115.696 17.7224 115.696 21.6892ZM125.117 21.7117C125.117 23.7177 123.832 24.8221 122.367 24.8221C120.925 24.8221 119.618 23.6951 119.618 21.6892C119.618 19.6833 120.925 18.6014 122.367 18.6014C123.832 18.6014 125.117 19.7058 125.117 21.7117ZM131.759 28H135.613V15.4235H131.759V28ZM133.698 14.1162C135.05 14.1162 135.974 13.1922 135.974 12.0427C135.974 10.8707 135.05 9.94661 133.698 9.94661C132.323 9.94661 131.399 10.8707 131.399 12.0427C131.399 13.1922 132.323 14.1162 133.698 14.1162Z" fill="white"/>
</svg>
