<svg width="293" height="345" viewBox="0 0 293 345" fill="none" xmlns="http://www.w3.org/2000/svg">
<mask id="mask0" style="mask-type:alpha" maskUnits="userSpaceOnUse" x="166" y="111" width="127" height="234">
<path d="M181.066 111.802H277.785C285.929 111.802 292.531 117.996 292.531 125.635V330.34C292.531 337.98 285.929 344.173 277.785 344.173H181.066C172.922 344.173 166.32 337.98 166.32 330.34V125.635C166.32 117.996 172.922 111.802 181.066 111.802Z" fill="white"/>
</mask>
<g mask="url(#mask0)">
<path d="M181.065 111.802H277.785C285.929 111.802 292.53 117.996 292.53 125.636V330.341C292.53 337.981 285.929 344.174 277.785 344.174H181.065C172.922 344.174 166.32 337.981 166.32 330.341V125.636C166.32 117.996 172.922 111.802 181.065 111.802Z" fill="#020B4E"/>
<path d="M185.679 111.802H280.631C288.775 111.802 295.376 117.996 295.376 125.636V330.341C295.376 337.981 288.775 344.174 280.631 344.174H185.679C177.535 344.174 170.934 337.981 170.934 330.341V125.636C170.934 117.996 177.535 111.802 185.679 111.802Z" fill="#020B4E"/>
<path d="M233.061 340.762C236.978 340.762 240.154 337.783 240.154 334.108C240.154 330.433 236.978 327.454 233.061 327.454C229.144 327.454 225.969 330.433 225.969 334.108C225.969 337.783 229.144 340.762 233.061 340.762Z" fill="#E6F9FF"/>
<path d="M224.278 117.612H247.304" stroke="white" stroke-width="4.86486" stroke-linecap="round"/>
<path d="M216.616 119.548C217.592 119.548 218.383 118.805 218.383 117.888C218.383 116.972 217.592 116.228 216.616 116.228C215.64 116.228 214.848 116.972 214.848 117.888C214.848 118.805 215.64 119.548 216.616 119.548Z" fill="white"/>
<path fill-rule="evenodd" clip-rule="evenodd" d="M187.896 122.788H271.011C278.193 122.788 284.016 128.251 284.016 134.989V312.158C284.016 318.897 278.193 324.359 271.011 324.359H187.896C180.713 324.359 174.891 318.897 174.891 312.158V134.989C174.891 128.251 180.713 122.788 187.896 122.788Z" fill="url(#paint0_linear)"/>
<path fill-rule="evenodd" clip-rule="evenodd" d="M188.871 143.194H270.344C273.96 143.194 276.891 145.944 276.891 149.336V313.123C276.891 316.515 273.96 319.265 270.344 319.265H188.871C185.255 319.265 182.324 316.515 182.324 313.123V149.336C182.324 145.944 185.255 143.194 188.871 143.194Z" fill="white"/>
<g opacity="0.7">
<g opacity="0.7">
<path opacity="0.7" d="M202.871 183.459C209.4 183.459 214.692 178.494 214.692 172.369C214.692 166.244 209.4 161.279 202.871 161.279C196.343 161.279 191.05 166.244 191.05 172.369C191.05 178.494 196.343 183.459 202.871 183.459Z" fill="#CEECF7"/>
<path opacity="0.7" d="M224.273 168.445H265.281" stroke="#CEECF7" stroke-width="9" stroke-linecap="round"/>
<path opacity="0.7" d="M195.175 199.155H266.735" stroke="#CEECF7" stroke-width="9" stroke-linecap="round"/>
<path opacity="0.5" d="M195.175 229.864H266.735" stroke="#CEECF7" stroke-width="9" stroke-linecap="round"/>
<path opacity="0.2" d="M195.175 260.575H266.735" stroke="#CEECF7" stroke-width="9" stroke-linecap="round"/>
</g>
</g>
<path opacity="0.2" d="M211.617 321.875H246.786" stroke="#020B4E" stroke-width="4" stroke-linecap="round"/>
</g>
<path d="M112.661 207.003C172.12 207.003 220.321 161.783 220.321 106.001C220.321 50.2199 172.12 5 112.661 5C53.2013 5 5 50.2199 5 106.001C5 161.783 53.2013 207.003 112.661 207.003Z" fill="white" stroke="#E9F5FF" stroke-width="10"/>
<path fill-rule="evenodd" clip-rule="evenodd" d="M113.841 133.341C135.003 133.667 151.407 137.619 163.055 145.199C173.505 151.999 178.334 165.802 177.54 186.607C159.498 199.409 137.023 207.003 112.658 207.003C85.3782 207.003 60.4685 197.484 41.4961 181.795C43.5142 160.904 49.2608 144.091 67.9204 138.995C80.8653 135.459 96.1724 133.574 113.841 133.341Z" fill="#E9F6FC"/>
<path fill-rule="evenodd" clip-rule="evenodd" d="M140.091 88.4907C144.089 80.4435 145.587 70.8147 144.585 59.6044C143.583 48.3941 137.594 41.3792 126.618 38.5597C117.343 33.2 106.407 33.2 93.8081 38.5597C74.9102 46.5993 72.0825 59.1765 72.8974 82.915C73.7124 106.653 72.9472 116.464 66.9169 126.327C60.8865 136.19 43.5914 160.073 65.1286 169.893H157.53C163.656 160.216 163.656 149.562 157.53 137.931C151.403 126.3 145.591 109.82 140.091 88.4907Z" fill="#2D2D2D"/>
<path fill-rule="evenodd" clip-rule="evenodd" d="M163.064 145.199C151.416 137.619 135.011 133.667 113.85 133.341C96.1808 133.574 80.8737 135.458 67.9287 138.994C50.6306 143.719 44.4298 158.513 42.009 177.289C41.7137 179.59 177.703 184.416 177.61 180.125C177.236 162.908 172.388 151.266 163.064 145.199Z" fill="#E9F6FC"/>
<path fill-rule="evenodd" clip-rule="evenodd" d="M98.2314 127.601C94.1472 129.353 91.1886 132.498 89.3555 137.036C87.5224 141.574 86.2036 144.56 85.3992 145.995L96.5685 144.606C101.941 152.161 108.789 155.678 117.113 155.157C125.437 154.636 130.884 151.119 133.455 144.606L145.323 145.995C139.047 137.135 132.853 131.854 126.742 130.152L98.2314 127.601Z" fill="white"/>
<path fill-rule="evenodd" clip-rule="evenodd" d="M144.358 75.0215C143.115 78.9474 141.207 82.7318 138.634 86.3746C134.774 91.8388 133.782 95.9635 133.782 101.127C138.591 101.734 142.795 100.365 146.394 97.0226C151.792 92.0083 150.593 83.1776 148.183 81.2036C148.036 79.0995 147.609 77.5783 146.9 76.64C146.192 75.7018 145.344 75.1622 144.358 75.0215Z" fill="#BCE5F3"/>
<path fill-rule="evenodd" clip-rule="evenodd" d="M144.356 75.0216C145.342 75.1624 146.19 75.7019 146.898 76.6402C147.607 77.5784 148.034 79.0996 148.181 81.2037C148.408 88.5402 147.305 94.2109 144.873 98.2155L144.789 98.3517C142.137 100.299 139.185 101.271 135.935 101.267C143.188 97.068 145.908 88.5865 144.093 75.8224C144.184 75.5561 144.272 75.2892 144.356 75.0216Z" fill="#91C8DB"/>
<path opacity="0.2" fill-rule="evenodd" clip-rule="evenodd" d="M149.648 91.6637C149.076 93.6033 148.043 95.491 146.394 97.0226C142.795 100.365 138.591 101.734 133.782 101.127C133.782 97.771 134.201 94.8536 135.554 91.722C135.849 93.3191 137.07 94.2415 139.219 94.4895C143.309 94.9614 146.732 94.0644 149.486 91.7984L149.648 91.6637Z" fill="#BCE5F3"/>
<path fill-rule="evenodd" clip-rule="evenodd" d="M144.882 66.4376C145.885 72.0317 146.386 76.3478 146.386 79.386L144.094 75.8226C144.378 74.1425 144.568 72.7342 144.663 71.5977C144.759 70.4613 144.832 68.7413 144.882 66.4376Z" fill="#91C8DB"/>
<path fill-rule="evenodd" clip-rule="evenodd" d="M132.289 60.9574C120.456 77.3994 104.223 84.7158 83.5893 82.9066C82.2018 98.8687 87.1347 111.304 98.3879 120.212V133.828C98.3879 142.976 104.33 151.2 113.388 154.587C119.003 156.688 125.371 154.12 127.609 148.851C128.124 147.642 128.388 146.351 128.388 145.048V123.688C136.812 121.121 141.024 114.712 141.024 104.46C141.024 96.9477 141.024 89.4355 141.024 81.9233C141.024 77.4934 139.782 73.1414 137.422 69.3043L132.289 60.9574Z" fill="#CEECF7"/>
<path d="M143.364 97.3336V104.435C143.364 107.827 140.432 110.577 136.817 110.577H129.758" stroke="#BCE5F3" stroke-width="3" stroke-linecap="round"/>
<path fill-rule="evenodd" clip-rule="evenodd" d="M128.38 108.429H134.563C135.668 108.429 136.564 109.269 136.564 110.305C136.564 111.342 135.668 112.182 134.563 112.182H128.38C127.275 112.182 126.38 111.342 126.38 110.305C126.38 109.269 127.275 108.429 128.38 108.429Z" fill="#BCE5F3"/>
<path d="M132.669 60.3262C122.604 77.6728 106.168 85.1862 83.3608 82.8664" stroke="#2D2D2D"/>
<path fill-rule="evenodd" clip-rule="evenodd" d="M83.364 77.6581H75.1634C73.5127 78.8405 72.5257 80.4096 72.2022 82.3654C70.0814 83.9165 69.021 87.3267 69.021 92.596C69.021 97.8654 70.4927 101.045 73.4361 102.134C74.9146 104.128 76.512 105.364 78.2284 105.842C80.8029 106.559 85.3234 106.166 86.1717 104.15C87.0199 102.134 87.9553 98.6831 87.4876 91.3172C87.1758 86.4066 85.8013 81.8535 83.364 77.6581Z" fill="#BCE5F3"/>
<path fill-rule="evenodd" clip-rule="evenodd" d="M76.2394 86.8426L76.3505 87.5643L76.6901 89.6398L76.8252 90.5067L76.9031 91.0399L76.9527 91.3999L77.0001 91.7628C77.0078 91.8236 77.0154 91.8844 77.0228 91.9453L77.066 92.3118L77.1059 92.6801C77.1122 92.7416 77.1184 92.8031 77.1244 92.8647L77.1585 93.2347C77.494 97.1231 77.1051 101.099 73.7956 102.601C73.6746 102.45 73.555 102.295 73.4362 102.134C71.1468 101.287 69.7478 99.1753 69.239 95.7993L69.1933 95.4739C69.0784 94.5961 69.021 93.6368 69.021 92.596C69.021 91.6173 69.0576 90.7029 69.1307 89.8525L69.1671 89.4646C69.5177 86.0143 70.4993 83.6703 72.112 82.4328L72.2022 82.3652C74.3896 82.1714 75.7354 83.6639 76.2394 86.8426Z" fill="#91C8DB"/>
<path fill-rule="evenodd" clip-rule="evenodd" d="M83.3659 77.6586C85.5454 81.854 87.1777 86.407 87.4895 91.3177L87.5169 91.773L87.5514 92.4371L87.57 92.8675L87.5853 93.2881L87.5973 93.6992L87.606 94.1009C87.6072 94.167 87.6083 94.2328 87.6092 94.2982L87.6133 94.6859L87.6144 95.0645L87.6126 95.434L87.6079 95.7948L87.6005 96.1468L87.5904 96.4903L87.5777 96.8253L87.5624 97.152L87.5447 97.4705L87.5247 97.781L87.5023 98.0835L87.4778 98.3783L87.4512 98.6655L87.4225 98.9451L87.3918 99.2174L87.3424 99.6123L87.3072 99.8667L87.2704 100.114L87.2319 100.355L87.1715 100.704L87.1294 100.928L87.086 101.146L87.0187 101.462L86.9724 101.665L86.9251 101.862L86.8524 102.148L86.7778 102.42L86.7016 102.681L86.6241 102.931L86.5719 103.091L86.4928 103.322L86.4132 103.544L86.3599 103.686L86.2799 103.891L86.1736 104.15C85.3253 106.166 80.8048 106.559 78.2303 105.842C77.8612 105.74 77.4976 105.602 77.1395 105.429L77.2279 105.352L77.4011 105.198C77.4296 105.172 77.4579 105.146 77.4859 105.12L77.6517 104.964L77.8125 104.807C79.1326 103.492 79.9421 102.012 80.3054 99.5976L80.3469 99.3035L80.3841 99C80.4134 98.7432 80.4382 98.4764 80.4587 98.199L80.4812 97.8608C80.4846 97.8036 80.4878 97.7459 80.4909 97.6878L80.5072 97.3336L80.5193 96.9685L80.5274 96.592C80.5285 96.5283 80.5293 96.4641 80.53 96.3994L80.532 96.0054L80.5302 95.3782C80.5296 95.2748 80.5289 95.1719 80.528 95.0695L80.5207 94.4617C80.5192 94.3615 80.5175 94.2617 80.5156 94.1625L80.5025 93.5731L80.4854 92.9954C80.3251 88.2293 79.7268 84.6416 78.3187 81.1191C77.4325 78.9023 75.9544 78.1289 73.8843 78.7988C74.208 78.437 74.5754 78.1008 74.9865 77.7902L75.1653 77.6586H83.3659Z" fill="#91C8DB"/>
<path fill-rule="evenodd" clip-rule="evenodd" d="M83.3624 77.658C82.58 67.644 83.6216 59.0071 86.4872 51.7471H80.2915C79.8544 51.7471 79.4595 51.9918 79.2879 52.369C77.1015 57.176 76.0083 65.6057 76.0083 77.658H83.3624Z" fill="#066F81"/>
<path fill-rule="evenodd" clip-rule="evenodd" d="M82.6368 77.6576C81.8544 67.6437 82.8961 59.0067 85.7617 51.7467H79.5659C79.1288 51.7467 78.7339 51.9914 78.5623 52.3686C76.3759 57.1757 75.2827 65.6053 75.2827 77.6576H82.6368Z" fill="#91C8DB"/>
<path opacity="0.2" fill-rule="evenodd" clip-rule="evenodd" d="M69.5522 97.3334C71.8592 101.325 79.4053 102.753 82.7979 101.323C84.6846 100.528 86.2612 99.3154 87.5275 97.6862L87.5133 97.8902L87.482 98.2879C87.4765 98.353 87.4708 98.4175 87.4649 98.4815L87.428 98.8588C87.4021 99.1059 87.374 99.3442 87.3437 99.5742L87.2968 99.913C87.2887 99.9684 87.2805 100.023 87.2722 100.078L87.221 100.398C87.2034 100.503 87.1855 100.606 87.1671 100.707L87.1107 101.005L87.052 101.291L86.9913 101.567L86.9287 101.832C86.9181 101.875 86.9075 101.918 86.8967 101.961L86.8317 102.211L86.7651 102.451L86.6974 102.682L86.6287 102.904L86.5591 103.118C86.5474 103.153 86.5357 103.187 86.524 103.221L86.4535 103.422L86.3472 103.709L86.2406 103.979L86.1698 104.15C85.3216 106.166 80.8011 106.559 78.2266 105.842C76.5102 105.364 74.9128 104.128 73.4344 102.134C71.5447 101.435 70.2617 99.874 69.5851 97.4519L69.5522 97.3334Z" fill="#BCE5F3"/>
<path fill-rule="evenodd" clip-rule="evenodd" d="M80.4814 51.7468C83.3352 44.7474 88.701 39.9699 96.5788 37.4143C90.6576 42.092 86.9952 46.8695 85.5915 51.7468H80.4814Z" fill="#91C8DB"/>
<path fill-rule="evenodd" clip-rule="evenodd" d="M79.7544 51.7471C82.3958 44.9792 87.6554 40.3175 95.5332 37.762C89.8243 42.2081 86.2681 46.8698 84.8645 51.7471H79.7544Z" fill="#C4F0FF"/>
<path opacity="0.4" fill-rule="evenodd" clip-rule="evenodd" d="M75.2827 77.6575L82.8 75.3199V77.6575H75.2827Z" fill="#BCE5F3"/>
<path fill-rule="evenodd" clip-rule="evenodd" d="M106.754 122.175C112.751 124.191 119.962 124.695 128.386 123.687V142.06L106.754 122.175Z" fill="#BBDFE8"/>
<path fill-rule="evenodd" clip-rule="evenodd" d="M110.505 104.463H127.666C126.368 109.609 123.508 112.181 119.086 112.181C114.664 112.181 111.804 109.609 110.505 104.463Z" fill="white"/>
<path fill-rule="evenodd" clip-rule="evenodd" d="M127.666 104.463C127.497 105.133 127.302 105.76 127.08 106.343H111.092C110.87 105.76 110.674 105.133 110.505 104.463H127.666Z" fill="white"/>
<path d="M112.661 207.003C172.12 207.003 220.321 161.783 220.321 106.001C220.321 50.2199 172.12 5 112.661 5C53.2013 5 5 50.2199 5 106.001C5 161.783 53.2013 207.003 112.661 207.003Z" stroke="#E9F5FF" stroke-width="10"/>
<defs>
<linearGradient id="paint0_linear" x1="229.453" y1="122.788" x2="229.453" y2="324.359" gradientUnits="userSpaceOnUse">
<stop stop-color="#FCFCFF"/>
<stop offset="1" stop-color="#E6F9FF"/>
</linearGradient>
</defs>
</svg>
