<svg width="278" height="278" viewBox="0 0 278 278" fill="none" xmlns="http://www.w3.org/2000/svg">
<path d="M234.106 88.4566H36.1131C33.9794 88.4566 32.2498 90.1863 32.2498 92.3199V212.473C32.2498 214.607 33.9794 216.337 36.1131 216.337H234.106C236.24 216.337 237.97 214.607 237.97 212.473V92.3199C237.97 90.1863 236.24 88.4566 234.106 88.4566Z" fill="url(#paint0_linear)"/>
<path d="M25.806 115.515H129.133C130.079 115.515 130.846 116.282 130.846 117.228V197.573C130.846 198.519 130.079 199.286 129.133 199.286H25.806C24.8602 199.286 24.0935 198.519 24.0935 197.573V117.228C24.0935 116.282 24.8602 115.515 25.806 115.515Z" fill="#00042E"/>
<path d="M95.109 150.038H93.2474V142.675C93.2474 134.553 86.5677 127.949 78.3541 127.949C70.1404 127.949 63.4608 134.553 63.4608 142.675V150.038H61.5991C58.5212 150.038 56.0142 152.514 56.0142 155.56V181.331C56.0142 184.377 58.5212 186.853 61.5991 186.853H95.109C98.187 186.853 100.694 184.377 100.694 181.331V155.56C100.694 152.514 98.187 150.038 95.109 150.038ZM68.4252 142.675C68.4252 137.26 72.8783 132.857 78.3541 132.857C83.8298 132.857 88.2829 137.26 88.2829 142.675V150.038H68.4252V142.675ZM80.8363 168.99V174.581C80.8363 175.936 79.7267 177.036 78.3541 177.036C76.9814 177.036 75.8719 175.936 75.8719 174.581V168.99C74.395 168.139 73.3897 166.573 73.3897 164.764C73.3897 162.057 75.6162 159.855 78.3541 159.855C81.092 159.855 83.3185 162.057 83.3185 164.764C83.3185 166.573 82.3132 168.139 80.8363 168.99Z" fill="white" fill-opacity="0.2"/>
<path d="M93.3391 150.038H91.4775V142.675C91.4775 134.553 84.7978 127.949 76.5842 127.949C68.3705 127.949 61.6909 134.553 61.6909 142.675V150.038H59.8292C56.7513 150.038 54.2443 152.514 54.2443 155.56V181.331C54.2443 184.377 56.7513 186.853 59.8292 186.853H93.3391C96.4171 186.853 98.9241 184.377 98.9241 181.331V155.56C98.9241 152.514 96.4171 150.038 93.3391 150.038ZM66.6553 142.675C66.6553 137.26 71.1084 132.857 76.5842 132.857C82.0599 132.857 86.513 137.26 86.513 142.675V150.038H66.6553V142.675ZM79.0664 168.99V174.581C79.0664 175.936 77.9568 177.036 76.5842 177.036C75.2115 177.036 74.102 175.936 74.102 174.581V168.99C72.6251 168.139 71.6198 166.573 71.6198 164.764C71.6198 162.057 73.8463 159.855 76.5842 159.855C79.3221 159.855 81.5486 162.057 81.5486 164.764C81.5486 166.573 80.5433 168.139 79.0664 168.99Z" fill="white"/>
<path d="M142.936 115.515H246.263C247.209 115.515 247.976 116.282 247.976 117.228V197.573C247.976 198.519 247.209 199.286 246.263 199.286H142.936C141.991 199.286 141.224 198.519 141.224 197.573V117.228C141.224 116.282 141.991 115.515 142.936 115.515Z" fill="url(#paint1_linear)"/>
<path d="M212.375 154.885H223.859C224.352 156.128 225.657 156.846 226.97 156.595C228.283 156.344 229.233 155.196 229.233 153.859C229.233 152.521 228.283 151.373 226.97 151.122C225.657 150.871 224.352 151.589 223.859 152.832H212.375V147.795H219.777C220.344 147.795 220.803 147.336 220.803 146.769V140.008H223.859C224.352 141.251 225.657 141.969 226.97 141.718C228.283 141.467 229.233 140.319 229.233 138.981C229.233 137.644 228.283 136.496 226.97 136.245C225.657 135.994 224.352 136.712 223.859 137.955H219.777C219.211 137.956 218.752 138.415 218.752 138.981V145.743H212.375V140.541C212.374 139.975 211.915 139.515 211.349 139.515H206.15V133.135H212.908C213.474 133.135 213.933 132.675 213.934 132.109V128.025C215.176 127.532 215.893 126.227 215.642 124.914C215.392 123.601 214.244 122.651 212.908 122.651C211.572 122.651 210.425 123.601 210.174 124.914C209.923 126.227 210.64 127.532 211.882 128.025V131.083H205.124C204.558 131.083 204.099 131.542 204.099 132.109V139.515H199.064V128.026C200.306 127.533 201.023 126.227 200.772 124.914C200.521 123.601 199.374 122.652 198.038 122.652C196.702 122.652 195.554 123.601 195.304 124.914C195.053 126.227 195.77 127.533 197.012 128.026V139.515H191.983V128.025C193.226 127.532 193.943 126.226 193.693 124.912C193.442 123.599 192.294 122.649 190.958 122.649C189.621 122.649 188.473 123.599 188.222 124.912C187.972 126.226 188.689 127.532 189.932 128.025V139.515H184.897V132.109C184.897 131.542 184.438 131.083 183.871 131.083H177.113V128.025C178.356 127.532 179.073 126.226 178.823 124.912C178.572 123.599 177.424 122.649 176.087 122.649C174.751 122.649 173.603 123.599 173.352 124.912C173.101 126.226 173.819 127.532 175.062 128.025V132.109C175.062 132.675 175.521 133.135 176.087 133.135H182.845V139.515H177.647C177.08 139.515 176.621 139.975 176.621 140.541V145.743H170.244V138.981C170.243 138.415 169.784 137.956 169.218 137.955H165.137C164.644 136.712 163.339 135.995 162.026 136.245C160.714 136.496 159.764 137.644 159.764 138.981C159.764 140.318 160.714 141.467 162.026 141.717C163.339 141.968 164.644 141.25 165.137 140.008H168.192V146.769C168.193 147.336 168.652 147.795 169.218 147.795H176.621V152.832H165.137C164.644 151.59 163.339 150.872 162.027 151.123C160.715 151.374 159.766 152.522 159.766 153.859C159.766 155.195 160.715 156.343 162.027 156.594C163.339 156.845 164.644 156.127 165.137 154.885H176.621V159.916H165.136C164.644 158.673 163.338 157.955 162.025 158.206C160.712 158.456 159.763 159.605 159.763 160.942C159.763 162.28 160.712 163.428 162.025 163.679C163.338 163.93 164.644 163.212 165.136 161.969H176.621V167.006H169.218C168.652 167.006 168.193 167.465 168.192 168.032V174.793H165.136C164.644 173.55 163.338 172.832 162.025 173.083C160.712 173.334 159.763 174.482 159.763 175.819C159.763 177.157 160.712 178.305 162.025 178.556C163.338 178.807 164.644 178.089 165.136 176.846H169.218C169.784 176.845 170.243 176.386 170.244 175.819V169.058H176.621V174.26C176.621 174.826 177.08 175.286 177.647 175.286H182.845V181.666H176.087C175.521 181.666 175.062 182.126 175.062 182.692V186.776C173.82 187.268 173.103 188.574 173.353 189.887C173.604 191.2 174.751 192.15 176.087 192.15C177.423 192.15 178.571 191.2 178.822 189.887C179.072 188.574 178.355 187.268 177.113 186.776V183.718H183.871C184.438 183.718 184.897 183.259 184.897 182.692V175.286H189.932V186.775C188.69 187.268 187.973 188.574 188.223 189.887C188.474 191.199 189.622 192.149 190.958 192.149C192.293 192.149 193.441 191.199 193.692 189.887C193.942 188.574 193.225 187.268 191.983 186.775V175.286H197.012V186.776C195.77 187.268 195.052 188.575 195.303 189.888C195.553 191.202 196.701 192.152 198.038 192.152C199.375 192.152 200.523 191.202 200.773 189.888C201.024 188.575 200.306 187.268 199.064 186.776V175.286H204.099V182.692C204.099 183.259 204.558 183.718 205.124 183.718H211.882V186.776C210.64 187.268 209.923 188.575 210.173 189.888C210.424 191.201 211.572 192.151 212.908 192.151C214.244 192.151 215.392 191.201 215.643 189.888C215.893 188.575 215.176 187.268 213.934 186.776V182.692C213.933 182.126 213.474 181.666 212.908 181.666H206.15V175.286H211.349C211.915 175.286 212.374 174.826 212.375 174.26V169.058H218.752V175.819C218.752 176.386 219.211 176.845 219.777 176.846H223.859C224.352 178.088 225.657 178.806 226.969 178.555C228.281 178.304 229.23 177.156 229.23 175.819C229.23 174.483 228.281 173.335 226.969 173.084C225.657 172.833 224.352 173.551 223.859 174.793H220.803V168.032C220.803 167.465 220.344 167.006 219.777 167.006H212.375V161.969H223.859C224.351 163.211 225.656 163.928 226.968 163.678C228.281 163.427 229.23 162.279 229.23 160.942C229.23 159.606 228.281 158.458 226.968 158.207C225.656 157.956 224.351 158.674 223.859 159.916H212.375V154.885ZM226.442 153.126C226.846 153.126 227.174 153.454 227.174 153.859C227.174 154.263 226.846 154.592 226.442 154.592C226.037 154.592 225.709 154.263 225.709 153.859C225.709 153.454 226.037 153.125 226.442 153.124V153.126ZM226.442 138.249C226.846 138.249 227.174 138.577 227.174 138.982C227.174 139.387 226.846 139.715 226.442 139.715C226.037 139.715 225.709 139.387 225.709 138.982C225.709 138.577 226.037 138.248 226.442 138.248V138.249ZM212.909 124.708C213.313 124.708 213.641 125.036 213.641 125.441C213.641 125.846 213.313 126.174 212.909 126.174C212.504 126.174 212.176 125.846 212.176 125.441C212.177 125.037 212.504 124.709 212.909 124.708ZM198.039 124.708C198.444 124.708 198.772 125.036 198.772 125.441C198.772 125.846 198.444 126.174 198.039 126.174C197.634 126.174 197.306 125.846 197.306 125.441C197.307 125.037 197.635 124.709 198.039 124.708ZM190.956 124.708C191.361 124.708 191.689 125.036 191.689 125.441C191.689 125.846 191.361 126.174 190.956 126.174C190.552 126.174 190.224 125.846 190.224 125.441C190.224 125.037 190.552 124.709 190.956 124.708ZM176.087 124.708C176.491 124.708 176.819 125.036 176.819 125.441C176.819 125.846 176.491 126.174 176.087 126.174C175.682 126.174 175.354 125.846 175.354 125.441C175.354 125.037 175.682 124.709 176.087 124.708ZM162.554 139.714C162.257 139.714 161.99 139.535 161.877 139.261C161.763 138.987 161.826 138.672 162.036 138.462C162.245 138.253 162.56 138.19 162.834 138.304C163.108 138.417 163.286 138.684 163.286 138.981C163.286 139.386 162.958 139.713 162.554 139.714ZM162.554 154.59C162.257 154.59 161.99 154.412 161.877 154.138C161.763 153.864 161.826 153.549 162.036 153.339C162.245 153.129 162.56 153.067 162.834 153.18C163.108 153.294 163.286 153.561 163.286 153.857C163.286 154.262 162.958 154.59 162.554 154.59ZM162.554 161.677C162.257 161.677 161.99 161.498 161.877 161.224C161.763 160.95 161.826 160.635 162.036 160.425C162.245 160.216 162.56 160.153 162.834 160.266C163.108 160.38 163.286 160.647 163.286 160.943C163.286 161.348 162.958 161.676 162.554 161.677ZM162.554 176.553C162.257 176.553 161.99 176.374 161.877 176.101C161.763 175.827 161.826 175.511 162.036 175.302C162.245 175.092 162.56 175.029 162.834 175.143C163.108 175.256 163.286 175.524 163.286 175.82C163.286 176.225 162.958 176.552 162.554 176.553ZM176.087 190.093C175.682 190.093 175.354 189.764 175.354 189.36C175.354 188.955 175.682 188.627 176.087 188.627C176.491 188.627 176.819 188.955 176.819 189.36C176.819 189.764 176.491 190.092 176.087 190.093ZM190.956 190.093C190.552 190.093 190.224 189.764 190.224 189.36C190.224 188.955 190.552 188.627 190.956 188.627C191.361 188.627 191.689 188.955 191.689 189.36C191.688 189.764 191.361 190.092 190.956 190.093ZM198.039 190.093C197.634 190.093 197.306 189.764 197.306 189.36C197.306 188.955 197.634 188.627 198.039 188.627C198.444 188.627 198.772 188.955 198.772 189.36C198.771 189.764 198.444 190.092 198.039 190.093ZM212.909 190.093C212.504 190.093 212.176 189.764 212.176 189.36C212.176 188.955 212.504 188.627 212.909 188.627C213.313 188.627 213.641 188.955 213.641 189.36C213.641 189.764 213.313 190.092 212.909 190.093ZM226.442 175.087C226.846 175.087 227.174 175.415 227.174 175.82C227.174 176.225 226.846 176.553 226.442 176.553C226.037 176.553 225.709 176.225 225.709 175.82C225.709 175.415 226.037 175.087 226.442 175.087ZM226.442 160.21C226.846 160.21 227.174 160.539 227.174 160.943C227.174 161.348 226.846 161.677 226.442 161.677C226.037 161.677 225.709 161.348 225.709 160.943C225.709 160.539 226.037 160.211 226.442 160.21ZM210.323 173.233H178.672V141.567H210.323V173.233Z" fill="#A8D8EA"/>
<path d="M206.211 147.634C206.211 146.555 205.337 145.681 204.259 145.681H184.735C183.657 145.681 182.783 146.555 182.783 147.634V167.167C182.783 168.246 183.657 169.12 184.735 169.12H204.259C205.337 169.12 206.211 168.246 206.211 167.167V147.634ZM203.283 166.19H185.712V148.611H203.283V166.19Z" fill="white"/>
<path d="M185.712 166.19H203.283V148.611H185.712V166.19ZM189.616 151.541C190.156 151.541 190.593 151.978 190.593 152.517C190.593 153.057 190.156 153.494 189.616 153.494C189.077 153.494 188.64 153.057 188.64 152.517C188.64 151.978 189.077 151.541 189.616 151.541Z" fill="#FF6E40"/>
<path d="M190.591 152.517C190.591 153.057 190.154 153.494 189.615 153.494C189.076 153.494 188.639 153.057 188.639 152.517C188.639 151.978 189.076 151.541 189.615 151.541C190.154 151.541 190.591 151.978 190.591 152.517Z" fill="white"/>
<path d="M191.081 162.772H192.058V164.725H191.081V162.772Z" fill="white"/>
<path d="M193.033 162.772H194.01V164.725H193.033V162.772Z" fill="white"/>
<path d="M194.984 162.772H195.961V164.725H194.984V162.772Z" fill="white"/>
<path d="M196.938 162.772H197.914V164.725H196.938V162.772Z" fill="white"/>
<path d="M198.889 162.772H199.865V164.725H198.889V162.772Z" fill="white"/>
<path d="M189.127 162.772H190.103V164.725H189.127V162.772Z" fill="white"/>
<path d="M189.617 154.959H200.354V155.935H189.617V154.959Z" fill="white"/>
<path d="M189.617 156.912H198.402V157.889H189.617V156.912Z" fill="white"/>
<path d="M189.617 158.866H193.521V159.842H189.617V158.866Z" fill="white"/>
<path d="M194.497 158.866H195.473V159.842H194.497V158.866Z" fill="white"/>
<path d="M199.378 156.912H200.354V157.889H199.378V156.912Z" fill="white"/>
<defs>
<linearGradient id="paint0_linear" x1="31.9998" y1="58.5001" x2="335" y2="107.5" gradientUnits="userSpaceOnUse">
<stop stop-color="#CAEBF6"/>
<stop offset="1" stop-color="#F2F9FF" stop-opacity="0"/>
</linearGradient>
<linearGradient id="paint1_linear" x1="141.001" y1="116" x2="281.501" y2="224.5" gradientUnits="userSpaceOnUse">
<stop stop-color="#AEE9FF"/>
<stop offset="0.104167" stop-color="#C1EEFF"/>
<stop offset="1" stop-color="white"/>
</linearGradient>
</defs>
</svg>
