<svg width="334" height="220" viewBox="0 0 334 220" fill="none" xmlns="http://www.w3.org/2000/svg">
<path fill-rule="evenodd" clip-rule="evenodd" d="M310.072 219.037H13.9486C-16.7549 130.206 3.22968 69.4624 73.9022 36.8076C179.911 -12.1745 215.612 91.1712 275.474 103.537C338.394 119.481 349.927 157.982 310.072 219.037Z" fill="#E9F6FC" fill-opacity="0.03"/>
<path fill-rule="evenodd" clip-rule="evenodd" d="M232.617 118.676C210.687 117.835 196.889 120.013 191.223 125.21C185.557 130.407 177.401 140.144 166.756 154.421L188.503 163.573C182.077 181.155 178.02 199.643 176.331 219.037H256.195L258.698 183.414C262.532 183.56 265.352 181.459 267.158 177.112L279.654 144.945C281.694 139.695 280.529 133.82 276.613 129.609L276.607 129.603C272.526 125.215 266.849 122.411 260.684 121.739L232.617 118.676Z" fill="#E9F6FC"/>
<path opacity="0.2" fill-rule="evenodd" clip-rule="evenodd" d="M200.668 148.055C195.451 154.589 191.794 159.967 189.695 164.188L180.362 160.165L200.668 148.055Z" fill="#03839A"/>
<path fill-rule="evenodd" clip-rule="evenodd" d="M243.965 154.331C250.411 154.335 255.861 156.651 260.317 161.281C267 168.226 267.187 178.571 263.092 181.298C258.997 184.026 252.937 181.77 251.759 178.52C250.974 176.353 248.376 168.29 243.965 154.331Z" fill="#ACD9E5"/>
<path fill-rule="evenodd" clip-rule="evenodd" d="M169.454 155.5C161.972 166.43 158.23 174.055 158.23 178.375C158.23 184.854 163.072 188.832 173.466 188.832C180.395 188.832 194.762 184.792 216.567 176.711L188.504 163.573L169.454 155.5Z" fill="#CEECF7"/>
<path opacity="0.5" fill-rule="evenodd" clip-rule="evenodd" d="M179.608 166.248L207.379 173.925C207.451 174.15 207.522 174.372 207.589 174.59L207.723 175.022C207.744 175.094 207.766 175.164 207.787 175.235L207.911 175.653L208.03 176.063L208.143 176.463C208.161 176.529 208.179 176.595 208.197 176.66L208.302 177.047L208.4 177.425C208.592 178.173 208.749 178.866 208.871 179.505L207.917 179.842L206.975 180.173L206.043 180.498L205.124 180.817L204.216 181.13C204.065 181.181 203.915 181.232 203.766 181.283L202.875 181.587L201.995 181.884C201.85 181.933 201.704 181.981 201.56 182.03C201.36 181.885 201.158 181.74 200.953 181.596L200.541 181.307C200.057 180.969 199.56 180.632 199.051 180.295L198.611 180.006L198.166 179.718C197.867 179.525 197.564 179.333 197.256 179.141L196.792 178.852L196.322 178.564C196.086 178.42 195.847 178.276 195.606 178.132L195.12 177.844L194.629 177.557C194.464 177.461 194.298 177.365 194.131 177.269L193.627 176.981L193.117 176.694C193.032 176.646 192.946 176.598 192.86 176.55L192.341 176.263C192.254 176.215 192.167 176.167 192.079 176.119L191.551 175.832L191.017 175.545C190.838 175.449 190.658 175.354 190.476 175.258L189.93 174.971C189.655 174.828 189.378 174.685 189.099 174.541L188.537 174.255L187.969 173.968L187.395 173.682C187.299 173.634 187.202 173.587 187.106 173.539L186.522 173.253L185.933 172.967L185.337 172.681C185.238 172.633 185.138 172.586 185.037 172.538L184.433 172.252C184.332 172.205 184.23 172.157 184.128 172.109L183.514 171.824C183.412 171.776 183.309 171.729 183.205 171.681L182.582 171.396L181.953 171.11L181.318 170.825L180.677 170.54L180.029 170.255L179.376 169.97C179.047 169.828 178.717 169.686 178.384 169.543L177.715 169.259L177.04 168.974L176.359 168.69L175.672 168.406L174.979 168.121C174.863 168.074 174.746 168.027 174.63 167.979L173.927 167.695L179.608 166.248Z" fill="#CEECF7"/>
<path d="M167.401 172.166C171.059 169.294 174.418 167.321 177.477 166.248" stroke="#CEECF7" stroke-width="4" stroke-linecap="round"/>
<path fill-rule="evenodd" clip-rule="evenodd" d="M175.064 167.248C180.39 164.474 186.822 163.285 194.361 163.68C201.9 164.075 213.704 166.904 229.774 172.166L248.312 154.744C261.424 157.512 267.138 165.133 265.452 177.608L249.216 190.542C245.162 193.771 239.881 195.312 234.59 194.81L232.147 194.578C228.307 194.214 224.61 193.019 221.345 191.087L193.637 174.693C192.38 173.949 191.054 173.312 189.676 172.789L175.064 167.248Z" fill="#CEECF7"/>
<path opacity="0.5" fill-rule="evenodd" clip-rule="evenodd" d="M239.974 162.58L244.422 164.916L245.433 165.145L246.587 165.409L247.32 165.58L248.367 165.828L249.19 166.026L249.816 166.18L250.267 166.292L250.702 166.402L251.391 166.579L252.035 166.748L252.635 166.911L252.973 167.005L253.295 167.097L253.601 167.186L253.984 167.3L254.339 167.411L254.586 167.49L254.741 167.542L254.962 167.617L255.1 167.666L255.23 167.713L255.413 167.783L255.526 167.827L255.631 167.871L255.73 167.913L255.821 167.955L255.906 167.995L255.983 168.034L256.053 168.072C256.064 168.078 256.074 168.084 256.085 168.09L256.144 168.126C256.236 168.185 256.328 168.246 256.421 168.308L256.513 168.371L256.649 168.467L256.784 168.566L256.873 168.633L257.003 168.735L257.131 168.839L257.213 168.909L257.294 168.98L257.372 169.052L257.448 169.124L257.521 169.198L257.591 169.271C257.637 169.321 257.681 169.37 257.722 169.42L257.782 169.495C257.792 169.508 257.802 169.52 257.811 169.533L257.865 169.608L257.916 169.684C258.293 170.28 258.27 170.896 257.378 171.426C256.212 172.118 254.443 171.932 252.07 170.87C252.133 170.912 252.196 170.954 252.257 170.996L252.437 171.121C252.585 171.224 252.725 171.325 252.858 171.426L253.013 171.546C254.611 172.796 255.044 173.824 254.312 174.629C253.452 175.574 252.265 175.787 250.753 175.27C251.737 176.231 251.737 177.093 250.753 177.855C249.769 178.618 248.274 178.618 246.27 177.855C246.24 179.225 245.624 179.91 244.422 179.91C244.097 179.91 243.703 179.809 243.238 179.641L243.08 179.583L242.917 179.52L242.748 179.452L242.574 179.38L242.303 179.265L241.923 179.1L240.876 178.639L240.65 178.541L240.301 178.391L239.939 178.24L239.565 178.087L239.308 177.985L239.046 177.883L238.778 177.782C237.017 177.126 234.895 176.515 232.388 176.286L232.195 176.269C225.803 175.741 220.211 173.841 213.874 170.37L213.617 170.228C209.432 167.915 204.797 165.944 199.712 164.315L199.361 164.204L199.584 164.237L200.035 164.306L200.492 164.379C200.568 164.392 200.645 164.404 200.723 164.417L201.19 164.496L201.663 164.578L202.143 164.664L202.63 164.754L203.123 164.848L203.623 164.945C203.707 164.962 203.791 164.978 203.875 164.995L204.385 165.098L204.901 165.205L205.424 165.315L205.954 165.43L206.489 165.548L207.032 165.669L207.581 165.795L208.137 165.924L208.699 166.057L209.268 166.194L209.843 166.334L210.425 166.479L211.014 166.627L211.609 166.778L212.21 166.934L212.819 167.093L213.434 167.256L214.055 167.423L214.683 167.593L215.317 167.768L215.959 167.946L216.606 168.127C216.715 168.158 216.823 168.189 216.933 168.22L217.59 168.407L218.254 168.598L218.925 168.793C219.037 168.826 219.15 168.859 219.263 168.892L220.286 169.194L220.976 169.4C221.092 169.435 221.208 169.47 221.324 169.505L222.024 169.716L222.731 169.932L223.444 170.151L224.164 170.374L224.891 170.601L225.993 170.948L226.736 171.184L227.486 171.424L228.242 171.668L229.388 172.04C229.516 172.082 229.645 172.124 229.774 172.166L239.974 162.58Z" fill="#CEECF7"/>
<path fill-rule="evenodd" clip-rule="evenodd" d="M220.413 118.534C222.551 118.492 224.795 118.489 227.147 118.526L228.033 118.542L228.93 118.561C229.08 118.565 229.231 118.568 229.382 118.572L230.294 118.597C230.447 118.602 230.6 118.606 230.754 118.611L231.68 118.641C231.836 118.647 231.991 118.652 232.147 118.658L232.617 118.676L246.732 120.216L246.699 120.753C246.247 127.994 240.915 134.144 233.471 136.046L233.245 136.102C232.432 136.299 231.596 136.402 230.756 136.407C225.169 136.441 220.351 132.264 220.224 127.044L220.222 126.885L220.413 118.534Z" fill="white"/>
<path fill-rule="evenodd" clip-rule="evenodd" d="M199.862 163.85C210.383 161.06 220.022 159.952 228.779 160.522C241.948 161.379 245.927 161.92 250.665 164.171C252.925 165.245 255.15 166.731 257.338 168.63C257.374 168.662 257.411 168.694 257.447 168.726C257.453 168.776 257.457 168.828 257.458 168.882C257.464 169.206 257.379 169.469 257.223 169.677C257.065 169.888 256.829 170.047 256.504 170.142C255.993 170.292 255.221 170.274 254.184 170.054C252.491 169.695 250.036 168.832 246.821 167.462C245.977 167.102 245.086 166.85 244.17 166.713L240.462 166.157C241.932 166.734 243.322 167.318 244.633 167.909C246.433 168.721 248.572 169.918 250.157 171.03C251.65 172.077 252.578 173.072 252.578 173.649C252.578 173.866 252.513 174.051 252.398 174.207C252.286 174.358 252.124 174.483 251.911 174.574C251.566 174.722 251.067 174.782 250.46 174.733C249.962 174.693 249.384 174.581 248.765 174.398C249.144 174.793 249.375 175.139 249.466 175.431C249.568 175.762 249.527 176.054 249.379 176.291C249.239 176.518 248.993 176.705 248.631 176.814C248.114 176.968 247.323 176.961 246.299 176.673C245.405 176.421 244.658 176.172 244.057 175.927C244.07 176.303 243.965 176.544 243.773 176.723C243.475 177.002 242.887 177.141 241.93 177.007C241.005 176.877 239.781 176.502 238.291 176.042C236.06 175.354 233.22 174.477 229.888 173.996C226.189 173.463 222.369 171.993 217.891 170.265C215.631 169.393 213.203 168.456 210.536 167.543C205.295 165.751 201.757 164.745 199.919 164.536C199.347 164.471 198.595 164.444 197.663 164.455C198.387 164.248 199.121 164.046 199.862 163.85Z" fill="#CEECF7" stroke="#B9D8E3"/>
<path fill-rule="evenodd" clip-rule="evenodd" d="M208.45 83.3884C204.693 80.4729 202.815 76.6539 202.815 71.9315C198.468 69.3437 196.736 65.9553 197.619 61.7664C198.502 57.5775 201.327 56.0481 206.094 57.1781C206.802 52.5566 210.566 51.5023 217.385 54.0153C215.219 49.1517 215.893 46.4489 219.405 45.9067C222.917 45.3645 226.534 47.6742 230.255 52.8357C236.016 50.6753 240.347 52.4261 243.247 58.088C246.9 57.0802 249.877 57.6156 252.18 59.6943C255.635 62.8123 258.069 60.7205 259.368 61.7664C260.666 62.8123 257.758 66.697 254.458 66.697C255.814 69.7322 257.699 71.9254 260.112 73.2765C263.732 75.3033 261.024 78.4539 257.941 78.4539C258.072 82.798 256.554 85.3627 253.389 86.1481C253.529 92.8317 250.557 96.809 244.473 98.0802L208.45 83.3884Z" fill="#00042E"/>
<path fill-rule="evenodd" clip-rule="evenodd" d="M251.036 85.0867C251.708 81.4417 249.45 79.1045 246.686 80.0029C244.983 80.5564 244.005 82.5337 243.751 85.9348C243.715 86.4219 243.283 86.7996 242.763 86.7996C242.243 86.7996 241.822 86.4044 241.822 85.917V80.0029C239.013 79.4915 237.158 76.4723 236.256 70.9453C228.571 73.4908 223.074 73.045 219.764 69.6079C216.343 72.6767 212.456 73.667 208.106 72.5786C205.453 98.1626 210.136 111.126 222.156 111.469V125.956C222.156 130.424 226.017 134.046 230.78 134.046C231.776 134.046 232.763 133.885 233.7 133.568C240.626 131.231 245.243 125.068 245.243 118.163V97.0059L246.686 92.3441C249.138 89.9358 250.588 87.5167 251.036 85.0867Z" fill="#CEECF7"/>
<path fill-rule="evenodd" clip-rule="evenodd" d="M222.156 111.469C226.773 111.694 231.169 110.42 235.344 107.648C234.624 114.612 230.228 118.742 222.156 120.039V111.469Z" fill="#CEECF7"/>
<path d="M246.508 82.9725C245.752 84.4906 245.878 85.8648 246.888 87.0952" stroke="#CEECF7" stroke-width="4" stroke-linecap="round"/>
<path d="M246.022 85.3712L248.3 84.3173" stroke="#CEECF7" stroke-width="4" stroke-linecap="round"/>
<path d="M218.077 85.0342C218.89 87.6242 218.447 89.5541 216.747 90.8239C214.199 92.7285 216.224 94.8714 219.192 94.5469" stroke="#CEECF7" stroke-width="4" stroke-linecap="round"/>
<path fill-rule="evenodd" clip-rule="evenodd" d="M215.587 98.0801C218.421 98.9046 221.736 98.4607 225.53 96.7484C225.054 100.28 223.495 102.319 220.855 102.864C218.215 103.41 216.459 101.815 215.587 98.0801Z" fill="white"/>
<path fill-rule="evenodd" clip-rule="evenodd" d="M225.53 96.7484C225.472 97.1791 225.398 97.5877 225.307 97.974C223.54 98.8148 221.852 99.3025 220.245 99.4372C218.617 99.5736 217.162 99.4793 215.881 99.1544C215.774 98.8184 215.676 98.4603 215.587 98.0801C218.421 98.9046 221.736 98.4607 225.53 96.7484Z" fill="white"/>
<path d="M233.998 167.944C238.835 169.486 243.086 171.241 246.753 173.211" stroke="#CEECF7" stroke-width="4" stroke-linecap="round"/>
<path d="M235 171.88C238.833 172.963 241.658 174.093 243.475 175.27" stroke="#CEECF7" stroke-width="4" stroke-linecap="round"/>
<path d="M233.166 163.948C234.923 164.503 236.836 165.149 238.907 165.884" stroke="#B9D8E3" stroke-linecap="round"/>
<path d="M167.13 42.85C168.372 28.9347 152.364 18.2083 135.561 21.4731C132.154 9.1875 118.462 0 102.087 0C82.6809 0 67.0321 12.9072 67.8287 28.5804C67.8181 28.5804 67.8079 28.58 67.7973 28.58C50.8378 28.58 37.0898 39.5838 37.0898 53.1579C37.0898 66.4126 50.1995 77.2148 66.6064 77.7157V77.7358H168.746C180.806 77.7358 187.088 69.9109 187.088 60.2585C187.088 51.1129 178.31 43.6126 167.13 42.85Z" fill="#E9F6FC"/>
<path d="M167.135 42.85C168.376 28.9345 152.372 18.2083 135.572 21.4731C132.166 9.1875 118.477 0 102.105 0C96.6873 0 91.5632 1.00713 87.0076 2.79886C88.1499 2.7067 89.3084 2.65863 90.4809 2.65863C106.853 2.65863 125.533 11.8461 128.939 24.1317C145.74 20.8667 161.744 31.5931 160.503 45.5086C171.68 46.2714 180.457 53.7716 180.457 62.9173C180.457 69.1665 176.357 74.6462 170.196 77.7358H170.25C182.307 77.7358 187.09 69.9109 187.09 60.2585C187.09 51.1129 178.313 43.6126 167.135 42.85Z" fill="#E9F6FC"/>
<path d="M57.2996 78.1911C57.4773 78.8158 57.0815 79.4574 56.4155 79.6241C36.5115 84.6059 26.6865 95.9273 26.6865 113.817C26.6865 123.387 30.4788 130.741 37.3723 136.04C42.8163 140.225 50.0538 142.985 57.9808 144.276L58.1937 139.284L71.3911 146.106L57.6552 151.918L57.8803 146.636C49.4316 145.303 41.6756 142.376 35.7904 137.852C28.3243 132.112 24.1907 124.097 24.1907 113.817C24.1907 94.8385 34.8025 82.6103 55.7722 77.3618C56.4381 77.1951 57.1219 77.5664 57.2996 78.1911Z" fill="#FF6E40"/>
<path d="M26.2298 133.579C37.3948 133.579 46.4458 125.088 46.4458 114.614C46.4458 104.139 37.3948 95.6481 26.2298 95.6481C15.0647 95.6481 6.01367 104.139 6.01367 114.614C6.01367 125.088 15.0647 133.579 26.2298 133.579Z" fill="#FF6E40" stroke="white" stroke-width="7"/>
<path d="M31.1255 111.298L21.3263 120.491" stroke="white" stroke-width="11" stroke-linecap="round"/>
<path d="M31.128 120.491L21.3289 111.298" stroke="white" stroke-width="11" stroke-linecap="round"/>
<path fill-rule="evenodd" clip-rule="evenodd" d="M89.0405 113.121H134.948C139.801 113.121 143.735 116.812 143.735 121.364V192.829C143.735 193.296 143.331 193.675 142.834 193.675H81.1551C80.6574 193.675 80.2539 193.296 80.2539 192.829V121.364C80.2539 116.812 84.1878 113.121 89.0405 113.121Z" fill="#00042E"/>
<path fill-rule="evenodd" clip-rule="evenodd" d="M83.1265 188.812H100.909V193.048L95.117 196H83.1265C82.6288 196 82.2253 195.622 82.2253 195.155V189.657C82.2253 189.19 82.6288 188.812 83.1265 188.812Z" fill="#1D2D37"/>
<path fill-rule="evenodd" clip-rule="evenodd" d="M83.1265 189.235H100.909V193.471L95.117 196.423H83.1265C82.6288 196.423 82.2253 196.045 82.2253 195.578V190.08C82.2253 189.613 82.6288 189.235 83.1265 189.235Z" fill="#0F1449"/>
<path fill-rule="evenodd" clip-rule="evenodd" d="M141.202 188.812H123.419V193.048L129.211 196H141.202C141.7 196 142.103 195.622 142.103 195.155V189.657C142.103 189.19 141.7 188.812 141.202 188.812Z" fill="#1D2D37"/>
<path fill-rule="evenodd" clip-rule="evenodd" d="M141.202 189.235H123.419V193.471L129.211 196.423H141.202C141.7 196.423 142.103 196.045 142.103 195.578V190.08C142.103 189.613 141.7 189.235 141.202 189.235Z" fill="#0F1449"/>
<path d="M122.293 163.441H102.033V193.674H122.293V163.441Z" fill="#3C3F60"/>
<path d="M107.437 175.598C107.437 177.992 109.503 179.932 112.051 179.932C114.6 179.932 116.666 177.992 116.666 175.598C116.666 173.204 114.6 171.264 112.051 171.264" stroke="white" stroke-width="1.01384" stroke-linecap="round"/>
<path d="M113.868 177.395C114.325 176.97 114.609 176.375 114.609 175.717C114.609 174.425 113.514 173.378 112.165 173.378C110.815 173.378 109.72 174.425 109.72 175.717C109.72 176.306 109.948 176.844 110.323 177.255" stroke="white" stroke-width="1.01384" stroke-linecap="round"/>
<path d="M107.449 175.915V168.303" stroke="white" stroke-width="1.01384" stroke-linecap="round"/>
<path d="M107.663 184.535C107.87 184.535 108.029 184.491 108.14 184.404C108.25 184.317 108.306 184.195 108.306 184.04C108.306 183.933 108.271 183.84 108.203 183.76C108.134 183.679 108.041 183.626 107.924 183.601C108.025 183.578 108.106 183.531 108.168 183.458C108.231 183.386 108.262 183.294 108.262 183.185C108.262 183.036 108.208 182.921 108.1 182.841C107.992 182.761 107.839 182.72 107.642 182.72H106.761V184.535H107.663ZM107.537 183.462H107.23V183.072H107.532C107.698 183.072 107.781 183.137 107.781 183.267C107.781 183.397 107.7 183.462 107.537 183.462ZM107.565 184.178H107.23V183.77H107.562C107.646 183.77 107.711 183.788 107.757 183.825C107.803 183.862 107.825 183.913 107.825 183.978C107.825 184.111 107.738 184.178 107.565 184.178ZM109.192 185.218L110.147 183.103H109.628L109.285 183.981L108.917 183.103H108.393L109.035 184.481L108.676 185.218H109.192ZM111.2 184.55C111.447 184.55 111.652 184.489 111.814 184.367C111.976 184.244 112.08 184.081 112.128 183.875H111.631C111.595 183.957 111.538 184.022 111.462 184.07C111.387 184.118 111.296 184.142 111.192 184.142C111.055 184.142 110.944 184.096 110.86 184.002C110.776 183.909 110.734 183.784 110.734 183.626C110.734 183.469 110.776 183.343 110.86 183.249C110.944 183.155 111.055 183.108 111.192 183.108C111.296 183.108 111.387 183.132 111.462 183.18C111.538 183.228 111.595 183.294 111.631 183.377H112.128C112.08 183.17 111.976 183.006 111.814 182.885C111.652 182.763 111.447 182.702 111.2 182.702C111.012 182.702 110.846 182.741 110.704 182.819C110.561 182.897 110.451 183.006 110.373 183.146C110.295 183.287 110.256 183.447 110.256 183.626C110.256 183.806 110.295 183.966 110.373 184.106C110.451 184.247 110.561 184.356 110.704 184.433C110.846 184.511 111.012 184.55 111.2 184.55ZM113.118 184.553C113.27 184.553 113.406 184.523 113.526 184.464C113.646 184.405 113.74 184.32 113.808 184.209C113.877 184.098 113.911 183.968 113.911 183.819C113.911 183.67 113.877 183.54 113.808 183.429C113.74 183.318 113.646 183.232 113.526 183.173C113.406 183.114 113.27 183.085 113.118 183.085C112.967 183.085 112.83 183.114 112.71 183.173C112.589 183.232 112.494 183.318 112.426 183.429C112.357 183.54 112.323 183.67 112.323 183.819C112.323 183.968 112.357 184.098 112.426 184.209C112.494 184.32 112.589 184.405 112.71 184.464C112.83 184.523 112.967 184.553 113.118 184.553ZM113.118 184.17C113.029 184.17 112.953 184.14 112.892 184.081C112.831 184.021 112.8 183.933 112.8 183.819C112.8 183.704 112.831 183.616 112.892 183.556C112.953 183.495 113.029 183.465 113.118 183.465C113.208 183.465 113.283 183.495 113.343 183.556C113.404 183.616 113.434 183.704 113.434 183.819C113.434 183.933 113.404 184.021 113.343 184.081C113.283 184.14 113.208 184.17 113.118 184.17ZM114.636 184.535V182.636H114.167V184.535H114.636ZM115.374 184.535V184.096H114.888V184.535H115.374ZM116.211 184.553C116.328 184.553 116.428 184.528 116.513 184.478C116.597 184.429 116.659 184.361 116.699 184.276V184.535H117.166V183.103H116.699V183.362C116.659 183.276 116.597 183.209 116.513 183.159C116.428 183.11 116.328 183.085 116.211 183.085C116.085 183.085 115.972 183.114 115.872 183.173C115.772 183.232 115.694 183.317 115.636 183.427C115.578 183.538 115.549 183.668 115.549 183.819C115.549 183.968 115.578 184.098 115.636 184.209C115.694 184.32 115.772 184.405 115.872 184.464C115.972 184.523 116.085 184.553 116.211 184.553ZM116.362 184.168C116.261 184.168 116.18 184.137 116.119 184.075C116.058 184.014 116.027 183.928 116.027 183.819C116.027 183.709 116.058 183.624 116.119 183.562C116.18 183.501 116.261 183.47 116.362 183.47C116.46 183.47 116.541 183.501 116.604 183.563C116.668 183.626 116.699 183.711 116.699 183.819C116.699 183.925 116.668 184.01 116.604 184.073C116.541 184.136 116.46 184.168 116.362 184.168ZM117.736 182.928C117.821 182.928 117.888 182.906 117.939 182.863C117.991 182.819 118.016 182.765 118.016 182.7C118.016 182.633 117.991 182.578 117.939 182.534C117.888 182.491 117.821 182.469 117.736 182.469C117.652 182.469 117.585 182.491 117.533 182.534C117.482 182.578 117.456 182.633 117.456 182.7C117.456 182.765 117.482 182.819 117.533 182.863C117.585 182.906 117.652 182.928 117.736 182.928ZM117.97 184.535V183.103H117.5V184.535H117.97Z" fill="white"/>
<path d="M124.852 131.915H99.4176C98.4222 131.915 97.6152 132.672 97.6152 133.606V157.498C97.6152 158.432 98.4222 159.189 99.4176 159.189H124.852C125.847 159.189 126.654 158.432 126.654 157.498V133.606C126.654 132.672 125.847 131.915 124.852 131.915Z" fill="white" fill-opacity="0.08"/>
<path d="M112.05 157.521C118.764 157.521 124.206 152.409 124.206 146.104C124.206 139.798 118.764 134.687 112.05 134.687C105.337 134.687 99.8943 139.798 99.8943 146.104C99.8943 152.409 105.337 157.521 112.05 157.521Z" fill="white" fill-opacity="0.17"/>
<path d="M112.051 155.618C117.646 155.618 122.181 151.359 122.181 146.104C122.181 140.849 117.646 136.59 112.051 136.59C106.457 136.59 101.921 140.849 101.921 146.104C101.921 151.359 106.457 155.618 112.051 155.618Z" fill="#282A3F"/>
<path d="M112.051 153.715C116.465 153.715 120.043 150.355 120.043 146.21C120.043 142.064 116.465 138.704 112.051 138.704C107.638 138.704 104.06 142.064 104.06 146.21C104.06 150.355 107.638 153.715 112.051 153.715Z" fill="#3C3F60"/>
<path d="M112.278 152.235C115.821 152.235 118.693 149.537 118.693 146.21C118.693 142.882 115.821 140.184 112.278 140.184C108.734 140.184 105.862 142.882 105.862 146.21C105.862 149.537 108.734 152.235 112.278 152.235Z" fill="#282A3F"/>
<path d="M112.277 149.698C114.328 149.698 115.991 148.136 115.991 146.21C115.991 144.283 114.328 142.721 112.277 142.721C110.226 142.721 108.563 144.283 108.563 146.21C108.563 148.136 110.226 149.698 112.277 149.698Z" fill="#3C3F60"/>
<path d="M125.895 145.681H98.4314V146.738H125.895V145.681Z" fill="#282A3F"/>
<path fill-rule="evenodd" clip-rule="evenodd" d="M112.726 133.313V159.106H111.601V133.313H112.726Z" fill="#282A3F"/>
</svg>
